<svg id="Layer_1" data-name="Layer 1" xmlns="http://www.w3.org/2000/svg" xmlns:xlink="http://www.w3.org/1999/xlink" viewBox="0 0 295.63 213.79"><defs><style>.cls-1,.cls-3{fill:none;}.cls-2{clip-path:url(#clip-path);}.cls-3{stroke:#231f20;}.cls-4,.cls-9{font-size:28px;fill:#231f20;font-family:CooperHewitt-Bold, Cooper Hewitt;font-weight:700;}.cls-10,.cls-4{letter-spacing:-0.01em;}.cls-5{letter-spacing:-0.01em;}.cls-6{letter-spacing:-0.01em;}.cls-7{letter-spacing:-0.01em;}.cls-8{letter-spacing:0em;}.cls-11{letter-spacing:-0.01em;}.cls-12{letter-spacing:0em;}.cls-13{letter-spacing:0em;}.cls-14{letter-spacing:-0.01em;}.cls-15{letter-spacing:-0.02em;}.cls-16{letter-spacing:-0.02em;}.cls-17{letter-spacing:-0.01em;}.cls-18{letter-spacing:-0.01em;}.cls-19{letter-spacing:-0.02em;}.cls-20{letter-spacing:-0.01em;}.cls-21{letter-spacing:-0.01em;}.cls-22{letter-spacing:-0.01em;}.cls-23{letter-spacing:0em;}.cls-24{letter-spacing:-0.01em;}.cls-25{letter-spacing:0em;}.cls-26{letter-spacing:-0.01em;}.cls-27{letter-spacing:-0.01em;}.cls-28{letter-spacing:-0.06em;}.cls-29{letter-spacing:0em;}.cls-30{letter-spacing:-0.01em;}.cls-31{letter-spacing:-0.02em;}.cls-32{letter-spacing:0.01em;}.cls-33{letter-spacing:-0.02em;}.cls-34{letter-spacing:-0.02em;}</style><clipPath id="clip-path"><rect class="cls-1" x="-9.84" width="320.4" height="207.4"/></clipPath></defs><title>designimplementation-polygon</title><g class="cls-2"><polygon class="cls-3" points="218.67 4.11 81.27 4.11 12.57 105.5 81.27 206.9 218.67 206.9 287.36 105.5 218.67 4.11"/></g><text class="cls-4" transform="translate(97.43 29.1)">“<tspan class="cls-5" x="13.38" y="0">G</tspan><tspan class="cls-6" x="32.06" y="0">r</tspan><tspan class="cls-5" x="42.53" y="0">o</tspan><tspan class="cls-7" x="57.93" y="0">u</tspan><tspan x="73.98" y="0">p</tspan><tspan class="cls-8" x="89.82" y="0">s </tspan></text><text class="cls-9" transform="translate(59.32 61.11)"><tspan class="cls-10">a</tspan><tspan class="cls-11" x="15.15" y="0">l</tspan><tspan class="cls-12" x="22.34" y="0">m</tspan><tspan class="cls-11" x="46.4" y="0">o</tspan><tspan class="cls-13" x="61.71" y="0">s</tspan><tspan x="76.38" y="0">t </tspan><tspan class="cls-10" x="94.05" y="0">a</tspan><tspan class="cls-14" x="109.2" y="0">l</tspan><tspan class="cls-15" x="116.31" y="0">w</tspan><tspan class="cls-16" x="137.31" y="0">a</tspan><tspan class="cls-17" x="152.07" y="0">y</tspan><tspan x="167.07" y="0">s </tspan></text><text class="cls-9" transform="translate(45.49 93.11)"><tspan class="cls-18">w</tspan><tspan class="cls-10" x="21.08" y="0">o</tspan><tspan class="cls-19" x="36.43" y="0">r</tspan><tspan x="46.76" y="0">k </tspan><tspan class="cls-20" x="68.1" y="0">t</tspan><tspan class="cls-12" x="79.77" y="0">o</tspan><tspan class="cls-21" x="95.23" y="0">g</tspan><tspan class="cls-12" x="111.05" y="0">e</tspan><tspan class="cls-14" x="126.5" y="0">t</tspan><tspan class="cls-5" x="138.23" y="0">he</tspan><tspan x="169.71" y="0">r </tspan><tspan class="cls-22" x="186.09" y="0">i</tspan><tspan class="cls-8" x="193.25" y="0">n </tspan></text><text class="cls-9" transform="translate(35.6 125.11)">a <tspan class="cls-7" x="20.97" y="0">l</tspan><tspan class="cls-5" x="28.22" y="0">e</tspan><tspan class="cls-11" x="43.62" y="0">s</tspan><tspan class="cls-23" x="58.16" y="0">s</tspan><tspan x="72.88" y="0">-</tspan><tspan class="cls-14" x="82.77" y="0">t</tspan><tspan class="cls-5" x="94.5" y="0">h</tspan><tspan class="cls-24" x="110.57" y="0">a</tspan><tspan class="cls-25" x="125.75" y="0">n</tspan><tspan x="142.04" y="0">-</tspan><tspan class="cls-26" x="151.93" y="0">l</tspan><tspan class="cls-11" x="159.07" y="0">i</tspan><tspan class="cls-27" x="166.26" y="0">n</tspan><tspan class="cls-12" x="182.33" y="0">e</tspan><tspan class="cls-24" x="197.79" y="0">a</tspan><tspan class="cls-28" x="212.97" y="0">r</tspan><tspan x="221.93" y="0">, </tspan></text><text class="cls-9" transform="translate(66.85 157.12)"><tspan class="cls-29">c</tspan><tspan class="cls-5" x="14.67" y="0">o</tspan><tspan class="cls-6" x="30.07" y="0">l</tspan><tspan class="cls-11" x="37.21" y="0">l</tspan><tspan class="cls-5" x="44.41" y="0">a</tspan><tspan class="cls-23" x="59.61" y="0">b</tspan><tspan class="cls-10" x="75.63" y="0">o</tspan><tspan class="cls-19" x="90.97" y="0">r</tspan><tspan class="cls-11" x="101.3" y="0">a</tspan><tspan class="cls-30" x="116.42" y="0">t</tspan><tspan class="cls-7" x="128.13" y="0">i</tspan><tspan class="cls-31" x="135.38" y="0">v</tspan><tspan x="150.19" y="0">e </tspan></text><text class="cls-9" transform="translate(87.96 189.12)"><tspan class="cls-18">w</tspan><tspan class="cls-10" x="21.08" y="0">o</tspan><tspan class="cls-17" x="36.43" y="0">r</tspan><tspan class="cls-32" x="46.79" y="0">k</tspan><tspan class="cls-33" x="62.72" y="0">f</tspan><tspan class="cls-7" x="73.81" y="0">l</tspan><tspan class="cls-20" x="81.06" y="0">o</tspan><tspan class="cls-34" x="96.24" y="0">w</tspan><tspan x="117.04" y="0">.</tspan></text></svg>