<?xml version="1.0" encoding="utf-8"?>
<!-- Generator: Adobe Illustrator 22.1.0, SVG Export Plug-In . SVG Version: 6.00 Build 0)  -->
<svg version="1.1" id="Layer_1" xmlns="http://www.w3.org/2000/svg" xmlns:xlink="http://www.w3.org/1999/xlink" x="0px" y="0px"
	 viewBox="0 0 191.7 143.8" style="enable-background:new 0 0 191.7 143.8;" xml:space="preserve">
<style type="text/css">
	.st0{clip-path:url(#SVGID_2_);}
	.st1{fill:none;stroke:#231F20;}
	.st2{fill:#231F20;}
	.st3{font-family:'CooperHewitt-Bold';}
	.st4{font-size:18.965px;}
	.st5{letter-spacing:-1;}
</style>
<title>designimplementation-polygon</title>
<g>
	<defs>
		<rect id="SVGID_1_" x="-11.9" width="217" height="140.5"/>
	</defs>
	<clipPath id="SVGID_2_">
		<use xlink:href="#SVGID_1_"  style="overflow:visible;"/>
	</clipPath>
	<g class="st0">
		<polygon class="st1" points="142.9,2.8 49.9,2.8 3.3,71.5 49.9,140.1 142.9,140.1 189.4,71.5 		"/>
	</g>
</g>
<text transform="matrix(1 0 0 1 60.8005 19.7104)" class="st2 st3 st4">“</text>
<text transform="matrix(1 0 0 1 69.863 19.7104)" class="st2 st3 st4">G</text>
<text transform="matrix(1 0 0 1 82.5153 19.7104)" class="st2 st3 st4">r</text>
<text transform="matrix(1 0 0 1 89.6066 19.7104)" class="st2 st3 st4">o</text>
<text transform="matrix(1 0 0 1 100.0378 19.7104)" class="st2 st3 st4">u</text>
<text transform="matrix(1 0 0 1 110.9084 19.7104)" class="st2 st3 st4">p</text>
<text transform="matrix(1 0 0 1 121.6379 19.7104)" class="st2 st3 st4">s</text>
<text transform="matrix(1 0 0 1 34.9875 41.3911)" class="st2 st3 st4">a</text>
<text transform="matrix(1 0 0 1 45.2487 41.3911)" class="st2 st3 st4">l</text>
<text transform="matrix(1 0 0 1 50.1188 41.3911)" class="st2 st3 st4">m</text>
<text transform="matrix(1 0 0 1 66.4152 41.3911)" class="st2 st3 st4">o</text>
<text transform="matrix(1 0 0 1 76.7853 41.3911)" class="st2 st3 st4">s</text>
<text transform="matrix(1 0 0 1 86.7214 41.3911)" class="st2 st3 st4">t </text>
<text transform="matrix(1 0 0 1 98.6896 41.3911)" class="st2 st3 st4">a</text>
<text transform="matrix(1 0 0 1 108.9519 41.3911)" class="st2 st3 st4">l</text>
<text transform="matrix(1 0 0 1 113.7673 41.3911)" class="st2 st3 st4">w</text>
<text transform="matrix(1 0 0 1 127.9909 41.3911)" class="st2 st3 st4">a</text>
<text transform="matrix(1 0 0 1 137.989 41.3911)" class="st2 st3 st4">y</text>
<text transform="matrix(1 0 0 1 148.1486 41.3911)" class="st2 st3 st4">s</text>
<text transform="matrix(1 0 0 1 25.6203 63.0659)" class="st2 st3 st4">w</text>
<text transform="matrix(1 0 0 1 39.8981 63.0659)" class="st2 st3 st4">o</text>
<text transform="matrix(1 0 0 1 50.2951 63.0659)" class="st2 st3 st4">r</text>
<text transform="matrix(1 0 0 1 57.2917 63.0659)" class="st2 st3 st4">k </text>
<text transform="matrix(1 0 0 1 71.7458 63.0659)" class="st2 st3 st4">t</text>
<text transform="matrix(1 0 0 1 79.6501 63.0659)" class="st2 st3 st4">o</text>
<text transform="matrix(1 0 0 1 90.1213 63.0659)" class="st2 st3 st4">g</text>
<text transform="matrix(1 0 0 1 100.8366 63.0659)" class="st2 st3 st4">e</text>
<text transform="matrix(1 0 0 1 111.3015 63.0659)" class="st2 st3 st4">t</text>
<text transform="matrix(1 0 0 1 119.2477 63.0659)" class="st2 st3 st4">he</text>
<text transform="matrix(1 0 0 1 140.569 63.0659)" class="st2 st3 st4">r </text>
<text transform="matrix(1 0 0 1 151.6642 63.0659)" class="st2 st3 st4">i</text>
<text transform="matrix(1 0 0 1 156.5129 63.0659)" class="st2 st3 st4">n</text>
<text transform="matrix(1 0 0 1 18.9216 84.7402)" class="st2 st3 st4">a </text>
<text transform="matrix(1 0 0 1 33.1247 84.7402)" class="st2 st3 st4">l</text>
<text transform="matrix(1 0 0 1 38.0353 84.7402)" class="st2 st3 st4">e</text>
<text transform="matrix(1 0 0 1 48.466 84.7402)" class="st2 st3 st4">s</text>
<text transform="matrix(1 0 0 1 58.3142 84.7402)" class="st2 st3 st4">s</text>
<text transform="matrix(1 0 0 1 68.2849 84.7402)" class="st2 st3 st4">-</text>
<text transform="matrix(1 0 0 1 74.9836 84.7402)" class="st2 st3 st4">t</text>
<text transform="matrix(1 0 0 1 82.9284 84.7402)" class="st2 st3 st4">h</text>
<text transform="matrix(1 0 0 1 93.8132 84.7402)" class="st2 st3 st4">a</text>
<text transform="matrix(1 0 0 1 104.0944 84.7402)" class="st2 st3 st4">n</text>
<text transform="matrix(1 0 0 1 115.1286 84.7402)" class="st2 st3 st4">-</text>
<text transform="matrix(1 0 0 1 121.8278 84.7402)" class="st2 st3 st4">l</text>
<text transform="matrix(1 0 0 1 126.6633 84.7402)" class="st2 st3 st4">i</text>
<text transform="matrix(1 0 0 1 131.5329 84.7402)" class="st2 st3 st4">n</text>
<text transform="matrix(1 0 0 1 142.4186 84.7402)" class="st2 st3 st4">e</text>
<text transform="matrix(1 0 0 1 152.8898 84.7402)" class="st2 st3 st4">a</text>
<text transform="matrix(1 0 0 1 163.1711 84.7402)" class="st2 st3 st4 st5">r</text>
<text transform="matrix(1 0 0 1 169.2404 84.7402)" class="st2 st3 st4">,</text>
<text transform="matrix(1 0 0 1 40.0876 106.4204)" class="st2 st3 st4">c</text>
<text transform="matrix(1 0 0 1 50.0241 106.4204)" class="st2 st3 st4">o</text>
<text transform="matrix(1 0 0 1 60.4548 106.4204)" class="st2 st3 st4">l</text>
<text transform="matrix(1 0 0 1 65.2907 106.4204)" class="st2 st3 st4">l</text>
<text transform="matrix(1 0 0 1 70.1677 106.4204)" class="st2 st3 st4">a</text>
<text transform="matrix(1 0 0 1 80.4631 106.4204)" class="st2 st3 st4">b</text>
<text transform="matrix(1 0 0 1 91.3137 106.4204)" class="st2 st3 st4">o</text>
<text transform="matrix(1 0 0 1 101.7038 106.4204)" class="st2 st3 st4">r</text>
<text transform="matrix(1 0 0 1 108.7004 106.4204)" class="st2 st3 st4">a</text>
<text transform="matrix(1 0 0 1 118.9421 106.4204)" class="st2 st3 st4">t</text>
<text transform="matrix(1 0 0 1 126.8737 106.4204)" class="st2 st3 st4">i</text>
<text transform="matrix(1 0 0 1 131.7839 106.4204)" class="st2 st3 st4">v</text>
<text transform="matrix(1 0 0 1 141.8151 106.4204)" class="st2 st3 st4">e</text>
<text transform="matrix(1 0 0 1 54.3864 128.0947)" class="st2 st3 st4">w</text>
<text transform="matrix(1 0 0 1 68.6638 128.0947)" class="st2 st3 st4">o</text>
<text transform="matrix(1 0 0 1 79.0612 128.0947)" class="st2 st3 st4">r</text>
<text transform="matrix(1 0 0 1 86.0783 128.0947)" class="st2 st3 st4">k</text>
<text transform="matrix(1 0 0 1 96.8674 128.0947)" class="st2 st3 st4">f</text>
<text transform="matrix(1 0 0 1 104.3791 128.0947)" class="st2 st3 st4">l</text>
<text transform="matrix(1 0 0 1 109.2902 128.0947)" class="st2 st3 st4">o</text>
<text transform="matrix(1 0 0 1 119.5715 128.0947)" class="st2 st3 st4">w</text>
<text transform="matrix(1 0 0 1 133.6603 128.0947)" class="st2 st3 st4">.</text>
</svg>
