<svg id="Layer_1" data-name="Layer 1" xmlns="http://www.w3.org/2000/svg" viewBox="0 0 315.32 279.99"><defs><style>.cls-1{fill:#60b174;}.cls-2{fill:#0c8643;}.cls-3,.cls-7{fill:none;stroke-miterlimit:10;}.cls-3{stroke:#5fb174;stroke-width:6px;}.cls-4{fill:#5eb174;}.cls-5{fill:#f16623;}.cls-6{fill:#faa61c;}.cls-7{stroke:#f16623;stroke-width:7px;}.cls-8{fill:#f06724;}</style></defs><title>Artboard 1</title><rect class="cls-1" x="0.42" width="279.15" height="279.99" rx="12" ry="12"/><path class="cls-2" d="M101.27,64.55C149,73.37,167,63.43,162.32,44.08s-37.8-28-74-19.26C59.77,31.67,40.72,59.17,33.88,70.6a.84.84,0,0,0,1.22,1.1C42.44,66.06,61.12,57.12,101.27,64.55Z"/><path class="cls-3" d="M101.94,67.32c49.06,7.81,67.77-2.11,63.27-20.81S126.66,20,89.15,29c-29.84,7.18-50,34.7-57,45.66-.46.71.5,1.39,1.21.85C40.78,69.91,60.14,60.66,101.94,67.32Z"/><path class="cls-4" d="M152.2,56.85c-14.81-8.8-30.62-16-47.89-18.29-15.55-2.09-35.7,1.09-44.94,15.16-.2.3,4.12,2.62,4.66,1.8,8.27-12.6,25.35-16.16,39.5-15.41C119.79,41,134.91,48,148.66,56.2c.69.41,5.31,1.7,3.54.65Z"/><ellipse class="cls-5" cx="205.95" cy="225.08" rx="104.72" ry="33.49"/><circle class="cls-6" cx="130.46" cy="140.23" r="105.69"/><circle class="cls-7" cx="134.13" cy="140.63" r="105.69"/><path class="cls-6" d="M171.83,225.17c3.22,0,3.23-5,0-5s-3.22,5,0,5Z"/><path class="cls-6" d="M149.47,224.1c3.22,0,3.22-5,0-5s-3.22,5,0,5Z"/><path class="cls-6" d="M159.38,214.05c3.22,0,3.23-5,0-5s-3.22,5,0,5Z"/><path class="cls-6" d="M187.51,216.84c3.22,0,3.22-5,0-5s-3.22,5,0,5Z"/><path class="cls-6" d="M172.33,221.81c3.22,0,3.22-5,0-5s-3.22,5,0,5Z"/><path class="cls-6" d="M172.85,214.84h1.2a2.52,2.52,0,0,0,2.5-2.5,2.55,2.55,0,0,0-2.5-2.5h-1.2a2.52,2.52,0,0,0-2.5,2.5,2.55,2.55,0,0,0,2.5,2.5Z"/><path class="cls-6" d="M179.12,212c3.21,0,3.22-5,0-5s-3.23,5,0,5Z"/><path class="cls-6" d="M191.91,203.39c3.22,0,3.22-5,0-5s-3.22,5,0,5Z"/><path class="cls-2" d="M158.19,93.07c-8.27-47.81,1.89-65.69,21.18-60.81s27.53,38.13,18.39,74.27c-7.18,28.42-34.9,47.15-46.42,53.85a.83.83,0,0,1-1.08-1.22C156,151.87,165.14,133.31,158.19,93.07Z"/><path class="cls-3" d="M155.43,92.37c-7.25-49.15,2.9-67.74,21.55-63s26.1,38.86,16.64,76.27c-7.53,29.75-35.29,49.63-46.32,56.51-.72.45-1.38-.52-.85-1.22C152.11,153.49,161.59,134.24,155.43,92.37Z"/><path class="cls-4" d="M164.49,43.26c8.23,14.23,15.16,29.57,16.62,46.19,1.31,14.86-2.2,33.71-15.67,42.32-.22.15,3.45,2.58,4.42,2,13.62-8.71,17.24-27.41,15.92-42.49-1.46-16.68-8.44-32.2-16.7-46.48-.65-1.13-4.57-1.47-4.59-1.5Z"/><path class="cls-6" d="M173.59,211c3.22,0,3.22-5,0-5s-3.22,5,0,5Z"/><path class="cls-8" d="M82.44,207.64c3.22,0,3.23-5,0-5s-3.22,5,0,5Z"/><path class="cls-8" d="M96.32,223.1c3.21,0,3.22-5,0-5s-3.23,5,0,5Z"/><path class="cls-8" d="M116.86,204c3.22,0,3.22-5,0-5s-3.22,5,0,5Z"/><path class="cls-8" d="M111.47,222.94c3.22,0,3.22-5,0-5s-3.22,5,0,5Z"/><path class="cls-8" d="M110,230.63c3.21,0,3.22-5,0-5s-3.23,5,0,5Z"/><path class="cls-8" d="M112.39,230.64c3.22,0,3.23-5,0-5s-3.22,5,0,5Z"/><path class="cls-8" d="M125.12,235.28c3.21,0,3.22-5,0-5s-3.23,5,0,5Z"/><path class="cls-8" d="M136.4,228l1.44.73a2.5,2.5,0,1,0,2.52-4.31l-1.44-.73A2.5,2.5,0,1,0,136.4,228Z"/><path class="cls-8" d="M139.59,228.14c3.21,0,3.22-5,0-5s-3.23,5,0,5Z"/><path class="cls-8" d="M137.61,227.08l0,2.41a2.53,2.53,0,0,0,2.5,2.5,2.55,2.55,0,0,0,2.5-2.5l0-2.41a2.52,2.52,0,0,0-2.5-2.5,2.55,2.55,0,0,0-2.5,2.5Z"/><path class="cls-8" d="M141,236.08c3.22,0,3.22-5,0-5s-3.22,5,0,5Z"/><path class="cls-8" d="M150.59,239.74c3.22,0,3.22-5,0-5s-3.22,5,0,5Z"/><path class="cls-8" d="M153,234.94c3.22,0,3.22-5,0-5s-3.22,5,0,5Z"/><path class="cls-8" d="M155.21,230.62c3.22,0,3.22-5,0-5s-3.22,5,0,5Z"/><path class="cls-8" d="M155.22,228.22c3.22,0,3.22-5,0-5s-3.22,5,0,5Z"/><path class="cls-8" d="M150.43,223.38c3.22,0,3.23-5,0-5s-3.22,5,0,5Z"/><path class="cls-8" d="M125.4,227.58c3.21,0,3.22-5,0-5s-3.23,5,0,5Z"/><path class="cls-8" d="M133.85,220.41c3.22,0,3.23-5,0-5s-3.22,5,0,5Z"/><path class="cls-8" d="M138.66,221.64c3.21,0,3.22-5,0-5s-3.23,5,0,5Z"/><path class="cls-8" d="M144.16,227.44c3.22,0,3.22-5,0-5s-3.22,5,0,5Z"/><path class="cls-8" d="M145.84,228.89c3.21,0,3.22-5,0-5s-3.23,5,0,5Z"/><path class="cls-8" d="M165.56,229.23c3.22,0,3.22-5,0-5s-3.22,5,0,5Z"/><path class="cls-8" d="M163.12,235.23c3.22,0,3.22-5,0-5s-3.22,5,0,5Z"/><path class="cls-8" d="M162.74,215.75c3.22,0,3.22-5,0-5s-3.22,5,0,5Z"/><path class="cls-8" d="M176.89,224.72c3.21,0,3.22-5,0-5s-3.23,5,0,5Z"/><path class="cls-8" d="M179.8,220.16c3.21,0,3.22-5,0-5s-3.23,5,0,5Z"/><path class="cls-8" d="M171.79,210.85l-1,.72a2.75,2.75,0,0,0-1.15,1.49,2.55,2.55,0,0,0,.26,1.93,2.52,2.52,0,0,0,3.42.9l1-.72a2.71,2.71,0,0,0,1.15-1.49,2.5,2.5,0,0,0-3.67-2.83Z"/><path class="cls-8" d="M168,222c3.22,0,3.22-5,0-5s-3.22,5,0,5Z"/><path class="cls-8" d="M168.44,229.49c3.22,0,3.23-5,0-5s-3.22,5,0,5Z"/><path class="cls-8" d="M174,232.88c3.22,0,3.22-5,0-5s-3.22,5,0,5Z"/><path class="cls-8" d="M176.62,230c3.22,0,3.22-5,0-5s-3.22,5,0,5Z"/><path class="cls-8" d="M184.59,223.8c3.22,0,3.22-5,0-5s-3.22,5,0,5Z"/><path class="cls-8" d="M187.26,219.72c3.21,0,3.22-5,0-5s-3.23,5,0,5Z"/><path class="cls-8" d="M185.83,216.59c3.22,0,3.22-5,0-5s-3.22,5,0,5Z"/><path class="cls-8" d="M179.07,220.4c3.22,0,3.23-5,0-5s-3.22,5,0,5Z"/><path class="cls-8" d="M170.41,222c3.21,0,3.22-5,0-5s-3.23,5,0,5Z"/><path class="cls-8" d="M166.3,225.39c3.22,0,3.22-5,0-5s-3.22,5,0,5Z"/><path class="cls-8" d="M172.5,235.76c3.22,0,3.22-5,0-5s-3.22,5,0,5Z"/><path class="cls-8" d="M173.49,230.23c3.22,0,3.22-5,0-5s-3.22,5,0,5Z"/><path class="cls-8" d="M171.07,233.83c3.21,0,3.22-5,0-5s-3.23,5,0,5Z"/><path class="cls-8" d="M166.72,236.45c3.22,0,3.23-5,0-5s-3.22,5,0,5Z"/><path class="cls-8" d="M157.85,229.63l.24-.48a2.5,2.5,0,0,0-4.32-2.53l-.24.48a2.5,2.5,0,0,0,4.32,2.53Z"/><path class="cls-8" d="M157.16,225.58c3.22,0,3.22-5,0-5s-3.22,5,0,5Z"/><path class="cls-8" d="M159.39,219a13.48,13.48,0,0,0-6.06-1.57c-3.22-.06-3.22,4.94,0,5a7.71,7.71,0,0,1,3.54.89,2.56,2.56,0,0,0,3.42-.9,2.53,2.53,0,0,0-.9-3.42Z"/><path class="cls-8" d="M110.57,211.63c3.21,0,3.22-5,0-5s-3.23,5,0,5Z"/><path class="cls-8" d="M110.73,228.44a4.53,4.53,0,0,0,2,1.9,4.93,4.93,0,0,0,3.25.41,2.51,2.51,0,0,0,1.75-3.07,2.58,2.58,0,0,0-3.08-1.75c.44,0,.53-.06.26,0s-.18,0,.26.05l-.26-.07c-.24-.09-.17-.05.22.1l-.23-.14c.32.26.39.3.2.13s-.13-.13.13.19a1.83,1.83,0,0,1-.13-.24,2.52,2.52,0,0,0-3.42-.89,2.56,2.56,0,0,0-.9,3.42Z"/><path class="cls-8" d="M120.84,224.67c3.22,0,3.22-5,0-5s-3.22,5,0,5Z"/><path class="cls-8" d="M121.81,224c3.22,0,3.22-5,0-5s-3.22,5,0,5Z"/><path class="cls-8" d="M133.87,218c3.21,0,3.22-5,0-5s-3.23,5,0,5Z"/><path class="cls-8" d="M130.43,227.71l.24.72a2.5,2.5,0,1,0,4.82-1.33l-.24-.72a2.5,2.5,0,1,0-4.82,1.33Z"/><path class="cls-8" d="M132.11,232.19c3.22,0,3.22-5,0-5s-3.22,5,0,5Z"/><path class="cls-8" d="M129,238.42c3.22,0,3.22-5,0-5s-3.22,5,0,5Z"/><path class="cls-8" d="M131.11,240.12c3.21,0,3.22-5,0-5s-3.23,5,0,5Z"/><path class="cls-8" d="M137.6,240.39c3.22,0,3.22-5,0-5s-3.22,5,0,5Z"/><path class="cls-8" d="M134.75,232.92c3.22,0,3.22-5,0-5s-3.22,5,0,5Z"/><path class="cls-8" d="M140.5,237c3.22,0,3.23-5,0-5s-3.22,5,0,5Z"/><path class="cls-8" d="M141,238.49c3.21,0,3.22-5,0-5s-3.23,5,0,5Z"/><path class="cls-8" d="M147,233.71c3.22,0,3.23-5,0-5s-3.22,5,0,5Z"/><path class="cls-8" d="M150.39,233c3.21,0,3.22-5,0-5s-3.23,5,0,5Z"/><path class="cls-8" d="M147.7,240.68c3.22,0,3.22-5,0-5s-3.22,5,0,5Z"/><path class="cls-8" d="M141,243.3c3.22,0,3.22-5,0-5s-3.22,5,0,5Z"/><path class="cls-8" d="M128.69,242.51c3.22,0,3.22-5,0-5s-3.22,5,0,5Z"/><path class="cls-8" d="M121.73,239.59c3.21,0,3.22-5,0-5s-3.23,5,0,5Z"/><path class="cls-8" d="M124.64,235c3.21,0,3.22-5,0-5s-3.23,5,0,5Z"/><path class="cls-8" d="M198.58,215.21c3.22,0,3.23-5,0-5s-3.22,5,0,5Z"/><path class="cls-8" d="M192.06,221c3.22,0,3.22-5,0-5s-3.22,5,0,5Z"/><path class="cls-8" d="M189.14,226.71c3.22,0,3.23-5,0-5s-3.22,5,0,5Z"/><path class="cls-8" d="M179.73,232.19c3.22,0,3.23-5,0-5s-3.22,5,0,5Z"/><path class="cls-8" d="M180.25,226.42c3.21,0,3.22-5,0-5s-3.23,5,0,5Z"/><path class="cls-8" d="M186,226.93c3.21,0,3.22-5,0-5s-3.23,5,0,5Z"/><path class="cls-8" d="M191.62,212.29c3.22,0,3.23-5,0-5s-3.22,5,0,5Z"/><path class="cls-8" d="M195.51,205.81c3.21,0,3.22-5,0-5s-3.23,5,0,5Z"/><path class="cls-8" d="M204.68,199.61c3.22,0,3.22-5,0-5s-3.22,5,0,5Z"/><path class="cls-8" d="M203.71,198.5l.23.72a2.5,2.5,0,1,0,4.82-1.33l-.23-.72a2.5,2.5,0,1,0-4.82,1.33Z"/><path class="cls-8" d="M200.52,212.57c3.22,0,3.22-5,0-5s-3.22,5,0,5Z"/><path class="cls-8" d="M195.07,197.15c3.22,0,3.22-5,0-5s-3.22,5,0,5Z"/><path class="cls-8" d="M198.67,186l1,.49a2.5,2.5,0,0,0,2.53-4.32l-1-.49a2.5,2.5,0,0,0-2.53,4.32Z"/><path class="cls-8" d="M206,185.18c3.22,0,3.23-5,0-5s-3.22,5,0,5Z"/><path class="cls-8" d="M169.83,194.62c3.21,0,3.22-5,0-5s-3.23,5,0,5Z"/><path class="cls-8" d="M165.2,204.93c3.22,0,3.23-5,0-5s-3.22,5,0,5Z"/><path class="cls-8" d="M169.51,209.53c3.22,0,3.22-5,0-5s-3.22,5,0,5Z"/><path class="cls-8" d="M168.48,211.11l.48.24a2.5,2.5,0,1,0,2.52-4.31l-.48-.25a2.5,2.5,0,0,0-2.52,4.32Z"/><path class="cls-8" d="M185.37,211.53c3.22,0,3.23-5,0-5s-3.22,5,0,5Z"/><path class="cls-8" d="M171.08,231.42c3.22,0,3.22-5,0-5s-3.22,5,0,5Z"/><path class="cls-8" d="M165.28,235.72c3.22,0,3.23-5,0-5s-3.22,5,0,5Z"/><path class="cls-8" d="M160.46,238.1c3.22,0,3.22-5,0-5s-3.22,5,0,5Z"/><path class="cls-8" d="M161.23,228.25c3.22,0,3.23-5,0-5s-3.22,5,0,5Z"/><path class="cls-8" d="M152.8,237.49l-.72.23a2.5,2.5,0,0,0,1.33,4.83l.72-.24a2.5,2.5,0,0,0-1.33-4.82Z"/><path class="cls-8" d="M153.43,239a5,5,0,0,0,2-1.3,4.89,4.89,0,0,0,1.14-2.14,2.5,2.5,0,0,0-4.82-1.33,1.6,1.6,0,0,1-.05.21c-.06.19,0,.1.12-.26,0,.07-.07.13-.1.19s0,.09.18-.21l-.1.11c-.19.18-.13.14.18-.11l-.12.08q-.34.19.21-.06a2.75,2.75,0,0,0-1.49,1.15,2.51,2.51,0,0,0-.25,1.93c.37,1.16,1.78,2.28,3.07,1.74Z"/><path class="cls-8" d="M158.11,228.47c3.21,0,3.22-5,0-5s-3.23,5,0,5Z"/><path class="cls-8" d="M162.62,238.6c3.22,0,3.23-5,0-5s-3.22,5,0,5Z"/><path class="cls-8" d="M149.19,231.79c3.22,0,3.22-5,0-5s-3.22,5,0,5Z"/><path class="cls-8" d="M123.65,228.68l.72-.23a2.5,2.5,0,1,0-1.33-4.83l-.72.24a2.5,2.5,0,0,0,1.33,4.82Z"/><path class="cls-8" d="M117.63,240.53c3.22,0,3.23-5,0-5s-3.22,5,0,5Z"/><path class="cls-8" d="M111.65,235.69c3.21,0,3.22-5,0-5s-3.23,5,0,5Z"/><path class="cls-8" d="M120.56,232.37c3.22,0,3.22-5,0-5s-3.22,5,0,5Z"/><path class="cls-8" d="M113.8,237.38c3.22,0,3.22-5,0-5s-3.22,5,0,5Z"/><path class="cls-8" d="M109.48,235.2c3.22,0,3.23-5,0-5s-3.22,5,0,5Z"/><path class="cls-8" d="M109.51,230.39c3.21,0,3.22-5,0-5s-3.23,5,0,5Z"/><path class="cls-8" d="M109.29,226.05c3.22,0,3.22-5,0-5s-3.22,5,0,5Z"/><path class="cls-8" d="M102.1,220c3.22,0,3.23-5,0-5s-3.22,5,0,5Z"/><path class="cls-8" d="M95.05,235.12h1.2a2.5,2.5,0,0,0,0-5h-1.2a2.5,2.5,0,0,0,0,5Z"/><path class="cls-8" d="M102.54,228.67c3.22,0,3.22-5,0-5s-3.22,5,0,5Z"/><path class="cls-8" d="M100.41,226.34l2.13,5.3a2.57,2.57,0,0,0,3.07,1.75,2.53,2.53,0,0,0,1.75-3.08l-2.13-5.3a2.57,2.57,0,0,0-3.07-1.75,2.53,2.53,0,0,0-1.75,3.08Z"/><path class="cls-8" d="M111.38,241c3.21,0,3.22-5,0-5s-3.23,5,0,5Z"/><path class="cls-8" d="M119.14,228c3.22,0,3.22-5,0-5s-3.22,5,0,5Z"/><path class="cls-8" d="M128.1,217.49c3.21,0,3.22-5,0-5s-3.23,5,0,5Z"/><path class="cls-8" d="M140.36,218.28c3.22,0,3.22-5,0-5s-3.22,5,0,5Z"/><path class="cls-8" d="M87.42,221.61c3.22,0,3.23-5,0-5s-3.22,5,0,5Z"/><path class="cls-8" d="M91.22,230.77c3.22,0,3.23-5,0-5s-3.22,5,0,5Z"/><path class="cls-8" d="M77.35,215.31c3.22,0,3.23-5,0-5s-3.22,5,0,5Z"/><path class="cls-8" d="M85.79,211.74c3.22,0,3.22-5,0-5s-3.22,5,0,5Z"/><path class="cls-8" d="M80.14,234.8c3.22,0,3.22-5,0-5s-3.22,5,0,5Z"/><path class="cls-8" d="M85.22,228.34c3.22,0,3.23-5,0-5s-3.22,5,0,5Z"/><path class="cls-8" d="M86.9,229.79c3.22,0,3.22-5,0-5s-3.22,5,0,5Z"/><path class="cls-8" d="M92.16,236.07c3.22,0,3.22-5,0-5s-3.22,5,0,5Z"/><path class="cls-8" d="M96,232c3.22,0,3.22-5,0-5s-3.22,5,0,5Z"/><path class="cls-8" d="M97.46,233.93c3.22,0,3.23-5,0-5s-3.22,5,0,5Z"/><path class="cls-8" d="M100.13,229.86c3.22,0,3.22-5,0-5s-3.22,5,0,5Z"/><path class="cls-8" d="M99.9,226.73c3.22,0,3.23-5,0-5s-3.22,5,0,5Z"/><path class="cls-8" d="M105.36,241c3.22,0,3.23-5,0-5s-3.22,5,0,5Z"/><path class="cls-8" d="M113.69,212.61c3.22,0,3.22-5,0-5s-3.22,5,0,5Z"/><path class="cls-8" d="M202.72,205.85c3.22,0,3.22-5,0-5s-3.22,5,0,5Z"/><path class="cls-8" d="M206.82,204.91c3.21,0,3.22-5,0-5s-3.23,5,0,5Z"/><path class="cls-8" d="M204.12,215c3.21,0,3.22-5,0-5s-3.22,5,0,5Z"/><path class="cls-8" d="M180.59,206.7c3.22,0,3.22-5,0-5s-3.22,5,0,5Z"/><path class="cls-8" d="M185.22,195.18c3.21,0,3.22-5,0-5s-3.23,5,0,5Z"/><path class="cls-8" d="M186,187.72c3.21,0,3.22-5,0-5s-3.23,5,0,5Z"/><path class="cls-8" d="M196.38,176.71c3.21,0,3.22-5,0-5s-3.23,5,0,5Z"/><path class="cls-8" d="M167.9,242.47c3.21,0,3.22-5,0-5s-3.23,5,0,5Z"/><path class="cls-8" d="M170.09,237c3.22,0,3.22-5,0-5s-3.22,5,0,5Z"/><path class="cls-8" d="M166.71,240.06c3.21,0,3.22-5,0-5s-3.23,5,0,5Z"/><path class="cls-8" d="M164.05,241.73c3.22,0,3.22-5,0-5s-3.22,5,0,5Z"/><path class="cls-8" d="M158.05,239.29c3.22,0,3.22-5,0-5s-3.22,5,0,5Z"/><path class="cls-8" d="M155.63,242.89c3.21,0,3.22-5,0-5s-3.23,5,0,5Z"/><path class="cls-8" d="M160.69,241.23c3.21,0,3.22-5,0-5s-3.23,5,0,5Z"/><path class="cls-8" d="M146.24,243.56c3.22,0,3.22-5,0-5s-3.22,5,0,5Z"/><path class="cls-8" d="M145.06,238.75c3.22,0,3.23-5,0-5s-3.22,5,0,5Z"/><path class="cls-8" d="M145.28,244.28c3.21,0,3.22-5,0-5s-3.23,5,0,5Z"/><path class="cls-8" d="M144.79,245.24c3.22,0,3.22-5,0-5s-3.22,5,0,5Z"/><path class="cls-8" d="M137.32,246.89c3.22,0,3.23-5,0-5s-3.22,5,0,5Z"/><path class="cls-8" d="M137.33,245.68c3.22,0,3.22-5,0-5s-3.22,5,0,5Z"/><path class="cls-8" d="M128.2,244.67c3.21,0,3.22-5,0-5s-3.23,5,0,5Z"/><path class="cls-8" d="M130.38,241.56c3.21,0,3.22-5,0-5s-3.23,5,0,5Z"/><path class="cls-8" d="M130.11,238.34c0,.14,0,.27,0,.4,0,.29,0,.26,0-.08,0,.14-.11.44-.14.57-.15.56.24-.36-.06.13-.06.11-.54.79-.15.31a2.55,2.55,0,0,0,0,3.54,2.52,2.52,0,0,0,3.53,0,7.43,7.43,0,0,0,1.81-4.87,2.5,2.5,0,0,0-5,0Z"/><path class="cls-8" d="M134.21,244.7c3.22,0,3.22-5,0-5s-3.22,5,0,5Z"/><path class="cls-8" d="M139,243.53c3.21,0,3.22-5,0-5s-3.23,5,0,5Z"/><path class="cls-8" d="M146.25,242.36c3.22,0,3.22-5,0-5s-3.22,5,0,5Z"/><path class="cls-8" d="M180.2,234.84c3.22,0,3.23-5,0-5s-3.22,5,0,5Z"/><path class="cls-8" d="M185.1,218c3.22,0,3.22-5,0-5s-3.22,5,0,5Z"/><path class="cls-8" d="M190.45,207.47c3.21,0,3.22-5,0-5s-3.23,5,0,5Z"/><path class="cls-8" d="M201.54,202.24c3.21,0,3.22-5,0-5s-3.23,5,0,5Z"/><path class="cls-8" d="M209.56,194.45l1.68-1a2.52,2.52,0,0,0,.9-3.42,2.55,2.55,0,0,0-3.42-.9l-1.68,1a2.5,2.5,0,0,0,2.52,4.32Z"/><path class="cls-8" d="M220.48,186.7l1.22-1.19a2.51,2.51,0,0,0,0-3.53,2.55,2.55,0,0,0-3.54,0L217,183.17a2.5,2.5,0,1,0,3.53,3.53Z"/><path class="cls-8" d="M223.53,182.62c3.21,0,3.22-5,0-5s-3.23,5,0,5Z"/><path class="cls-8" d="M226.23,171.33c3.22,0,3.22-5,0-5s-3.22,5,0,5Z"/><path class="cls-8" d="M226.23,171.33c3.22,0,3.22-5,0-5s-3.22,5,0,5Z"/><path class="cls-8" d="M213.22,175.6c3.22,0,3.22-5,0-5s-3.22,5,0,5Z"/><path class="cls-8" d="M212,187.62c3.21,0,3.22-5,0-5s-3.23,5,0,5Z"/><path class="cls-8" d="M215.11,181.38c3.22,0,3.23-5,0-5s-3.22,5,0,5Z"/><path class="cls-8" d="M216.08,180.66c3.22,0,3.22-5,0-5s-3.22,5,0,5Z"/><path class="cls-8" d="M215.52,196.05c3.22,0,3.22-5,0-5s-3.22,5,0,5Z"/><path class="cls-8" d="M214.77,202.3c3.21,0,3.22-5,0-5s-3.23,5,0,5Z"/><path class="cls-8" d="M210.64,210.46c3.21,0,3.22-5,0-5s-3.23,5,0,5Z"/><path class="cls-8" d="M208,213.33c3.22,0,3.23-5,0-5s-3.22,5,0,5Z"/><path class="cls-8" d="M199.76,220c3.22,0,3.22-5,0-5s-3.22,5,0,5Z"/><path class="cls-8" d="M198.55,222.43c3.21,0,3.22-5,0-5s-3.23,5,0,5Z"/><path class="cls-8" d="M192,227c3.22,0,3.22-5,0-5s-3.22,5,0,5Z"/><path class="cls-8" d="M193.26,221c3.22,0,3.23-5,0-5s-3.22,5,0,5Z"/><path class="cls-8" d="M199.24,217.54a5.08,5.08,0,0,0,2-1.31,4.94,4.94,0,0,0,1.13-2.13,2.5,2.5,0,1,0-4.82-1.33,1.6,1.6,0,0,1-.05.21c-.06.18,0,.1.12-.26a1.14,1.14,0,0,1-.1.19q-.15.24.18-.21l-.1.11c-.19.17-.13.14.18-.11l-.12.08q-.34.19.21-.06a2.75,2.75,0,0,0-1.49,1.15,2.55,2.55,0,0,0-.25,1.93c.37,1.15,1.78,2.28,3.07,1.74Z"/><path class="cls-8" d="M212.33,208.3c3.22,0,3.22-5,0-5s-3.22,5,0,5Z"/><path class="cls-8" d="M206.82,204.91c3.21,0,3.22-5,0-5s-3.23,5,0,5Z"/><path class="cls-8" d="M214.53,201.58h1.2a2.5,2.5,0,0,0,0-5h-1.2a2.5,2.5,0,0,0,0,5Z"/><path class="cls-8" d="M219.59,199.92c3.22,0,3.22-5,0-5s-3.22,5,0,5Z"/><path class="cls-8" d="M224.43,193.93c3.22,0,3.22-5,0-5s-3.22,5,0,5Z"/><path class="cls-8" d="M224,193.69c3.22,0,3.22-5,0-5s-3.22,5,0,5Z"/><path class="cls-8" d="M222,193.92c3.21,0,3.22-5,0-5s-3.23,5,0,5Z"/><path class="cls-8" d="M226.87,187.93c3.21,0,3.22-5,0-5s-3.23,5,0,5Z"/><path class="cls-8" d="M75.14,224.44c3.22,0,3.22-5,0-5s-3.22,5,0,5Z"/><path class="cls-8" d="M82.41,214.85c3.21,0,3.22-5,0-5s-3.23,5,0,5Z"/><path class="cls-8" d="M93.11,203l2.16.5a2.5,2.5,0,1,0,1.33-4.82l-2.16-.5A2.5,2.5,0,1,0,93.11,203Z"/><path class="cls-8" d="M118,208.78c3.21,0,3.22-5,0-5s-3.23,5,0,5Z"/><path class="cls-8" d="M82.71,202.35c3.22,0,3.22-5,0-5s-3.22,5,0,5Z"/><path class="cls-8" d="M77.18,202.56c3.22,0,3.22-5,0-5s-3.22,5,0,5Z"/><path class="cls-8" d="M107.78,235.06c3.22,0,3.22-5,0-5s-3.22,5,0,5Z"/><path class="cls-8" d="M100.58,232.61c3.21,0,3.22-5,0-5s-3.23,5,0,5Z"/><path class="cls-8" d="M98.17,232.6c3.22,0,3.22-5,0-5s-3.22,5,0,5Z"/><path class="cls-8" d="M95.57,224.65c3.21,0,3.22-5,0-5s-3.23,5,0,5Z"/><path class="cls-8" d="M93.42,220.55c3.22,0,3.23-5,0-5s-3.22,5,0,5Z"/><path class="cls-8" d="M87.33,225l.48.25a2.5,2.5,0,0,0,2.52-4.32l-.48-.24A2.5,2.5,0,1,0,87.33,225Z"/><path class="cls-8" d="M91,232.56c3.21,0,3.22-5,0-5s-3.23,5,0,5Z"/><path class="cls-8" d="M95.25,239.56c3.22,0,3.22-5,0-5s-3.22,5,0,5Z"/><path class="cls-8" d="M75.92,213.38c3.22,0,3.22-5,0-5s-3.22,5,0,5Z"/><path class="cls-8" d="M75.7,209c3.22,0,3.22-5,0-5s-3.22,5,0,5Z"/><path class="cls-8" d="M100.3,239.11c3.22,0,3.23-5,0-5s-3.22,5,0,5Z"/><path class="cls-8" d="M102.68,245.13c3.22,0,3.22-5,0-5s-3.22,5,0,5Z"/><path class="cls-8" d="M74.41,225.88c3.22,0,3.22-5,0-5s-3.22,5,0,5Z"/><path class="cls-8" d="M87.39,227.63c3.22,0,3.22-5,0-5s-3.22,5,0,5Z"/><path class="cls-8" d="M86.64,232.67c3.22,0,3.23-5,0-5s-3.22,5,0,5Z"/><path class="cls-8" d="M84.71,235.31c3.21,0,3.22-5,0-5s-3.23,5,0,5Z"/><path class="cls-8" d="M80.89,229.76c3.21,0,3.22-5,0-5s-3.23,5,0,5Z"/><path class="cls-8" d="M80.89,229.76c3.21,0,3.22-5,0-5s-3.23,5,0,5Z"/><path class="cls-8" d="M95.06,232.72c3.22,0,3.23-5,0-5s-3.22,5,0,5Z"/><path class="cls-8" d="M95.77,234.89c3.22,0,3.23-5,0-5s-3.22,5,0,5Z"/><path class="cls-8" d="M100.57,238.52c3.21,0,3.22-5,0-5s-3.23,5,0,5Z"/><path class="cls-8" d="M106.81,240.47c3.22,0,3.22-5,0-5s-3.22,5,0,5Z"/><path class="cls-8" d="M114.8,242.33l1-.71a2.78,2.78,0,0,0,1.15-1.5,2.57,2.57,0,0,0-.25-1.92c-.67-1-2.3-1.74-3.42-.9l-1,.71a2.78,2.78,0,0,0-1.15,1.5,2.6,2.6,0,0,0,.25,1.93,2.53,2.53,0,0,0,3.43.89Z"/><path class="cls-8" d="M116.66,242.45h1.2a2.5,2.5,0,0,0,0-5h-1.2a2.52,2.52,0,0,0-2.5,2.5,2.55,2.55,0,0,0,2.5,2.5Z"/><path class="cls-8" d="M230.82,168.23c3.21,0,3.22-5,0-5s-3.23,5,0,5Z"/><path class="cls-8" d="M233.25,163.43c3.21,0,3.22-5,0-5s-3.23,5,0,5Z"/><path class="cls-8" d="M233.51,159.34c3.22,0,3.22-5,0-5s-3.22,5,0,5Z"/><path class="cls-8" d="M187,232.23c3.22,0,3.22-5,0-5s-3.22,5,0,5Z"/><path class="cls-8" d="M181.69,226c3.22,0,3.22-5,0-5s-3.22,5,0,5Z"/><path class="cls-8" d="M195.94,215.68c3.21,0,3.22-5,0-5s-3.23,5,0,5Z"/><path class="cls-8" d="M196.45,209.91c3.21,0,3.22-5,0-5s-3.23,5,0,5Z"/><path class="cls-8" d="M201.27,207.53c3.22,0,3.22-5,0-5s-3.22,5,0,5Z"/><path class="cls-8" d="M200.75,215.7c3.21,0,3.22-5,0-5s-3.23,5,0,5Z"/><path class="cls-8" d="M202.88,221c3.22,0,3.23-5,0-5s-3.22,5,0,5Z"/><path class="cls-8" d="M175.19,228.08c3.21,0,3.22-5,0-5s-3.23,5,0,5Z"/><path class="cls-8" d="M181.49,218c3.22,0,3.22-5,0-5s-3.22,5,0,5Z"/><path class="cls-8" d="M234,152.37c3.21,0,3.22-5,0-5s-3.23,5,0,5Z"/></svg>