<svg id="Layer_1" data-name="Layer 1" xmlns="http://www.w3.org/2000/svg" xmlns:xlink="http://www.w3.org/1999/xlink" viewBox="0 0 312.59 117.78"><defs><style>.cls-1,.cls-3{fill:none;}.cls-2{clip-path:url(#clip-path);}.cls-3{stroke:#010101;stroke-miterlimit:10;stroke-width:0.22px;}.cls-4{fill:#010101;}.cls-5{fill:#212121;}.cls-16,.cls-6{font-size:7px;fill:#231f20;font-family:CooperHewitt-Medium, Cooper Hewitt;}.cls-7{letter-spacing:0.14em;}.cls-8{letter-spacing:0.13em;}.cls-9{letter-spacing:0.13em;}.cls-10{letter-spacing:0.1em;}.cls-11{letter-spacing:0.12em;}.cls-12{letter-spacing:0.14em;}.cls-13{letter-spacing:0.13em;}.cls-14,.cls-16{letter-spacing:0.14em;}.cls-15{letter-spacing:0.12em;}.cls-17{letter-spacing:0.13em;}.cls-18{letter-spacing:0.13em;}.cls-19{letter-spacing:0.13em;}.cls-20{letter-spacing:0.13em;}.cls-21{letter-spacing:0em;}.cls-22{letter-spacing:0.14em;}.cls-23{letter-spacing:0.14em;}.cls-24{letter-spacing:0.12em;}.cls-25{letter-spacing:0.13em;}.cls-26{letter-spacing:0.14em;}</style><clipPath id="clip-path"><rect class="cls-1" x="-4.93" y="3.05" width="320.85" height="110.65"/></clipPath></defs><title>Artboard 1</title><g class="cls-2"><path class="cls-3" d="M265.05,14.34a26.2,26.2,0,0,0-42.76-.25M28.8,67.39A26.2,26.2,0,1,0,2.6,41.19a26.2,26.2,0,0,0,26.2,26.2"/></g><polygon class="cls-4" points="265.5 15.56 266.64 13.38 263.15 14.41 265.5 15.56"/><g class="cls-2"><path class="cls-3" d="M223.88,72.72a26.2,26.2,0,0,0,42.76.25"/></g><polygon class="cls-4" points="223.43 71.5 222.29 73.68 225.78 72.65 223.43 71.5"/><g class="cls-2"><path class="cls-3" d="M115.54,67.39a26.2,26.2,0,1,0-26.2-26.2,26.2,26.2,0,0,0,26.2,26.2m89.18,0a26.2,26.2,0,1,0-26.19-26.2,26.2,26.2,0,0,0,26.19,26.2m79,0a26.2,26.2,0,1,0-26.2-26.2,26.2,26.2,0,0,0,26.2,26.2"/></g><polygon class="cls-5" points="60.97 40.7 83.2 40.7 83.2 41.52 84.22 40.49 83.2 39.47 83.2 40.29 60.97 40.29 60.97 40.7"/><polygon class="cls-5" points="148.97 40.34 171.2 40.34 171.2 41.16 172.23 40.13 171.2 39.11 171.2 39.93 148.97 39.93 148.97 40.34"/><g class="cls-2"><path class="cls-3" d="M198.09,113.59A94.51,94.51,0,0,0,275.78,73M118.63,70.35a94.53,94.53,0,0,0,79.46,43.24"/></g><polygon class="cls-4" points="118.31 69.37 117.18 71.55 120.67 70.52 118.31 69.37"/><text class="cls-6" transform="translate(9.66 42.41)"><tspan class="cls-7">D</tspan><tspan class="cls-8" x="5.49" y="0">I</tspan><tspan class="cls-9" x="8.12" y="0">S</tspan><tspan class="cls-10" x="13.31" y="0">C</tspan><tspan class="cls-11" x="18.45" y="0">O</tspan><tspan class="cls-12" x="23.88" y="0">V</tspan><tspan class="cls-13" x="29.2" y="0">E</tspan><tspan x="33.98" y="0">R</tspan></text><text class="cls-6" transform="translate(101.87 41.8)"><tspan class="cls-14">D</tspan><tspan class="cls-7" x="5.48" y="0">E</tspan><tspan class="cls-15" x="10.34" y="0">S</tspan><tspan class="cls-14" x="15.48" y="0">IG</tspan><tspan x="23.71" y="0">N</tspan></text><text class="cls-16" transform="translate(188.08 41.8)">D<tspan class="cls-17" x="5.48" y="0">E</tspan><tspan class="cls-18" x="10.26" y="0">L</tspan><tspan class="cls-19" x="14.67" y="0">I</tspan><tspan class="cls-12" x="17.35" y="0">V</tspan><tspan class="cls-20" x="22.67" y="0">E</tspan><tspan class="cls-21" x="27.45" y="0">R</tspan></text><text class="cls-6" transform="translate(266.24 42.92)"><tspan class="cls-19">M</tspan><tspan class="cls-22" x="6.73" y="0">E</tspan><tspan class="cls-23" x="11.64" y="0">A</tspan><tspan class="cls-24" x="16.97" y="0">S</tspan><tspan class="cls-25" x="22.06" y="0">U</tspan><tspan class="cls-26" x="27.52" y="0">R</tspan><tspan x="32.67" y="0">E</tspan></text></svg>