<svg id="Layer_1" data-name="Layer 1" xmlns="http://www.w3.org/2000/svg" xmlns:xlink="http://www.w3.org/1999/xlink" viewBox="0 0 193 137"><defs><style>.cls-1,.cls-27{fill:none;}.cls-2{clip-path:url(#clip-path);}.cls-12,.cls-15,.cls-3{font-size:9px;fill:#231f20;font-family:CooperHewitt-Medium, Cooper Hewitt;}.cls-4{letter-spacing:0.13em;}.cls-5{letter-spacing:0.11em;}.cls-6{letter-spacing:0.11em;}.cls-7{fill:#00c1e5;}.cls-8{letter-spacing:0.12em;}.cls-9{letter-spacing:0.13em;}.cls-10{letter-spacing:0.12em;}.cls-11{fill:#ffb63b;}.cls-12{letter-spacing:0.11em;}.cls-13{letter-spacing:0.11em;}.cls-14{letter-spacing:0em;}.cls-15{letter-spacing:0.11em;}.cls-16{letter-spacing:0.12em;}.cls-17{letter-spacing:0.09em;}.cls-18{letter-spacing:0.12em;}.cls-19{letter-spacing:0.11em;}.cls-20{letter-spacing:0.11em;}.cls-21{letter-spacing:0.12em;}.cls-22{letter-spacing:0em;}.cls-23{letter-spacing:0.11em;}.cls-24{letter-spacing:0.1em;}.cls-25{letter-spacing:0.12em;}.cls-26{letter-spacing:0.11em;}.cls-27{stroke:#231f20;}</style><clipPath id="clip-path"><rect class="cls-1" x="6" y="5" width="178.88" height="124.09"/></clipPath></defs><title>HCD-lean</title><g class="cls-2"><text class="cls-3" transform="translate(6 47.79)"><tspan class="cls-4">E</tspan><tspan class="cls-5" x="6.18" y="0">A</tspan><tspan class="cls-6" x="12.73" y="0">S</tspan><tspan x="19.26" y="0">E</tspan></text></g><rect class="cls-7" x="103.52" y="5" width="38.68" height="89.57"/><text class="cls-3" transform="translate(110.63 18.23)"><tspan class="cls-8">L</tspan><tspan class="cls-9" x="5.6" y="0">E</tspan><tspan class="cls-10" x="11.78" y="0">A</tspan><tspan x="18.43" y="0">N</tspan></text><rect class="cls-11" x="146.2" y="5" width="38.68" height="124.09"/><text class="cls-12" transform="translate(155.86 18.23)">H<tspan class="cls-13" x="6.85" y="0">C</tspan><tspan class="cls-14" x="13.54" y="0">D</tspan></text><g class="cls-2"><text class="cls-15" transform="translate(6 81.5)">E<tspan class="cls-16" x="6" y="0">FF</tspan><tspan class="cls-17" x="17.61" y="0">E</tspan><tspan class="cls-6" x="23.48" y="0">C</tspan><tspan class="cls-18" x="30.18" y="0">T</tspan><tspan class="cls-6" x="35.99" y="0">I</tspan><tspan class="cls-10" x="39.25" y="0">V</tspan><tspan x="45.9" y="0">E</tspan><tspan class="cls-19" x="51.9" y="0">N</tspan><tspan class="cls-20" x="58.91" y="0">E</tspan><tspan class="cls-21" x="64.9" y="0">S</tspan><tspan class="cls-22" x="71.5" y="0">S</tspan></text><text class="cls-3" transform="translate(6 115.2)"><tspan class="cls-23">E</tspan><tspan class="cls-6" x="5.99" y="0">M</tspan><tspan class="cls-24" x="14.46" y="0">O</tspan><tspan class="cls-25" x="21.29" y="0">T</tspan><tspan class="cls-26" x="27.11" y="0">I</tspan><tspan class="cls-19" x="30.33" y="0">O</tspan><tspan x="37.25" y="0">N</tspan></text><line class="cls-27" x1="6" y1="27.62" x2="184.88" y2="27.62"/><line class="cls-27" x1="6" y1="61.28" x2="184.88" y2="61.28"/><line class="cls-27" x1="6" y1="94.93" x2="184.88" y2="94.93"/><line class="cls-27" x1="6" y1="128.59" x2="184.88" y2="128.59"/></g></svg>