<?xml version="1.0" encoding="utf-8"?>
<!-- Generator: Adobe Illustrator 22.1.0, SVG Export Plug-In . SVG Version: 6.00 Build 0)  -->
<svg version="1.1" id="Layer_1" xmlns="http://www.w3.org/2000/svg" xmlns:xlink="http://www.w3.org/1999/xlink" x="0px" y="0px"
	 viewBox="0 0 125.9 112.4" style="enable-background:new 0 0 125.9 112.4;" xml:space="preserve">
<style type="text/css">
	.st0{fill:#FFB63B;}
	.st1{fill:none;stroke:#000000;stroke-miterlimit:10;}
	.st2{fill:#FFFFFF;}
	.st3{fill:#231F20;}
	.st4{font-family:'CooperHewitt-Medium';}
	.st5{font-size:6.3757px;}
</style>
<title>Artboard 2</title>
<path class="st0" d="M52,70c5.7,1.6,11.7,1.8,17.4,0.5c-1-6.2-3.8-12.1-8-16.7C56.7,58.1,53.5,63.8,52,70z"/>
<circle class="st1" cx="35.9" cy="75.3" r="34"/>
<circle class="st1" cx="85.5" cy="75.3" r="34"/>
<circle class="st1" cx="60.3" cy="36.2" r="34"/>
<polygon class="st2" points="60.7,57.8 61.8,61.2 65.4,61.2 62.5,63.3 63.6,66.7 60.7,64.6 57.8,66.7 58.9,63.3 56,61.2 59.6,61.2 
	"/>
<text transform="matrix(1 0 0 1 42.4905 36.2087)" class="st3 st4 st5">D</text>
<text transform="matrix(1 0 0 1 47.3519 36.2087)" class="st3 st4 st5">E</text>
<text transform="matrix(1 0 0 1 51.6238 36.2087)" class="st3 st4 st5">S</text>
<text transform="matrix(1 0 0 1 56.2703 36.2087)" class="st3 st4 st5">I</text>
<text transform="matrix(1 0 0 1 58.5735 36.2087)" class="st3 st4 st5">R</text>
<text transform="matrix(1 0 0 1 63.2195 36.2087)" class="st3 st4 st5">A</text>
<text transform="matrix(1 0 0 1 67.9534 36.2087)" class="st3 st4 st5">B</text>
<text transform="matrix(1 0 0 1 72.5042 36.2087)" class="st3 st4 st5">L</text>
<text transform="matrix(1 0 0 1 76.5052 36.2087)" class="st3 st4 st5">E</text>
<text transform="matrix(1 0 0 1 73.3333 83.5163)" class="st3 st4 st5">F</text>
<text transform="matrix(1 0 0 1 77.469 83.5163)" class="st3 st4 st5">E</text>
<text transform="matrix(1 0 0 1 81.8841 83.5163)" class="st3 st4 st5">A</text>
<text transform="matrix(1 0 0 1 86.555 83.5163)" class="st3 st4 st5">S</text>
<text transform="matrix(1 0 0 1 91.2015 83.5163)" class="st3 st4 st5">I</text>
<text transform="matrix(1 0 0 1 93.4964 83.5163)" class="st3 st4 st5">B</text>
<text transform="matrix(1 0 0 1 98.055 83.5163)" class="st3 st4 st5">L</text>
<text transform="matrix(1 0 0 1 102.0481 83.5163)" class="st3 st4 st5">E</text>
<text transform="matrix(1 0 0 1 20.3108 83.5163)" class="st3 st4 st5">V</text>
<text transform="matrix(1 0 0 1 25.0374 83.5163)" class="st3 st4 st5">I</text>
<text transform="matrix(1 0 0 1 27.3724 83.5163)" class="st3 st4 st5">A</text>
<text transform="matrix(1 0 0 1 32.1141 83.5163)" class="st3 st4 st5">B</text>
<text transform="matrix(1 0 0 1 36.6648 83.5163)" class="st3 st4 st5">L</text>
<text transform="matrix(1 0 0 1 40.6653 83.5163)" class="st3 st4 st5">E</text>
</svg>
