<svg id="Layer_1" data-name="Layer 1" xmlns="http://www.w3.org/2000/svg" viewBox="0 0 169.85 149.25"><defs><style>.cls-1{fill:#ffb63b;}.cls-2{fill:none;stroke:#000;stroke-miterlimit:10;}.cls-3{fill:#fff;}.cls-4{font-size:8px;fill:#231f20;font-family:CooperHewitt-Medium, Cooper Hewitt;}.cls-5{letter-spacing:0.12em;}.cls-6{letter-spacing:0.11em;}.cls-7{letter-spacing:0.12em;}.cls-8{letter-spacing:0.11em;}.cls-9{letter-spacing:0.13em;}.cls-10{letter-spacing:0.12em;}.cls-11{letter-spacing:0.11em;}.cls-12{letter-spacing:0.13em;}.cls-13{letter-spacing:0.12em;}.cls-14{letter-spacing:0.14em;}.cls-15{letter-spacing:0.12em;}.cls-16{letter-spacing:0.11em;}.cls-17{letter-spacing:0.12em;}.cls-18{letter-spacing:0.12em;}.cls-19{letter-spacing:0.13em;}</style></defs><title>Artboard 2</title><path class="cls-1" d="M74.36,92.8a44.63,44.63,0,0,0,21.85.6,40.49,40.49,0,0,0-10.07-21A40.51,40.51,0,0,0,74.36,92.8Z"/><circle class="cls-2" cx="54.16" cy="99.4" r="42.7"/><circle class="cls-2" cx="116.38" cy="99.4" r="42.7"/><circle class="cls-2" cx="84.71" cy="50.39" r="42.7"/><polygon class="cls-3" points="85.27 77.47 86.63 81.78 91.15 81.75 87.47 84.37 88.9 88.66 85.27 85.97 81.63 88.66 83.06 84.37 79.39 81.75 83.91 81.78 85.27 77.47"/><text class="cls-4" transform="translate(62.41 50.39)"><tspan class="cls-5">D</tspan><tspan class="cls-6" x="6.1" y="0">E</tspan><tspan class="cls-7" x="11.46" y="0">S</tspan><tspan class="cls-8" x="17.29" y="0">I</tspan><tspan class="cls-9" x="20.18" y="0">R</tspan><tspan class="cls-10" x="26.01" y="0">A</tspan><tspan class="cls-11" x="31.95" y="0">B</tspan><tspan class="cls-12" x="37.66" y="0">L</tspan><tspan x="42.68" y="0">E</tspan></text><text class="cls-4" transform="translate(101.11 109.75)"><tspan class="cls-13">F</tspan><tspan class="cls-14" x="5.19" y="0">E</tspan><tspan class="cls-11" x="10.73" y="0">A</tspan><tspan class="cls-15" x="16.59" y="0">S</tspan><tspan class="cls-16" x="22.42" y="0">I</tspan><tspan class="cls-11" x="25.3" y="0">B</tspan><tspan class="cls-12" x="31.02" y="0">L</tspan><tspan x="36.03" y="0">E</tspan></text><text class="cls-4" transform="translate(34.58 109.75)"><tspan class="cls-17">V</tspan><tspan class="cls-18" x="5.93" y="0">I</tspan><tspan class="cls-10" x="8.86" y="0">A</tspan><tspan class="cls-11" x="14.81" y="0">B</tspan><tspan class="cls-19" x="20.52" y="0">L</tspan><tspan x="25.54" y="0">E</tspan></text></svg>