<?xml version="1.0" encoding="utf-8"?>
<!-- Generator: Adobe Illustrator 23.0.1, SVG Export Plug-In . SVG Version: 6.00 Build 0)  -->
<svg version="1.1" id="Layer_1" xmlns="http://www.w3.org/2000/svg" xmlns:xlink="http://www.w3.org/1999/xlink" x="0px" y="0px"
	 viewBox="0 0 9675.86 3649.46" style="enable-background:new 0 0 9675.86 3649.46;" xml:space="preserve">
<style type="text/css">
	.st0{fill:none;stroke:#000000;stroke-width:7;stroke-miterlimit:10;}
	.st1{fill:#202020;}
</style>
<path class="st0" d="M851.02,2115.6c451.64,0,817.77-366.13,817.77-817.77s-366.13-817.77-817.77-817.77S33.25,846.19,33.25,1297.83
	S399.38,2115.6,851.02,2115.6"/>
<path class="st0" d="M3558.53,2115.6c451.64,0,817.77-366.13,817.77-817.77s-366.13-817.77-817.77-817.77
	s-817.77,366.13-817.77,817.77S3106.89,2115.6,3558.53,2115.6"/>
<path class="st0" d="M3657.68,2203.55c526.18,812.35,1440.57,1349.87,2480.51,1349.87"/>
<path class="st0" d="M6138.19,3553.42c1004.32,0,1891.55-501.33,2425.09-1267.38"/>
<polygon points="851.02,1381.08 905.37,1322.63 796.67,1322.63 "/>
<polygon points="851.02,1676.93 905.37,1618.47 796.67,1618.47 "/>
<polygon points="3558.53,1381.08 3612.88,1322.63 3504.19,1322.63 "/>
<polygon points="3558.53,1676.93 3612.88,1618.47 3504.19,1618.47 "/>
<g>
	<path class="st0" d="M8225.75,459.68c-147.89-211.01-392.9-348.96-670.14-348.96c-273.86,0-516.27,134.61-664.69,341.28"/>
	<polygon points="8239.96,497.89 8275.5,429.76 8166.36,461.87 	"/>
</g>
<g>
	<path class="st0" d="M6940.68,2282.17c147.89,211.01,392.9,348.96,670.14,348.96c273.86,0,516.27-134.61,664.69-341.28"/>
	<polygon points="6926.47,2243.95 6890.92,2312.09 7000.07,2279.97 	"/>
</g>
<polygon points="3647.88,2172.86 3612.34,2241 3721.48,2208.88 "/>
<g>
	<path d="M342.48,986.69l0.1-116.29l35.78,0.03c10.22,0.01,19.37,2.32,27.43,6.93c8.06,4.61,14.35,11.17,18.87,19.66
		c4.52,8.5,6.77,18.15,6.76,28.96l0,5.35c-0.01,10.81-2.24,20.42-6.69,28.83c-4.45,8.41-10.73,14.93-18.83,19.55
		c-8.1,4.63-17.23,6.96-27.4,7L342.48,986.69z M366.52,889.83l-0.07,77.63l11.58,0.01c9.37,0.01,16.54-3.05,21.49-9.17
		c4.96-6.12,7.49-14.88,7.61-26.27l0.01-6.15c0.01-11.82-2.43-20.78-7.32-26.88c-4.89-6.1-12.05-9.16-21.48-9.16L366.52,889.83z"/>
	<path d="M506.97,986.83l-23.96-0.02l0.1-116.29l23.96,0.02L506.97,986.83z"/>
	<path d="M622.21,956.43c0-4.52-1.59-8-4.78-10.43c-3.19-2.42-8.94-4.99-17.24-7.68c-8.3-2.7-14.88-5.35-19.72-7.96
		c-13.2-7.15-19.79-16.76-19.78-28.85c0.01-6.28,1.78-11.88,5.33-16.81c3.54-4.92,8.63-8.76,15.26-11.53
		c6.63-2.76,14.07-4.14,22.33-4.13c8.31,0.01,15.71,1.52,22.2,4.53c6.49,3.01,11.53,7.27,15.12,12.75
		c3.59,5.49,5.38,11.72,5.37,18.69l-23.96-0.02c0-5.32-1.67-9.47-5.02-12.42c-3.35-2.96-8.06-4.44-14.13-4.45
		c-5.86,0-10.41,1.23-13.66,3.7c-3.25,2.47-4.88,5.73-4.88,9.78c0,3.78,1.9,6.95,5.7,9.51c3.8,2.56,9.41,4.96,16.81,7.2
		c13.63,4.11,23.55,9.21,29.78,15.28c6.22,6.08,9.33,13.64,9.32,22.69c-0.01,10.06-3.82,17.95-11.44,23.67
		c-7.62,5.72-17.87,8.57-30.76,8.56c-8.95-0.01-17.09-1.65-24.44-4.93c-7.34-3.28-12.95-7.77-16.8-13.47
		c-3.86-5.7-5.78-12.3-5.77-19.81l24.04,0.02c-0.01,12.83,7.65,19.25,22.99,19.27c5.7,0,10.14-1.15,13.34-3.46
		C620.61,963.81,622.21,960.58,622.21,956.43z"/>
	<path d="M786.48,948.34c-0.92,12.51-5.54,22.36-13.88,29.54c-8.34,7.18-19.32,10.77-32.95,10.75
		c-14.91-0.01-26.63-5.04-35.17-15.09c-8.54-10.04-12.8-23.82-12.78-41.34l0.01-7.11c0.01-11.18,1.99-21.03,5.94-29.55
		c3.95-8.52,9.58-15.05,16.91-19.59c7.32-4.55,15.83-6.81,25.52-6.81c13.42,0.01,24.22,3.61,32.42,10.81
		c8.19,7.2,12.92,17.29,14.19,30.28l-23.96-0.02c-0.58-7.51-2.66-12.95-6.26-16.34c-3.59-3.38-9.06-5.08-16.41-5.09
		c-7.99-0.01-13.97,2.85-17.94,8.57c-3.97,5.72-6.02,14.6-6.13,26.63l-0.01,8.79c-0.01,12.57,1.88,21.75,5.69,27.56
		c3.8,5.81,9.8,8.71,18,8.72c7.4,0.01,12.93-1.68,16.58-5.06c3.65-3.38,5.74-8.61,6.28-15.69L786.48,948.34z"/>
	<path d="M930.46,931.7c-0.01,11.45-2.04,21.48-6.1,30.1c-4.05,8.62-9.85,15.27-17.39,19.95c-7.54,4.68-16.18,7.01-25.92,7.01
		c-9.64-0.01-18.24-2.33-25.79-6.97c-7.56-4.64-13.41-11.26-17.55-19.86c-4.15-8.6-6.24-18.49-6.28-29.68l0-5.75
		c0.01-11.45,2.08-21.52,6.22-30.22c4.13-8.7,9.97-15.38,17.51-20.03c7.54-4.65,16.15-6.97,25.84-6.97
		c9.69,0.01,18.3,2.35,25.83,7.01c7.53,4.67,13.35,11.35,17.47,20.06c4.12,8.71,6.17,18.76,6.16,30.16L930.46,931.7z M906.19,926.41
		c0.01-12.19-2.17-21.46-6.52-27.8c-4.36-6.34-10.59-9.51-18.68-9.52c-8.04-0.01-14.25,3.12-18.62,9.37
		c-4.37,6.25-6.59,15.42-6.65,27.51l0,5.67c-0.01,11.87,2.16,21.09,6.52,27.64c4.36,6.55,10.64,9.83,18.84,9.84
		c8.04,0.01,14.22-3.14,18.54-9.45c4.32-6.31,6.51-15.5,6.57-27.59L906.19,926.41z"/>
	<path d="M1021.77,958.45l26.43-87.43l26.68,0.02l-40.59,116.25l-25-0.02l-40.23-116.32l26.6,0.02L1021.77,958.45z"/>
	<path d="M1188.44,937.03l-46-0.04l-0.03,31.15l53.99,0.05l-0.02,19.25l-77.95-0.07l0.1-116.29l77.79,0.07l-0.02,19.41l-53.83-0.05
		l-0.02,27.71l46,0.04L1188.44,937.03z"/>
	<path d="M1286.24,944.95l-19.09-0.02l-0.04,42.57l-23.96-0.02l0.1-116.29l43.21,0.04c13.74,0.01,24.33,3.08,31.78,9.21
		c7.45,6.13,11.17,14.79,11.16,25.97c-0.01,7.93-1.73,14.55-5.17,19.84c-3.44,5.3-8.65,9.51-15.62,12.65l25.12,47.54l0,1.12
		l-25.72-0.02L1286.24,944.95z M1267.17,925.52l19.33,0.02c6.02,0.01,10.68-1.52,13.98-4.58c3.3-3.06,4.96-7.28,4.96-12.65
		c0-5.48-1.55-9.8-4.66-12.94c-3.11-3.14-7.89-4.72-14.33-4.72l-19.25-0.02L1267.17,925.52z"/>
</g>
<g>
	<path d="M3184.05,987.14V870.85h35.78c10.22,0,19.37,2.3,27.43,6.91c8.07,4.61,14.36,11.15,18.89,19.65
		c4.52,8.49,6.79,18.14,6.79,28.95v5.35c0,10.81-2.22,20.42-6.67,28.83c-4.45,8.41-10.72,14.94-18.81,19.57
		c-8.09,4.63-17.23,6.98-27.39,7.03H3184.05z M3208.01,890.26v77.63h11.58c9.37,0,16.53-3.06,21.48-9.18
		c4.95-6.12,7.48-14.88,7.59-26.28v-6.15c0-11.82-2.45-20.78-7.35-26.88c-4.9-6.1-12.06-9.15-21.48-9.15H3208.01z"/>
	<path d="M3393.03,936.74h-46v31.15h53.99v19.25h-77.95V870.85h77.79v19.41h-53.83v27.71h46V936.74z"/>
	<path d="M3508.09,956.63c0-4.52-1.6-8-4.79-10.42c-3.19-2.42-8.95-4.98-17.25-7.67c-8.31-2.69-14.88-5.34-19.73-7.95
		c-13.21-7.13-19.81-16.74-19.81-28.83c0-6.28,1.77-11.89,5.31-16.81c3.54-4.92,8.63-8.77,15.25-11.54
		c6.63-2.77,14.07-4.15,22.32-4.15c8.31,0,15.71,1.5,22.2,4.51c6.5,3.01,11.54,7.26,15.13,12.74c3.59,5.48,5.39,11.71,5.39,18.69
		h-23.96c0-5.32-1.68-9.46-5.03-12.42c-3.35-2.96-8.07-4.43-14.14-4.43c-5.86,0-10.41,1.24-13.66,3.71
		c-3.25,2.48-4.87,5.74-4.87,9.78c0,3.78,1.9,6.95,5.71,9.5c3.81,2.56,9.41,4.95,16.81,7.19c13.63,4.1,23.56,9.18,29.79,15.25
		c6.23,6.07,9.34,13.63,9.34,22.68c0,10.06-3.81,17.96-11.42,23.68c-7.61,5.72-17.86,8.59-30.75,8.59c-8.95,0-17.09-1.64-24.44-4.91
		s-12.95-7.76-16.81-13.46c-3.86-5.7-5.79-12.3-5.79-19.81h24.04c0,12.83,7.67,19.25,23,19.25c5.7,0,10.14-1.16,13.34-3.47
		C3506.49,964.01,3508.09,960.78,3508.09,956.63z"/>
	<path d="M3606.53,987.14h-23.96V870.85h23.96V987.14z"/>
	<path d="M3753.46,972.44c-4.31,5.17-10.41,9.17-18.29,12.02c-7.88,2.85-16.61,4.27-26.2,4.27c-10.06,0-18.89-2.2-26.48-6.59
		s-13.45-10.77-17.57-19.13c-4.13-8.36-6.24-18.18-6.35-29.47v-7.91c0-11.61,1.96-21.66,5.87-30.15
		c3.91-8.49,9.56-14.99,16.93-19.49c7.37-4.5,16.01-6.75,25.92-6.75c13.79,0,24.57,3.29,32.35,9.86
		c7.77,6.58,12.38,16.15,13.82,28.71h-23.32c-1.07-6.66-3.42-11.53-7.07-14.62c-3.65-3.09-8.67-4.63-15.06-4.63
		c-8.15,0-14.35,3.06-18.61,9.18c-4.26,6.12-6.42,15.23-6.47,27.31v7.43c0,12.19,2.32,21.4,6.95,27.63s11.42,9.34,20.37,9.34
		c9,0,15.41-1.92,19.25-5.75v-20.05h-21.8v-17.65h45.76V972.44z"/>
	<path d="M3900.14,987.14h-23.96l-46.64-76.51v76.51h-23.96V870.85h23.96l46.72,76.67v-76.67h23.88V987.14z"/>
</g>
<path class="st0" d="M8808.76,2115.6c451.64,0,817.77-366.13,817.77-817.77s-366.13-817.77-817.77-817.77
	s-817.77,366.13-817.77,817.77S8357.12,2115.6,8808.76,2115.6"/>
<polygon points="8808.76,1381.08 8863.11,1322.63 8754.41,1322.63 "/>
<polygon points="8808.76,1676.93 8863.11,1618.47 8754.41,1618.47 "/>
<g>
	<path d="M8405.63,870.85l29.87,84.34l29.71-84.34h31.47v116.29h-24.04v-31.79l2.4-54.87l-31.39,86.66h-16.45l-31.31-86.58
		l2.4,54.79v31.79h-23.96V870.85H8405.63z"/>
	<path d="M8620.29,936.74h-46v31.15h53.99v19.25h-77.95V870.85h77.79v19.41h-53.83v27.71h46V936.74z"/>
	<path d="M8740.69,963.18h-42.01l-7.99,23.96h-25.48l43.29-116.29h22.2l43.53,116.29h-25.48L8740.69,963.18z M8705.15,943.77h29.07
		l-14.62-43.53L8705.15,943.77z"/>
	<path d="M8878.11,956.63c0-4.52-1.6-8-4.79-10.42c-3.2-2.42-8.95-4.98-17.25-7.67c-8.31-2.69-14.88-5.34-19.73-7.95
		c-13.21-7.13-19.81-16.74-19.81-28.83c0-6.28,1.77-11.89,5.31-16.81c3.54-4.92,8.63-8.77,15.25-11.54
		c6.63-2.77,14.07-4.15,22.32-4.15c8.31,0,15.71,1.5,22.2,4.51c6.5,3.01,11.54,7.26,15.13,12.74c3.59,5.48,5.39,11.71,5.39,18.69
		h-23.96c0-5.32-1.68-9.46-5.03-12.42s-8.07-4.43-14.14-4.43c-5.86,0-10.41,1.24-13.66,3.71c-3.25,2.48-4.87,5.74-4.87,9.78
		c0,3.78,1.9,6.95,5.71,9.5c3.81,2.56,9.41,4.95,16.81,7.19c13.63,4.1,23.56,9.18,29.79,15.25c6.23,6.07,9.34,13.63,9.34,22.68
		c0,10.06-3.81,17.96-11.42,23.68c-7.62,5.72-17.86,8.59-30.75,8.59c-8.95,0-17.09-1.64-24.44-4.91s-12.95-7.76-16.81-13.46
		c-3.86-5.7-5.79-12.3-5.79-19.81h24.04c0,12.83,7.67,19.25,23,19.25c5.7,0,10.14-1.16,13.34-3.47
		C8876.52,964.01,8878.11,960.78,8878.11,956.63z"/>
	<path d="M9039.09,870.85v76.59c0,12.73-3.98,22.79-11.94,30.19c-7.96,7.4-18.84,11.1-32.63,11.1c-13.58,0-24.36-3.59-32.35-10.78
		c-7.99-7.19-12.06-17.06-12.22-29.63v-77.47h23.96v76.75c0,7.61,1.82,13.17,5.47,16.65c3.65,3.49,8.69,5.23,15.13,5.23
		c13.47,0,20.31-7.08,20.53-21.24v-77.39H9039.09z"/>
	<path d="M9134.5,944.57h-19.09v42.57h-23.96V870.85h43.21c13.74,0,24.33,3.06,31.79,9.18c7.45,6.12,11.18,14.78,11.18,25.96
		c0,7.93-1.72,14.55-5.15,19.85c-3.43,5.3-8.64,9.52-15.61,12.66l25.16,47.52v1.12h-25.72L9134.5,944.57z M9115.42,925.16h19.33
		c6.02,0,10.67-1.53,13.98-4.59c3.3-3.06,4.95-7.28,4.95-12.66c0-5.48-1.56-9.8-4.67-12.94c-3.11-3.14-7.89-4.71-14.34-4.71h-19.25
		V925.16z"/>
	<path d="M9298.52,936.74h-46v31.15h53.99v19.25h-77.95V870.85h77.79v19.41h-53.83v27.71h46V936.74z"/>
</g>
<g>
	<path d="M8476.88,1229.45h-45.24v43.88h-13.42v-99.21h65.62v10.56h-52.19v34.21h45.24V1229.45z"/>
	<path d="M8572.33,1227.34h-45.45v35.43h52.4v10.56h-65.82v-99.21h65.07v10.56h-51.65v32.09h45.45V1227.34z"/>
	<path d="M8667.84,1227.34h-45.45v35.43h52.4v10.56h-65.82v-99.21h65.07v10.56h-51.65v32.09h45.45V1227.34z"/>
	<path d="M8704.49,1273.33v-99.21h30.46c12.99,0,23.42,3.99,31.28,11.96c7.86,7.97,11.79,18.27,11.79,30.9v13.56
		c0,12.67-3.93,22.97-11.79,30.9c-7.86,7.93-18.29,11.89-31.28,11.89H8704.49z M8717.91,1184.68v78.09h17.04
		c9.17,0,16.41-3.02,21.7-9.05c5.29-6.04,7.94-13.77,7.94-23.22v-13.68c0-9.35-2.65-17.04-7.94-23.08
		c-5.29-6.04-12.53-9.06-21.7-9.06H8717.91z"/>
	<path d="M8810.36,1273.33v-99.21h32.37c10.36,0,18.47,2.24,24.33,6.71c5.86,4.48,8.79,11.19,8.79,20.14
		c0,4.41-1.41,8.35-4.22,11.82c-2.82,3.48-6.52,6.05-11.11,7.73c6,1.27,10.71,4.2,14.14,8.79c3.43,4.59,5.14,9.93,5.14,16.01
		c0,9.09-2.94,16.02-8.82,20.82c-5.88,4.79-13.87,7.19-23.95,7.19H8810.36z M8823.79,1216.3h21.74c5,0,9.06-1.37,12.2-4.12
		c3.13-2.75,4.7-6.58,4.7-11.48c0-5.36-1.69-9.37-5.08-12.03c-3.38-2.66-8.26-3.99-14.62-3.99h-18.94V1216.3z M8823.79,1226.86
		v35.91h23.24c6.09,0,10.83-1.5,14.24-4.51c3.41-3.01,5.11-7.27,5.11-12.8c0-5.79-1.42-10.34-4.26-13.64
		c-2.84-3.3-7.21-4.96-13.12-4.96H8823.79z"/>
	<path d="M8967.27,1247.78h-41.56l-9.4,25.55h-13.7l38.36-99.21h11.52l37.75,99.21h-13.7L8967.27,1247.78z M8929.87,1236.54h33.39
		l-16.35-45.18h-0.41L8929.87,1236.54z"/>
	<path d="M9087.93,1241.51l0.14,0.41c0.18,9.31-3.09,17.11-9.81,23.41c-6.72,6.29-15.6,9.44-26.64,9.44
		c-11.22,0-20.36-3.97-27.43-11.92c-7.06-7.95-10.6-18.03-10.6-30.25v-17.65c0-12.22,3.53-22.32,10.6-30.29s16.21-11.96,27.43-11.96
		c11.22,0,20.15,2.99,26.78,8.96c6.63,5.97,9.86,13.89,9.68,23.75l-0.14,0.41h-12.88c0-6.95-2.04-12.45-6.13-16.49
		c-4.09-4.04-9.86-6.06-17.31-6.06c-7.5,0-13.47,3.02-17.92,9.06c-4.45,6.04-6.68,13.53-6.68,22.47v17.77
		c0,9.03,2.23,16.57,6.68,22.6c4.45,6.04,10.42,9.05,17.92,9.05c7.45,0,13.22-2.01,17.31-6.03c4.09-4.02,6.13-9.57,6.13-16.66
		H9087.93z"/>
	<path d="M9145.16,1228.57h-11.58v44.77h-13.42v-99.21h13.42V1218h10.36l35.5-43.88h14.85l0.2,0.34l-38.5,47.63l41.29,50.9
		l-0.2,0.34h-16.01L9145.16,1228.57z"/>
</g>
<g>
	<path d="M8531.8,1525.36l-41.56-0.17l-9.51,25.51l-13.7-0.06l38.76-99.06l11.52,0.05l37.35,99.36l-13.7-0.05L8531.8,1525.36z
		 M8494.44,1513.97l33.39,0.13l-16.17-45.24l-0.41,0L8494.44,1513.97z"/>
	<path d="M8657.26,1551.42l-13.42-0.05l-47.46-76.92l-0.41,0.13l-0.31,76.59l-13.42-0.05l0.4-99.21l13.42,0.05l47.46,76.78
		l0.41-0.13l0.31-76.45l13.42,0.05L8657.26,1551.42z"/>
	<path d="M8750.84,1526.24l-41.56-0.17l-9.51,25.51l-13.7-0.05l38.76-99.06l11.52,0.05l37.35,99.36l-13.7-0.05L8750.84,1526.24z
		 M8713.48,1514.84l33.39,0.13l-16.17-45.24l-0.41,0L8713.48,1514.84z"/>
	<path d="M8814.75,1541.48l46.95,0.19l-0.04,10.56l-60.37-0.24l0.4-99.21l13.42,0.05L8814.75,1541.48z"/>
	<path d="M8902.17,1503.61l26.09-50.32l15.33,0.06l-35.08,64.18l-0.14,34.89l-13.36-0.05l0.14-35.77l-34.02-63.57l15.33,0.06
		L8902.17,1503.61z"/>
	<path d="M8980.3,1542.15l55.46,0.22l-0.04,10.56l-70.59-0.28l0.04-10.02l53.33-78.42l-52.26-0.21l0.04-10.56l67.59,0.27l-0.04,9.61
		L8980.3,1542.15z"/>
	<path d="M9127.26,1507.3l-45.45-0.18l-0.14,35.43l52.4,0.21l-0.04,10.56l-65.82-0.26l0.4-99.21l65.07,0.26l-0.04,10.56l-51.65-0.21
		l-0.13,32.09l45.45,0.18L9127.26,1507.3z"/>
</g>
<g>
	<path d="M8482.7,1861.3h-13.49v-99.21h13.49V1861.3z"/>
	<path d="M8539.1,1762.09l31.62,80.61h0.41l31.62-80.61h17.17v99.21h-13.42v-39.25l1.36-40.34l-0.34-0.07l-32.16,79.65h-8.93
		l-32.03-79.45l-0.34,0.07l1.29,40.13v39.25h-13.42v-99.21H8539.1z"/>
	<path d="M8671.89,1821.51v39.79h-13.42v-99.21h37.95c10.58,0,18.81,2.73,24.67,8.18s8.79,12.63,8.79,21.53
		c0,9.04-2.93,16.25-8.79,21.63c-5.86,5.38-14.08,8.08-24.67,8.08H8671.89z M8671.89,1810.94h24.53c6.72,0,11.74-1.8,15.06-5.41
		c3.32-3.6,4.97-8.15,4.97-13.64c0-5.49-1.67-10.07-5.01-13.74c-3.34-3.67-8.35-5.51-15.02-5.51h-24.53V1810.94z"/>
	<path d="M8775.24,1818.3v43h-13.42v-99.14h35.91c10.86,0,19.15,2.41,24.87,7.22c5.72,4.82,8.59,11.81,8.59,20.99
		c0,5.09-1.33,9.52-3.99,13.29s-6.53,6.77-11.62,8.99c5.45,1.77,9.37,4.65,11.75,8.62c2.39,3.97,3.58,8.89,3.58,14.75v9.33
		c0,3.09,0.34,5.86,1.02,8.31c0.68,2.45,1.86,4.45,3.54,6v1.64h-13.83c-1.77-1.54-2.91-3.82-3.41-6.81c-0.5-3-0.75-6.09-0.75-9.27
		v-9.06c0-5.36-1.57-9.68-4.7-12.95c-3.13-3.27-7.34-4.91-12.61-4.91H8775.24z M8775.24,1807.74h21.12c7.59,0,13.05-1.44,16.39-4.32
		s5.01-7.26,5.01-13.16c0-5.58-1.62-9.89-4.87-12.96c-3.25-3.06-8.3-4.59-15.16-4.59h-22.49V1807.74z"/>
	<path d="M8943.33,1820.55c0,12.13-3.76,22.19-11.28,30.19c-7.52,8-17.27,11.99-29.27,11.99c-11.58,0-21-4-28.24-11.99
		c-7.25-8-10.87-18.06-10.87-30.19v-17.65c0-12.08,3.62-22.14,10.87-30.19c7.25-8.04,16.66-12.06,28.24-12.06
		c11.99,0,21.75,4.01,29.27,12.03c7.52,8.02,11.28,18.09,11.28,30.22V1820.55z M8929.91,1802.77c0-9.08-2.45-16.53-7.36-22.35
		c-4.91-5.81-11.49-8.72-19.76-8.72c-7.81,0-14.05,2.91-18.7,8.72c-4.66,5.82-6.98,13.26-6.98,22.35v17.78
		c0,9.18,2.33,16.67,6.98,22.49c4.66,5.82,10.89,8.72,18.7,8.72c8.31,0,14.91-2.9,19.79-8.69c4.88-5.79,7.33-13.3,7.33-22.52
		V1802.77z"/>
	<path d="M9005.25,1836.63l2.25,7.84h0.41l2.25-7.84l25.62-74.54h14.51l-36.86,99.21h-11.52l-36.86-99.21h14.58L9005.25,1836.63z"/>
	<path d="M9136.88,1815.3h-45.45v35.43h52.4v10.56h-65.82v-99.21h65.07v10.56h-51.65v32.09h45.45V1815.3z"/>
</g>
<path class="st0" d="M6342.6,2115.6c451.64,0,817.77-366.13,817.77-817.77s-366.13-817.77-817.77-817.77
	c-451.64,0-817.77,366.13-817.77,817.77S5890.96,2115.6,6342.6,2115.6"/>
<polygon points="6342.6,1381.08 6396.95,1322.63 6288.25,1322.63 "/>
<polygon points="6342.6,1676.93 6396.95,1618.47 6288.25,1618.47 "/>
<g>
	<path d="M5919.54,987.14V870.85h35.78c10.22,0,19.37,2.3,27.43,6.91c8.07,4.61,14.36,11.15,18.89,19.65
		c4.52,8.49,6.79,18.14,6.79,28.95v5.35c0,10.81-2.22,20.42-6.67,28.83c-4.45,8.41-10.72,14.94-18.81,19.57
		c-8.09,4.63-17.22,6.98-27.39,7.03H5919.54z M5943.5,890.26v77.63h11.58c9.37,0,16.53-3.06,21.48-9.18
		c4.95-6.12,7.48-14.88,7.59-26.28v-6.15c0-11.82-2.45-20.78-7.35-26.88c-4.9-6.1-12.06-9.15-21.48-9.15H5943.5z"/>
	<path d="M6128.52,936.74h-46v31.15h53.99v19.25h-77.95V870.85h77.79v19.41h-53.83v27.71h46V936.74z"/>
	<path d="M6207.23,967.89h50.88v19.25h-74.84V870.85h23.96V967.89z"/>
	<path d="M6330.04,987.14h-23.96V870.85h23.96V987.14z"/>
	<path d="M6427.92,958.3l26.36-87.45h26.68l-40.49,116.29h-25l-40.33-116.29h26.6L6427.92,958.3z"/>
	<path d="M6594.57,936.74h-46v31.15h53.99v19.25h-77.95V870.85h77.79v19.41h-53.83v27.71h46V936.74z"/>
	<path d="M6692.38,944.57h-19.09v42.57h-23.96V870.85h43.21c13.74,0,24.33,3.06,31.79,9.18c7.45,6.12,11.18,14.78,11.18,25.96
		c0,7.93-1.72,14.55-5.15,19.85c-3.43,5.3-8.64,9.52-15.61,12.66l25.16,47.52v1.12h-25.72L6692.38,944.57z M6673.29,925.16h19.33
		c6.02,0,10.67-1.53,13.98-4.59c3.3-3.06,4.95-7.28,4.95-12.66c0-5.48-1.56-9.8-4.67-12.94c-3.11-3.14-7.89-4.71-14.34-4.71h-19.25
		V925.16z"/>
</g>
<g>
	<path d="M6088.48,1230.34v43h-13.42v-99.14h35.91c10.86,0,19.15,2.41,24.87,7.22c5.72,4.82,8.59,11.81,8.59,20.99
		c0,5.09-1.33,9.52-3.99,13.29c-2.66,3.77-6.53,6.77-11.62,8.99c5.45,1.77,9.37,4.65,11.75,8.62c2.39,3.98,3.58,8.89,3.58,14.75
		v9.34c0,3.09,0.34,5.86,1.02,8.31c0.68,2.45,1.86,4.45,3.54,6v1.64h-13.83c-1.77-1.54-2.91-3.82-3.41-6.81
		c-0.5-3-0.75-6.09-0.75-9.27v-9.06c0-5.36-1.57-9.68-4.7-12.95c-3.13-3.27-7.34-4.91-12.61-4.91H6088.48z M6088.48,1219.78h21.12
		c7.59,0,13.05-1.44,16.39-4.32s5.01-7.27,5.01-13.16c0-5.58-1.62-9.9-4.87-12.95c-3.25-3.06-8.3-4.59-15.16-4.59h-22.49V1219.78z"
		/>
	<path d="M6240.35,1227.34h-45.45v35.43h52.4v10.56h-65.82v-99.21h65.07v10.56h-51.65v32.09h45.45V1227.34z"/>
	<path d="M6335.66,1229.45h-45.24v43.88h-13.42v-99.21h65.62v10.56h-52.19v34.21h45.24V1229.45z"/>
	<path d="M6386.41,1273.33h-13.49v-99.21h13.49V1273.33z"/>
	<path d="M6500.67,1273.33h-13.42l-47.76-76.72l-0.41,0.14v76.59h-13.42v-99.21h13.42l47.77,76.59l0.41-0.14v-76.45h13.42V1273.33z"
		/>
	<path d="M6598.03,1227.34h-45.45v35.43h52.4v10.56h-65.82v-99.21h65.07v10.56h-51.65v32.09h45.45V1227.34z"/>
</g>
<g>
	<path d="M6124.62,1551.15l0.4-99.21l32.37,0.13c10.36,0.04,18.46,2.31,24.3,6.81c5.84,4.5,8.75,11.22,8.71,20.17
		c-0.02,4.41-1.44,8.34-4.27,11.81c-2.83,3.46-6.54,6.03-11.14,7.69c5.99,1.3,10.69,4.25,14.1,8.85c3.41,4.6,5.1,9.95,5.08,16.03
		c-0.04,9.09-3.01,16.01-8.91,20.78c-5.9,4.77-13.89,7.13-23.98,7.09L6124.62,1551.15z M6138.23,1504.73l-0.14,35.91l23.24,0.09
		c6.09,0.02,10.84-1.46,14.26-4.46c3.42-3,5.14-7.25,5.16-12.77c0.02-5.79-1.38-10.35-4.2-13.66c-2.83-3.31-7.19-4.98-13.1-5.01
		L6138.23,1504.73z M6138.27,1494.17l21.74,0.09c5,0.02,9.07-1.34,12.21-4.07c3.15-2.74,4.73-6.56,4.75-11.46
		c0.02-5.36-1.65-9.38-5.03-12.05c-3.37-2.67-8.24-4.02-14.6-4.04l-18.94-0.08L6138.27,1494.17z"/>
	<path d="M6300.66,1452.64l-0.27,67.25c-0.04,10.81-3.58,19.06-10.63,24.76c-7.04,5.7-16.22,8.52-27.53,8.48
		c-10.9-0.04-19.74-2.95-26.5-8.73c-6.77-5.77-10.13-14.04-10.09-24.81l0.27-67.25l13.42,0.05l-0.27,67.2
		c-0.03,7.49,2.08,13.18,6.34,17.08c4.25,3.9,9.88,5.86,16.88,5.89c7.36,0.03,13.31-1.89,17.84-5.75c4.54-3.86,6.82-9.54,6.85-17.03
		l0.27-67.2L6300.66,1452.64z"/>
	<path d="M6350.34,1552.05l-13.49-0.05l0.4-99.21l13.49,0.05L6350.34,1552.05z"/>
	<path d="M6403.04,1541.7l46.95,0.19l-0.04,10.56l-60.37-0.24l0.4-99.21l13.42,0.05L6403.04,1541.7z"/>
	<path d="M6478.89,1552.57l0.4-99.21l30.46,0.12c12.99,0.05,23.4,4.08,31.23,12.08c7.83,8,11.71,18.32,11.67,30.95l-0.05,13.56
		c-0.05,12.67-4.02,22.96-11.91,30.85c-7.89,7.9-18.33,11.82-31.32,11.76L6478.89,1552.57z M6492.66,1463.97l-0.31,78.09l17.04,0.07
		c9.17,0.04,16.42-2.95,21.74-8.97c5.32-6.02,7.99-13.74,8.03-23.18l0.05-13.68c0.04-9.35-2.58-17.05-7.84-23.11
		c-5.27-6.06-12.49-9.11-21.67-9.14L6492.66,1463.97z"/>
</g>
<g>
	<path d="M5910.32,1861.3h-13.49v-99.21h13.49V1861.3z"/>
	<path d="M5966.73,1762.09l31.62,80.61h0.41l31.62-80.61h17.17v99.21h-13.42v-39.25l1.36-40.34l-0.34-0.07l-32.16,79.65h-8.93
		l-32.03-79.45l-0.34,0.07l1.29,40.13v39.25h-13.42v-99.21H5966.73z"/>
	<path d="M6099.51,1821.51v39.79h-13.42v-99.21h37.95c10.58,0,18.81,2.73,24.67,8.18s8.79,12.63,8.79,21.53
		c0,9.04-2.93,16.25-8.79,21.63c-5.86,5.38-14.08,8.08-24.67,8.08H6099.51z M6099.51,1810.94h24.53c6.72,0,11.74-1.8,15.06-5.41
		c3.32-3.6,4.97-8.15,4.97-13.64c0-5.49-1.67-10.07-5.01-13.74c-3.34-3.67-8.35-5.51-15.02-5.51h-24.53V1810.94z"/>
	<path d="M6202.87,1850.74h46.95v10.56h-60.37v-99.21h13.42V1850.74z"/>
	<path d="M6337.63,1815.3h-45.45v35.43h52.4v10.56h-65.82v-99.21h65.07v10.56h-51.65v32.09h45.45V1815.3z"/>
	<path d="M6391.45,1762.09l31.62,80.61h0.41l31.62-80.61h17.17v99.21h-13.42v-39.25l1.36-40.34l-0.34-0.07l-32.16,79.65h-8.93
		l-32.03-79.45l-0.34,0.07l1.29,40.13v39.25h-13.42v-99.21H6391.45z"/>
	<path d="M6569.69,1815.3h-45.45v35.43h52.4v10.56h-65.82v-99.21h65.07v10.56h-51.65v32.09h45.45V1815.3z"/>
	<path d="M6681.35,1861.3h-13.42l-47.76-76.72l-0.41,0.14v76.59h-13.42v-99.21h13.42l47.77,76.59l0.41-0.14v-76.45h13.42V1861.3z"/>
	<path d="M6785.05,1772.65h-31.89v88.65h-13.42v-88.65h-31.82v-10.56h77.13V1772.65z"/>
</g>
<g>
	<path d="M3309.8,1273.33h-13.49v-99.21h13.49V1273.33z"/>
	<path d="M3349.03,1273.33v-99.21h30.46c12.99,0,23.42,3.99,31.28,11.96c7.86,7.97,11.79,18.27,11.79,30.9v13.56
		c0,12.67-3.93,22.97-11.79,30.9c-7.86,7.93-18.28,11.89-31.28,11.89H3349.03z M3362.46,1184.68v78.09h17.03
		c9.18,0,16.41-3.02,21.7-9.05c5.29-6.04,7.94-13.77,7.94-23.22v-13.68c0-9.35-2.65-17.04-7.94-23.08
		c-5.29-6.04-12.53-9.06-21.7-9.06H3362.46z"/>
	<path d="M3513.78,1227.34h-45.45v35.43h52.4v10.56h-65.82v-99.21h65.07v10.56h-51.65v32.09h45.45V1227.34z"/>
	<path d="M3604.19,1247.78h-41.56l-9.4,25.55h-13.7l38.36-99.21h11.52l37.75,99.21h-13.7L3604.19,1247.78z M3566.78,1236.54h33.39
		l-16.35-45.18h-0.41L3566.78,1236.54z"/>
	<path d="M3721.92,1184.68h-31.89v88.65h-13.42v-88.65h-31.82v-10.56h77.13V1184.68z"/>
	<path d="M3809.33,1227.34h-45.45v35.43h52.4v10.56h-65.82v-99.21h65.07v10.56h-51.65v32.09h45.45V1227.34z"/>
</g>
<g>
	<path d="M3127.8,1510.5l-0.16,39.79l-13.42-0.05l0.4-99.21l37.95,0.15c10.58,0.04,18.8,2.8,24.63,8.28
		c5.84,5.47,8.74,12.66,8.7,21.57c-0.04,9.04-3,16.24-8.88,21.6s-14.11,8.02-24.7,7.98L3127.8,1510.5z M3127.84,1499.94l24.53,0.1
		c6.72,0.03,11.75-1.76,15.08-5.35c3.33-3.59,5.01-8.13,5.03-13.62c0.02-5.49-1.63-10.07-4.95-13.76c-3.32-3.69-8.33-5.54-15-5.57
		l-24.53-0.1L3127.84,1499.94z"/>
	<path d="M3231.16,1507.72l-0.17,43l-13.42-0.05l0.4-99.14l35.91,0.14c10.86,0.04,19.14,2.49,24.84,7.32
		c5.7,4.84,8.54,11.85,8.5,21.02c-0.02,5.09-1.37,9.51-4.04,13.27c-2.67,3.76-6.56,6.74-11.65,8.95c5.44,1.79,9.35,4.68,11.72,8.67
		c2.37,3.99,3.54,8.91,3.52,14.77l-0.04,9.33c-0.01,3.09,0.32,5.86,0.99,8.32c0.67,2.46,1.84,4.46,3.52,6.01l-0.01,1.64l-13.83-0.06
		c-1.77-1.55-2.89-3.83-3.38-6.83c-0.49-3-0.73-6.09-0.71-9.27l0.04-9.06c0.02-5.36-1.53-9.68-4.65-12.97
		c-3.12-3.28-7.32-4.94-12.59-4.96L3231.16,1507.72z M3231.2,1497.15l21.12,0.08c7.59,0.03,13.05-1.39,16.41-4.25
		c3.35-2.87,5.04-7.25,5.06-13.14c0.02-5.58-1.58-9.9-4.82-12.97c-3.24-3.07-8.28-4.62-15.14-4.65l-22.49-0.09L3231.2,1497.15z"/>
	<path d="M3399.24,1510.64c-0.05,12.13-3.85,22.18-11.4,30.14c-7.55,7.97-17.32,11.92-29.31,11.88
		c-11.58-0.05-20.98-4.08-28.2-12.11c-7.21-8.02-10.8-18.1-10.75-30.23l0.07-17.65c0.05-12.08,3.71-22.13,10.99-30.14
		c7.28-8.01,16.71-11.99,28.29-11.95c11.99,0.05,21.73,4.1,29.22,12.14c7.49,8.05,11.2,18.14,11.16,30.26L3399.24,1510.64z
		 M3385.88,1492.8c0.04-9.08-2.39-16.54-7.27-22.38c-4.88-5.83-11.46-8.77-19.73-8.8c-7.81-0.03-14.06,2.85-18.74,8.65
		c-4.68,5.8-7.04,13.24-7.07,22.32l-0.07,17.78c-0.04,9.18,2.26,16.68,6.89,22.51c4.63,5.83,10.86,8.77,18.67,8.8
		c8.31,0.03,14.92-2.84,19.83-8.61c4.91-5.77,7.38-13.27,7.41-22.49L3385.88,1492.8z"/>
	<path d="M3498.76,1463.13l-31.89-0.13l-0.35,88.65l-13.42-0.05l0.35-88.65l-31.82-0.13l0.04-10.56l77.13,0.31L3498.76,1463.13z"/>
	<path d="M3600.29,1511.44c-0.05,12.13-3.85,22.18-11.4,30.14c-7.55,7.97-17.32,11.92-29.31,11.88
		c-11.58-0.05-20.98-4.08-28.2-12.11c-7.21-8.02-10.8-18.1-10.75-30.23l0.07-17.65c0.05-12.08,3.71-22.13,10.99-30.14
		c7.28-8.01,16.71-11.99,28.29-11.95c11.99,0.05,21.73,4.1,29.22,12.14c7.49,8.05,11.2,18.14,11.16,30.26L3600.29,1511.44z
		 M3586.93,1493.6c0.04-9.08-2.39-16.54-7.27-22.38c-4.88-5.83-11.46-8.77-19.73-8.8c-7.81-0.03-14.06,2.85-18.74,8.65
		c-4.68,5.8-7.04,13.24-7.07,22.32l-0.07,17.78c-0.04,9.18,2.26,16.68,6.89,22.51c4.63,5.83,10.86,8.77,18.67,8.8
		c8.31,0.03,14.92-2.84,19.83-8.61c4.91-5.77,7.38-13.27,7.41-22.49L3586.93,1493.6z"/>
	<path d="M3699.81,1463.94l-31.89-0.13l-0.35,88.65l-13.42-0.05l0.35-88.65l-31.82-0.13l0.04-10.56l77.13,0.31L3699.81,1463.94z"/>
	<path d="M3759.6,1504.04l26.09-50.32l15.33,0.06l-35.08,64.18l-0.14,34.89l-13.35-0.05l0.14-35.77l-34.02-63.57l15.33,0.06
		L3759.6,1504.04z"/>
	<path d="M3841.79,1513.36l-0.16,39.79l-13.42-0.05l0.4-99.21l37.95,0.15c10.58,0.04,18.8,2.8,24.63,8.28
		c5.84,5.47,8.74,12.66,8.7,21.57c-0.04,9.04-3,16.24-8.88,21.6c-5.88,5.36-14.11,8.02-24.7,7.98L3841.79,1513.36z M3841.83,1502.8
		l24.53,0.1c6.72,0.03,11.75-1.75,15.08-5.35c3.33-3.59,5.01-8.13,5.03-13.62c0.02-5.49-1.63-10.07-4.95-13.76
		c-3.32-3.69-8.33-5.54-15-5.57l-24.53-0.1L3841.83,1502.8z"/>
	<path d="M3990.62,1507.76l-45.45-0.18l-0.14,35.43l52.4,0.21l-0.04,10.56l-65.82-0.26l0.4-99.21l65.07,0.26l-0.04,10.56
		l-51.65-0.21l-0.13,32.09l45.45,0.18L3990.62,1507.76z"/>
</g>
<g>
	<path d="M3444.02,1772.65h-31.89v88.65h-13.42v-88.65h-31.82v-10.56h77.13V1772.65z"/>
	<path d="M3531.43,1815.3h-45.45v35.43h52.4v10.56h-65.82v-99.21h65.07v10.56h-51.65v32.09h45.45V1815.3z"/>
	<path d="M3622.11,1836.32c0-4.52-1.7-8.3-5.11-11.35c-3.41-3.05-9.45-5.61-18.12-7.69c-10.49-2.5-18.68-6.19-24.56-11.07
		c-5.88-4.87-8.82-11-8.82-18.37c0-7.74,3.17-14.21,9.51-19.4s14.55-7.79,24.63-7.79c10.86,0,19.5,2.98,25.93,8.93
		c6.43,5.95,9.53,12.86,9.3,20.71l-0.14,0.41h-12.81c0-5.81-1.92-10.52-5.76-14.11c-3.84-3.59-9.35-5.38-16.52-5.38
		c-6.68,0-11.8,1.51-15.37,4.53c-3.57,3.02-5.35,6.96-5.35,11.82c0,4.32,1.93,7.92,5.79,10.8c3.86,2.89,10.13,5.42,18.81,7.6
		c10.45,2.59,18.4,6.41,23.85,11.45c5.45,5.04,8.18,11.29,8.18,18.74c0,8-3.27,14.42-9.81,19.28c-6.54,4.86-15.08,7.29-25.62,7.29
		c-9.9,0-18.66-2.69-26.27-8.07c-7.61-5.38-11.3-12.57-11.07-21.57l0.14-0.41h12.81c0,6.36,2.34,11.2,7.02,14.51
		c4.68,3.32,10.47,4.97,17.38,4.97c6.77,0,12.13-1.42,16.08-4.27S3622.11,1841.19,3622.11,1836.32z"/>
	<path d="M3736.23,1772.65h-31.89v88.65h-13.42v-88.65h-31.82v-10.56h77.13V1772.65z"/>
</g>
<g>
	<path d="M464.22,1230.34v43h-13.42v-99.14h35.91c10.86,0,19.15,2.41,24.87,7.22c5.72,4.82,8.59,11.81,8.59,20.99
		c0,5.09-1.33,9.52-3.99,13.29c-2.66,3.77-6.53,6.77-11.62,8.99c5.45,1.77,9.37,4.65,11.75,8.62c2.38,3.98,3.58,8.89,3.58,14.75
		v9.34c0,3.09,0.34,5.86,1.02,8.31c0.68,2.45,1.86,4.45,3.54,6v1.64h-13.83c-1.77-1.54-2.91-3.82-3.41-6.81
		c-0.5-3-0.75-6.09-0.75-9.27v-9.06c0-5.36-1.57-9.68-4.7-12.95c-3.13-3.27-7.34-4.91-12.61-4.91H464.22z M464.22,1219.78h21.12
		c7.59,0,13.05-1.44,16.39-4.32s5.01-7.27,5.01-13.16c0-5.58-1.62-9.9-4.87-12.95c-3.25-3.06-8.3-4.59-15.16-4.59h-22.49V1219.78z"
		/>
	<path d="M616.09,1227.34h-45.45v35.43h52.4v10.56h-65.82v-99.21h65.07v10.56h-51.65v32.09h45.45V1227.34z"/>
	<path d="M706.76,1248.35c0-4.52-1.7-8.3-5.11-11.35c-3.41-3.05-9.45-5.61-18.12-7.69c-10.49-2.5-18.68-6.19-24.56-11.06
		c-5.88-4.87-8.82-11-8.82-18.37c0-7.74,3.17-14.21,9.51-19.4s14.55-7.79,24.63-7.79c10.86,0,19.5,2.98,25.93,8.93
		c6.43,5.95,9.53,12.86,9.3,20.71l-0.14,0.41h-12.81c0-5.81-1.92-10.52-5.76-14.1c-3.84-3.59-9.35-5.38-16.52-5.38
		c-6.68,0-11.8,1.51-15.37,4.53c-3.57,3.02-5.35,6.96-5.35,11.82c0,4.32,1.93,7.92,5.79,10.8c3.86,2.89,10.13,5.42,18.81,7.6
		c10.45,2.59,18.4,6.41,23.85,11.45c5.45,5.04,8.18,11.29,8.18,18.74c0,8-3.27,14.42-9.81,19.28c-6.54,4.86-15.08,7.29-25.62,7.29
		c-9.9,0-18.66-2.69-26.27-8.07c-7.61-5.38-11.3-12.57-11.07-21.57l0.14-0.41h12.81c0,6.36,2.34,11.2,7.02,14.51
		c4.68,3.32,10.47,4.97,17.38,4.97c6.77,0,12.13-1.42,16.08-4.27S706.76,1253.23,706.76,1248.35z"/>
	<path d="M812.57,1227.34h-45.45v35.43h52.4v10.56H753.7v-99.21h65.07v10.56h-51.65v32.09h45.45V1227.34z"/>
	<path d="M902.98,1247.78h-41.56l-9.4,25.55h-13.7l38.36-99.21h11.52l37.75,99.21h-13.7L902.98,1247.78z M865.57,1236.54h33.39
		l-16.35-45.18h-0.41L865.57,1236.54z"/>
	<path d="M966.95,1230.34v43h-13.42v-99.14h35.91c10.86,0,19.15,2.41,24.87,7.22c5.72,4.82,8.59,11.81,8.59,20.99
		c0,5.09-1.33,9.52-3.99,13.29c-2.66,3.77-6.53,6.77-11.62,8.99c5.45,1.77,9.37,4.65,11.75,8.62c2.38,3.98,3.58,8.89,3.58,14.75
		v9.34c0,3.09,0.34,5.86,1.02,8.31c0.68,2.45,1.86,4.45,3.54,6v1.64h-13.83c-1.77-1.54-2.91-3.82-3.41-6.81
		c-0.5-3-0.75-6.09-0.75-9.27v-9.06c0-5.36-1.57-9.68-4.7-12.95c-3.13-3.27-7.34-4.91-12.61-4.91H966.95z M966.95,1219.78h21.12
		c7.59,0,13.05-1.44,16.39-4.32c3.34-2.88,5.01-7.27,5.01-13.16c0-5.58-1.62-9.9-4.87-12.95c-3.25-3.06-8.3-4.59-15.16-4.59h-22.49
		V1219.78z"/>
	<path d="M1130.06,1241.51l0.14,0.41c0.18,9.31-3.09,17.11-9.81,23.41c-6.72,6.29-15.6,9.44-26.64,9.44
		c-11.22,0-20.36-3.97-27.43-11.92c-7.06-7.95-10.6-18.03-10.6-30.25v-17.65c0-12.22,3.53-22.32,10.6-30.29
		c7.06-7.97,16.21-11.96,27.43-11.96c11.22,0,20.15,2.99,26.78,8.96c6.63,5.97,9.86,13.89,9.68,23.75l-0.14,0.41h-12.88
		c0-6.95-2.04-12.45-6.13-16.49c-4.09-4.04-9.86-6.06-17.31-6.06c-7.5,0-13.47,3.02-17.92,9.06c-4.45,6.04-6.68,13.53-6.68,22.47
		v17.77c0,9.03,2.23,16.57,6.68,22.6c4.45,6.04,10.43,9.05,17.92,9.05c7.45,0,13.22-2.01,17.31-6.03c4.09-4.02,6.13-9.57,6.13-16.66
		H1130.06z"/>
	<path d="M1237.3,1273.33h-13.42v-43.81h-48.17v43.81h-13.42v-99.21h13.42v44.84h48.17v-44.84h13.42V1273.33z"/>
</g>
<g>
	<path d="M435.45,1525.38c0.02-4.52-1.67-8.3-5.06-11.37c-3.39-3.06-9.43-5.65-18.09-7.76c-10.48-2.55-18.66-6.27-24.52-11.16
		c-5.86-4.9-8.78-11.03-8.75-18.41c0.03-7.74,3.23-14.19,9.58-19.36c6.36-5.17,14.58-7.73,24.66-7.69
		c10.86,0.04,19.49,3.05,25.89,9.03c6.4,5.98,9.48,12.89,9.22,20.75l-0.14,0.41l-12.81-0.05c0.02-5.81-1.88-10.52-5.7-14.13
		c-3.82-3.6-9.33-5.42-16.5-5.45c-6.68-0.03-11.81,1.46-15.38,4.47c-3.58,3.01-5.38,6.94-5.4,11.8c-0.02,4.32,1.9,7.92,5.75,10.82
		c3.85,2.9,10.11,5.46,18.78,7.67c10.44,2.63,18.37,6.48,23.8,11.54c5.43,5.06,8.13,11.32,8.1,18.77c-0.03,8-3.33,14.41-9.89,19.24
		c-6.56,4.84-15.11,7.23-25.65,7.19c-9.9-0.04-18.65-2.77-26.24-8.18c-7.59-5.41-11.25-12.62-10.99-21.61l0.14-0.41l12.81,0.05
		c-0.03,6.36,2.29,11.21,6.96,14.54c4.66,3.33,10.45,5.02,17.36,5.04c6.77,0.03,12.13-1.37,16.1-4.2
		C433.44,1534.11,435.43,1530.25,435.45,1525.38z"/>
	<path d="M512.8,1501.88l26.09-50.32l15.33,0.06l-35.08,64.18l-0.14,34.89l-13.35-0.05l0.14-35.77l-34.02-63.57l15.33,0.06
		L512.8,1501.88z"/>
	<path d="M656.43,1551.24l-13.42-0.05l-47.46-76.92l-0.41,0.13l-0.31,76.59l-13.42-0.05l0.4-99.21l13.42,0.05l47.46,76.78l0.41-0.13
		l0.31-76.45l13.42,0.05L656.43,1551.24z"/>
	<path d="M760.48,1463.01l-31.89-0.13l-0.35,88.65l-13.42-0.05l0.35-88.65l-31.82-0.13l0.04-10.56l77.13,0.31L760.48,1463.01z"/>
	<path d="M863.68,1552.07l-13.42-0.05l0.18-43.81l-48.17-0.19l-0.18,43.81l-13.42-0.05l0.4-99.21l13.42,0.05l-0.18,44.83l48.17,0.19
		l0.18-44.83l13.42,0.05L863.68,1552.07z"/>
	<path d="M961.22,1506.47l-45.45-0.18l-0.14,35.43l52.4,0.21l-0.04,10.56l-65.82-0.26l0.4-99.21l65.07,0.26l-0.04,10.56l-51.65-0.21
		l-0.13,32.09l45.45,0.18L961.22,1506.47z"/>
	<path d="M1051.81,1527.84c0.02-4.52-1.67-8.3-5.06-11.37c-3.4-3.06-9.43-5.65-18.09-7.76c-10.48-2.55-18.66-6.27-24.52-11.16
		c-5.86-4.9-8.78-11.03-8.75-18.41c0.03-7.74,3.23-14.19,9.58-19.36c6.36-5.17,14.58-7.73,24.66-7.69
		c10.86,0.04,19.49,3.05,25.89,9.03c6.4,5.98,9.48,12.89,9.22,20.75l-0.14,0.41l-12.81-0.05c0.02-5.81-1.88-10.52-5.7-14.13
		c-3.82-3.6-9.33-5.42-16.5-5.45c-6.68-0.03-11.81,1.46-15.38,4.47c-3.58,3.01-5.38,6.94-5.4,11.8c-0.02,4.32,1.9,7.92,5.75,10.82
		c3.85,2.9,10.11,5.46,18.78,7.67c10.44,2.63,18.37,6.48,23.8,11.54c5.43,5.06,8.13,11.32,8.1,18.77c-0.03,8-3.33,14.41-9.89,19.24
		c-6.56,4.84-15.11,7.23-25.65,7.19c-9.9-0.04-18.65-2.77-26.23-8.18c-7.59-5.41-11.25-12.62-10.99-21.61l0.14-0.41l12.81,0.05
		c-0.03,6.36,2.29,11.21,6.96,14.54c4.67,3.33,10.45,5.02,17.36,5.04c6.77,0.03,12.13-1.37,16.1-4.2
		C1049.8,1536.57,1051.8,1532.72,1051.81,1527.84z"/>
	<path d="M1112.82,1553.07l-13.49-0.05l0.4-99.21l13.49,0.05L1112.82,1553.07z"/>
	<path d="M1161.57,1542.7l55.46,0.22l-0.04,10.56l-70.59-0.28l0.04-10.02l53.33-78.42l-52.26-0.21l0.04-10.56l67.59,0.27l-0.04,9.61
		L1161.57,1542.7z"/>
	<path d="M1308.54,1507.86l-45.45-0.18l-0.14,35.43l52.4,0.21l-0.04,10.56l-65.82-0.26l0.4-99.21l65.07,0.26l-0.04,10.56
		l-51.65-0.21l-0.13,32.09l45.45,0.18L1308.54,1507.86z"/>
</g>
<g>
	<path d="M583.75,1861.3v-99.21h30.46c12.99,0,23.42,3.99,31.28,11.96c7.86,7.97,11.79,18.27,11.79,30.9v13.56
		c0,12.67-3.93,22.97-11.79,30.9c-7.86,7.93-18.28,11.89-31.28,11.89H583.75z M597.18,1772.65v78.09h17.03
		c9.18,0,16.41-3.02,21.7-9.05c5.29-6.04,7.94-13.78,7.94-23.22v-13.68c0-9.35-2.65-17.04-7.94-23.08
		c-5.29-6.04-12.53-9.06-21.7-9.06H597.18z"/>
	<path d="M748.5,1815.3h-45.45v35.43h52.4v10.56h-65.82v-99.21h65.07v10.56h-51.65v32.09h45.45V1815.3z"/>
	<path d="M843.81,1817.42h-45.24v43.88h-13.42v-99.21h65.62v10.56h-52.19v34.21h45.24V1817.42z"/>
	<path d="M894.56,1861.3h-13.49v-99.21h13.49V1861.3z"/>
	<path d="M1008.82,1861.3H995.4l-47.77-76.72l-0.41,0.14v76.59H933.8v-99.21h13.42l47.77,76.59l0.41-0.14v-76.45h13.42V1861.3z"/>
	<path d="M1106.18,1815.3h-45.45v35.43h52.4v10.56h-65.82v-99.21h65.07v10.56h-51.65v32.09h45.45V1815.3z"/>
</g>
<g>
	<g>
		<g>
			<polygon class="st1" points="1855.13,1282.35 2549.02,1282.35 2549.02,1308.05 2581.07,1276.01 2549.02,1243.96 2549.02,1269.66 
				1855.13,1269.66 			"/>
		</g>
	</g>
</g>
<g>
	<g>
		<g>
			<polygon class="st1" points="4602.38,1271.19 5296.27,1271.19 5296.27,1296.89 5328.32,1264.84 5296.27,1232.79 5296.27,1258.49 
				4602.38,1258.49 			"/>
		</g>
	</g>
</g>
</svg>
