<svg xmlns="http://www.w3.org/2000/svg" viewBox="0 0 235.42 225.69"><defs><style>.cls-1{isolation:isolate;}.cls-2,.cls-4{fill:#c8e3ed;}.cls-2{stroke:#1b8ece;}.cls-2,.cls-6{stroke-miterlimit:10;}.cls-2,.cls-3,.cls-6{mix-blend-mode:multiply;}.cls-5{fill:#1b8ece;}.cls-6{fill:#c8e2ec;stroke:#178ece;}.cls-7{font-size:10px;fill:#231f20;font-family:CooperHewitt-Medium, Cooper Hewitt;}.cls-8{letter-spacing:0.1em;}.cls-9{letter-spacing:0.11em;}.cls-10{letter-spacing:0.13em;}.cls-11{letter-spacing:0.1em;}.cls-12{letter-spacing:0.1em;}</style></defs><title>ideation-idea4</title><g class="cls-1"><g id="_4" data-name="4"><polygon class="cls-2" points="34.21 84.91 34.21 149.55 65.96 181.3 130.97 181.3 130.97 113.39 97.97 83.85 34.21 84.91"/><g class="cls-3"><polygon class="cls-4" points="78.19 153.17 121.38 33.23 179.53 155.78 98.71 195.12 78.19 153.17"/><path class="cls-5" d="M121.44,34.53l57.43,121L98.94,194.45,78.73,153.14,121.44,34.53m-.12-2.6-.82,2.26L77.79,152.8l-.15.4.19.38L98,194.89l.44.89.9-.43,79.93-38.91.89-.43-.43-.89-57.42-121-1-2.17Z"/></g><polygon class="cls-2" points="213.64 2.25 153.78 121.66 123.6 132.58 82.59 110.69 122.16 31.06 213.64 2.25"/><polygon class="cls-6" points="29.78 85.68 54.06 145.24 201.54 88.76 118.52 51.16 29.78 85.68"/><text class="cls-7" transform="translate(97.79 214.1)"><tspan class="cls-8">I</tspan><tspan class="cls-9" x="3.52" y="0">D</tspan><tspan class="cls-10" x="11.06" y="0">E</tspan><tspan class="cls-11" x="17.89" y="0">A</tspan><tspan class="cls-12" x="25.1" y="0"> </tspan><tspan x="28.09" y="0">4</tspan></text></g></g></svg>