<svg xmlns="http://www.w3.org/2000/svg" viewBox="0 0 235.42 225.69"><defs><style>.cls-1{isolation:isolate;}.cls-2,.cls-4{fill:#c8e3ed;}.cls-2{stroke:#1b8ece;}.cls-2,.cls-6{stroke-miterlimit:10;}.cls-2,.cls-3,.cls-6{mix-blend-mode:multiply;}.cls-5{fill:#1b8ece;}.cls-6{fill:#c8e2ec;stroke:#178ece;}.cls-7{font-size:10px;fill:#231f20;font-family:CooperHewitt-Medium, Cooper Hewitt;}.cls-8{letter-spacing:0.1em;}.cls-9{letter-spacing:0.11em;}.cls-10{letter-spacing:0.13em;}.cls-11{letter-spacing:0.1em;}.cls-12{letter-spacing:0.1em;}</style></defs><title>ideation-idea2</title><g class="cls-1"><g id="_2" data-name="2"><polygon class="cls-2" points="171.55 197.18 79.64 100.26 79.64 68.17 114.17 37.05 175.58 101.36 171.55 197.18"/><g class="cls-3"><polygon class="cls-4" points="133.41 34.2 166.12 0.88 230.4 63.72 136.53 161.64 133.41 34.2"/><path class="cls-5" d="M166.13,1.59l63.56,62.15L137,160.43l-3.09-126L166.13,1.59m0-1.42-.7.72L133.2,33.7l-.3.3v.43l3.09,126,.06,2.41,1.66-1.74,92.69-96.69.69-.72-.71-.69L166.83.87l-.71-.7Z"/></g><polygon class="cls-2" points="92.57 182.03 92.57 117.39 124.32 85.64 189.33 85.64 189.33 153.55 156.33 183.09 92.57 182.03"/><polygon class="cls-6" points="169.88 126.78 166.46 191.02 8.61 185.99 74.72 123.25 169.88 126.78"/><text class="cls-7" transform="translate(97.79 214.1)"><tspan class="cls-8">I</tspan><tspan class="cls-9" x="3.52" y="0">D</tspan><tspan class="cls-10" x="11.06" y="0">E</tspan><tspan class="cls-11" x="17.89" y="0">A</tspan><tspan class="cls-12" x="25.1" y="0"> </tspan><tspan x="28.09" y="0">2</tspan></text></g></g></svg>