<svg xmlns="http://www.w3.org/2000/svg" viewBox="0 0 235.42 225.69"><defs><style>.cls-1{isolation:isolate;}.cls-2,.cls-5,.cls-6{mix-blend-mode:multiply;}.cls-3,.cls-5{fill:#c8e3ed;}.cls-4{fill:#1b8ece;}.cls-5{stroke:#1b8ece;}.cls-5,.cls-6{stroke-miterlimit:10;}.cls-6{fill:#c8e2ec;stroke:#178ece;}.cls-7{font-size:10px;fill:#231f20;font-family:CooperHewitt-Medium, Cooper Hewitt;}.cls-8{letter-spacing:0.1em;}.cls-9{letter-spacing:0.11em;}.cls-10{letter-spacing:0.13em;}.cls-11{letter-spacing:0.1em;}.cls-12{letter-spacing:0.1em;}</style></defs><title>ideation-idea3</title><g class="cls-1"><g id="_3" data-name="3"><g class="cls-2"><polygon class="cls-3" points="3.46 56.9 49.97 52.66 146.66 135.72 11.44 146.44 3.46 56.9"/><path class="cls-4" d="M49.8,53.17l95.63,82.15L11.9,145.9,4,57.35l45.8-4.18m.33-1-.42,0L3.91,56.36l-1,.09.08,1L10.9,146l.09,1,1-.08,133.53-10.57,2.39-.19-1.82-1.57L50.45,52.41l-.32-.27Z"/></g><polygon class="cls-5" points="233.69 168.35 100.68 156.1 79.52 131.97 84.96 85.81 173.53 93.65 233.69 168.35"/><polygon class="cls-5" points="28.9 81.77 72.13 33.7 116.96 31.33 165.3 74.8 119.89 125.3 75.6 125.19 28.9 81.77"/><polygon class="cls-6" points="138.17 131.98 82.11 163.53 1.73 27.59 90.13 49.76 138.17 131.98"/><text class="cls-7" transform="translate(97.79 214.1)"><tspan class="cls-8">I</tspan><tspan class="cls-9" x="3.52" y="0">D</tspan><tspan class="cls-10" x="11.06" y="0">E</tspan><tspan class="cls-11" x="17.89" y="0">A</tspan><tspan class="cls-12" x="25.1" y="0"> </tspan><tspan x="28.09" y="0">3</tspan></text></g></g></svg>