<svg xmlns="http://www.w3.org/2000/svg" xmlns:xlink="http://www.w3.org/1999/xlink" viewBox="0 0 1326 735"><defs><style>.cls-1,.cls-10,.cls-11{fill:none;}.cls-2{font-size:36px;font-family:CooperHewitt-Medium, Cooper Hewitt;}.cls-3{clip-path:url(#clip-path);}.cls-4{fill:#00c2e5;}.cls-5{fill:#f26624;}.cls-6{fill:#0091cf;}.cls-7{fill:#0d8742;}.cls-8{fill:#00663b;}.cls-9{clip-path:url(#clip-path-2);}.cls-10{stroke:#1471b8;stroke-width:2px;}.cls-11{stroke:#faa61c;stroke-linecap:round;stroke-miterlimit:10;stroke-width:5px;}</style><clipPath id="clip-path"><rect class="cls-1" x="103" y="65.64" width="1134" height="530.43"/></clipPath><clipPath id="clip-path-2"><rect class="cls-1" x="7" y="7.52" width="1308" height="717.48"/></clipPath></defs><title>iteration-iterative_loops</title><g id="Layer_2" data-name="Layer 2"><text class="cls-2" transform="matrix(0.84, -0.54, 0.54, 0.84, 201.16, 97.67)">I</text><text class="cls-2" transform="translate(208.24 92.89) rotate(-29.36)">T</text><text class="cls-2" transform="translate(224.43 83.75) rotate(-24.68)">E</text><text class="cls-2" transform="translate(242.17 75.55) rotate(-20.06)">R</text><text class="cls-2" transform="translate(261.58 68.42) rotate(-15.57)">A</text><text class="cls-2" transform="matrix(0.98, -0.21, 0.21, 0.98, 280.91, 63.02)">T</text><text class="cls-2" transform="translate(299.31 59.27) rotate(-9.19)">I</text><text class="cls-2" transform="translate(307.78 57.69) rotate(-6.13)">O</text><text class="cls-2" transform="translate(330.79 55.19) rotate(-1.71)">N</text><text class="cls-2" transform="translate(354.48 54.69) rotate(1.22)"> </text><text class="cls-2" transform="matrix(1, 0.07, -0.07, 1, 361.36, 54.65)">1</text><text class="cls-2" transform="matrix(0.83, -0.56, 0.56, 0.83, 523.09, 110.97)">I</text><text class="cls-2" transform="matrix(0.86, -0.51, 0.51, 0.86, 530.09, 106.07)">T</text><text class="cls-2" transform="matrix(0.9, -0.43, 0.43, 0.9, 546.11, 96.65)">E</text><text class="cls-2" transform="translate(563.72 88.15) rotate(-21.04)">R</text><text class="cls-2" transform="translate(582.99 80.69) rotate(-16.56)">A</text><text class="cls-2" transform="translate(602.24 74.95) rotate(-12.84)">T</text><text class="cls-2" transform="translate(620.56 70.89) rotate(-10.17)">I</text><text class="cls-2" transform="translate(629 69.17) rotate(-7.12)">O</text><text class="cls-2" transform="translate(651.97 66.28) rotate(-2.7)">N</text><text class="cls-2" transform="translate(675.65 65.37) rotate(0.24)"> </text><text class="cls-2" transform="matrix(1, 0.05, -0.05, 1, 682.53, 65.21)">2</text><text class="cls-2" transform="matrix(0.82, -0.57, 0.57, 0.82, 840.8, 106.73)">I</text><text class="cls-2" transform="matrix(0.85, -0.52, 0.52, 0.85, 847.7, 101.68)">T</text><text class="cls-2" transform="matrix(0.89, -0.45, 0.45, 0.89, 863.52, 91.94)">E</text><text class="cls-2" transform="translate(880.94 83.07) rotate(-22.23)">R</text><text class="cls-2" transform="translate(900.06 75.21) rotate(-17.74)">A</text><text class="cls-2" transform="matrix(0.97, -0.24, 0.24, 0.97, 919.18, 69.08)">T</text><text class="cls-2" transform="translate(937.42 64.63) rotate(-11.36)">I</text><text class="cls-2" transform="translate(945.82 62.74) rotate(-8.31)">O</text><text class="cls-2" transform="translate(968.72 59.37) rotate(-3.89)">N</text><text class="cls-2" transform="translate(992.38 57.97) rotate(-0.95)"> </text><text class="cls-2" transform="translate(999.26 57.67) rotate(1.83)">3</text><g class="cls-3"><path class="cls-4" d="M666.33,81.79H665.2c-55.15.29-106.47,21.57-147.7,53.44,41.5,38.48,69.56,88.54,74.34,138.67,7,73.37-37,135.9-98.27,191.24,39.82,44.95,95.17,89.13,164,129.87,2.84-1.75,4.49-2.3,7.67-4.47,57.41-39.07,119.43-81.27,166.74-128.75-60.2-63.05-90-128.14-83.67-187.89,4.88-46,31.94-95.64,72.75-134.9-43-34.64-97.53-57.21-154.69-57.21M657.53,595l-1.08.69,2.85.36-1.77-1"/><path class="cls-5" d="M348.49,65.64h-1.13C220.6,66.3,114,177.94,103.84,273.9c-10.42,98.15,76.74,210.73,235.84,305,2.85-1.76,4.5-2.3,7.68-4.47,49.43-33.64,102.28-69.6,146.21-109.25-52.28-59-77.8-119.37-71.89-175.09,5.75-54.21,42.28-113.43,95.82-154.82-44.81-41.55-105.29-69.59-169-69.59m-8.81,513.22c-.34.21-.7.44-1.07.69l2.85.36-1.78-1"/><path class="cls-6" d="M517.5,135.23C464,176.62,427.43,235.84,421.68,290.05c-5.91,55.72,19.61,116.07,71.89,175.09,61.31-55.34,105.26-117.86,98.27-191.24C587.06,223.77,559,173.71,517.5,135.23"/><path class="cls-7" d="M992.92,65.64h-1.13C925.82,66,865.32,96.39,821,139c49.29,39.73,83.35,95.35,88.66,151.05,6.18,64.89-27.47,121.29-77.74,171.74,38.68,40.52,89.93,80.21,152.18,117.07,2.84-1.76,4.49-2.3,7.67-4.47,118.42-80.59,256.48-174.54,244.48-300.49-9.94-104.27-120.63-208.26-243.35-208.26m-8.8,513.22-1.08.69,2.85.36-1.77-1"/><path class="cls-8" d="M821,139c-40.81,39.26-67.86,88.88-72.75,134.9-6.34,59.75,23.47,124.84,83.67,187.89,50.27-50.45,83.92-106.85,77.74-171.74-5.31-55.7-39.37-111.32-88.66-151"/></g><g class="cls-9"><path class="cls-10" d="M26.46,10S9.67,10,9.67,25.21v682.1s0,15.26,16.79,15.26H1295.54s16.79,0,16.79-15.26V25.21s0-15.26-16.79-15.26Z"/></g></g><g id="Layer_1" data-name="Layer 1"><path class="cls-11" d="M164.36,648.19l22.11,7.28a3.71,3.71,0,0,1,2.36,4.68l-7.28,22.1"/><path class="cls-11" d="M540.56,394.46l22.56-5.72a3.72,3.72,0,0,1,4.51,2.68L573.35,414"/><path class="cls-11" d="M17.5,710.5c78.62-16.92,199.28-52.61,325-135,124-81.26,268.57-176,256-303-10.44-105.47-127-210.64-256-210-132.73.66-238.54,114.05-255,210-29,169,291.33,347.22,395,392.4,6,2.6,8,1.6,13.76-.6,64.55-24.57,126-48.19,171.22-77.8,124-81.26,268.57-176,256-303-10.44-105.47-127-210.64-256-210-132.73.66-244.34,113.24-255,210C398.4,411.41,543.14,558.74,812.33,663.88a23.45,23.45,0,0,0,5,1.34,11.92,11.92,0,0,0,6.35-.83c17.2-7.14,112.4-47.22,166.83-82.89,124-81.26,268.57-176,256-303-10.44-105.47-127-210.64-256-210-132.73.66-244.34,113.24-255,210-16.68,151.37,205.63,336.76,571,438"/><path class="cls-11" d="M1165.57,424.69l23.22-1.6a3.7,3.7,0,0,1,4,3.44l1.6,23.22"/><path class="cls-11" d="M865.25,401.39l22.89-4.2a3.7,3.7,0,0,1,4.31,3l4.21,22.89"/><path class="cls-11" d="M1149.28,640.87l3.47,23a3.7,3.7,0,0,1-3.11,4.21l-23,3.47"/><path class="cls-11" d="M71.2,253l13.17,19.19a3.7,3.7,0,0,0,5.15,1l19.19-13.16"/><path class="cls-11" d="M394.94,257l15.12,17.7a3.71,3.71,0,0,0,5.22.41L433,259.94"/><path class="cls-11" d="M718,257.76l14.95,17.85a3.71,3.71,0,0,0,5.22.46L756,261.13"/><path class="cls-11" d="M573.36,614.19l22.11,7.28a3.71,3.71,0,0,1,2.36,4.68l-7.28,22.1"/><path class="cls-11" d="M406.86,603.32l2.59,23.13a3.7,3.7,0,0,1-3.27,4.09l-23.13,2.59"/><path class="cls-11" d="M897.36,610.19l22.11,7.28a3.71,3.71,0,0,1,2.36,4.68l-7.28,22.1"/><path class="cls-11" d="M749.86,614.32l2.59,23.13a3.7,3.7,0,0,1-3.27,4.09l-23.13,2.59"/></g></svg>