<svg id="Layer_3" data-name="Layer 3" xmlns="http://www.w3.org/2000/svg" viewBox="0 0 323.22 296.99"><defs><style>.cls-1{fill:#c8e3ed;stroke:#008fd5;stroke-miterlimit:10;stroke-width:0.25px;}</style></defs><title>iteration-tangram1</title><polygon class="cls-1" points="274.6 292.41 119.2 291.86 197.05 213.45 274.6 292.41"/><polygon class="cls-1" points="273.56 171.84 160.36 168.95 218.3 114.08 273.56 171.84"/><polygon class="cls-1" points="160.5 171.69 273.7 174.8 215.66 229.56 160.5 171.69"/><polygon class="cls-1" points="41.42 165.33 98.43 113.27 152.61 172.61 94.94 224.64 41.42 165.33"/><polygon class="cls-1" points="194.42 213.03 113.25 211.63 34.57 290.06 112.98 290.87 194.42 213.03"/><polygon class="cls-1" points="154.14 169.58 0 3.63 159.48 9.79 154.14 169.58"/><polygon class="cls-1" points="158.25 167.89 323.22 12.71 163.69 8.11 158.25 167.89"/></svg>