<svg id="Layer_2" data-name="Layer 2" xmlns="http://www.w3.org/2000/svg" viewBox="0 0 337.59 296.47"><defs><style>.cls-1{fill:#c8e3ed;stroke:#008fd5;stroke-miterlimit:10;stroke-width:0.25px;}</style></defs><title>iterate-tangram2</title><polygon class="cls-1" points="225.75 5.67 226.14 232.16 113.29 119.31 225.75 5.67"/><polygon class="cls-1" points="284.43 292.83 57.95 291.31 171.75 179.42 284.43 292.83"/><polygon class="cls-1" points="337.59 6.92 227.08 116.16 226.92 5.67 337.59 6.92"/><polygon class="cls-1" points="227.03 231.41 226.92 118.17 283.3 174.63 227.03 231.41"/><polygon class="cls-1" points="56.26 61.62 169.5 61.16 113.2 117.72 56.26 61.62"/><polygon class="cls-1" points="59.52 175.67 114.45 121.42 170.91 178.59 115.32 232.84 59.52 175.67"/><polygon class="cls-1" points="168.77 60.22 111.06 3.11 0 5.44 56.11 60.2 168.77 60.22"/></svg>