<svg xmlns="http://www.w3.org/2000/svg" viewBox="0 0 323.22 299.72"><defs><style>.cls-1{fill:#c8e3ed;stroke:#008fd5;stroke-miterlimit:10;stroke-width:0.25px;}</style></defs><title>iterate-tangram3</title><g id="Layer_2" data-name="Layer 2"><polygon class="cls-1" points="154.14 171.34 0 5.39 159.48 11.55 154.14 171.34"/><polygon class="cls-1" points="158.25 169.65 323.22 14.47 163.69 9.87 158.25 169.65"/><polygon class="cls-1" points="102.71 226.73 215.65 119.99 213.33 230.46 102.71 226.73"/><polygon class="cls-1" points="217.62 232.67 218.75 119.43 274.51 176.51 217.62 232.67"/><polygon class="cls-1" points="152.53 290.49 39.29 290.64 95.73 234.24 152.53 290.49"/><polygon class="cls-1" points="41.63 172.06 95.79 117.03 153.06 173.4 98.25 228.43 41.63 172.06"/><polygon class="cls-1" points="266.88 293.01 211.15 233.98 100.07 232.54 154.29 289.18 266.88 293.01"/></g></svg>