<svg xmlns="http://www.w3.org/2000/svg" xmlns:xlink="http://www.w3.org/1999/xlink" viewBox="0 0 896.56 389.09"><defs><style>.cls-1,.cls-2,.cls-3{fill:none;}.cls-2,.cls-3,.cls-4,.cls-6{stroke:#1471b9;}.cls-2,.cls-3{stroke-linecap:round;stroke-width:6px;}.cls-2,.cls-4,.cls-6{stroke-miterlimit:10;}.cls-3{stroke-linejoin:round;}.cls-4,.cls-6{fill:#fff;}.cls-4{stroke-width:4px;}.cls-5{fill:#1471b9;}.cls-6{stroke-width:3px;}.cls-7{clip-path:url(#clip-path);}.cls-10,.cls-11,.cls-12,.cls-13,.cls-14,.cls-15,.cls-16,.cls-17,.cls-18,.cls-19,.cls-20,.cls-21,.cls-22,.cls-23,.cls-24,.cls-25,.cls-26,.cls-27,.cls-28,.cls-29,.cls-8,.cls-9{isolation:isolate;}.cls-10,.cls-11,.cls-12,.cls-13,.cls-14,.cls-15,.cls-16,.cls-27,.cls-28,.cls-29,.cls-9{font-size:11.24px;}.cls-10,.cls-11,.cls-12,.cls-13,.cls-14,.cls-15,.cls-16,.cls-17,.cls-18,.cls-19,.cls-20,.cls-21,.cls-22,.cls-23,.cls-24,.cls-25,.cls-26,.cls-27,.cls-28,.cls-29,.cls-9{fill:#231f20;font-family:CooperHewitt-Medium, Cooper Hewitt;}.cls-9{letter-spacing:0.11em;}.cls-10{letter-spacing:0.1em;}.cls-11{letter-spacing:0.11em;}.cls-13{letter-spacing:0.09em;}.cls-14{letter-spacing:0.04em;}.cls-15{letter-spacing:0.12em;}.cls-16{letter-spacing:0.1em;}.cls-17,.cls-18,.cls-19,.cls-20,.cls-21,.cls-22,.cls-23,.cls-24,.cls-25,.cls-26{font-size:22.45px;}.cls-17{letter-spacing:0.09em;}.cls-18{letter-spacing:0.09em;}.cls-19{letter-spacing:0.1em;}.cls-20{letter-spacing:0.1em;}.cls-21{letter-spacing:0.1em;}.cls-23{letter-spacing:0.11em;}.cls-24{letter-spacing:0.08em;}.cls-25{letter-spacing:0.13em;}.cls-26{letter-spacing:0.08em;}.cls-27{letter-spacing:0.09em;}.cls-28{letter-spacing:0.04em;}.cls-29{letter-spacing:0.1em;}</style><clipPath id="clip-path"><rect class="cls-1" x="-9.17" y="-7.04" width="905.73" height="413.78"/></clipPath></defs><title>productsservices-diagram</title><g id="Layer_1" data-name="Layer 1"><line class="cls-2" x1="10.36" y1="228.82" x2="873.89" y2="228.82"/><polyline class="cls-3" points="817.93 190.44 873.89 228.82 815.93 264.2"/><line class="cls-2" x1="442.13" y1="278.82" x2="442.13" y2="228.82"/><line class="cls-2" x1="732.36" y1="278.82" x2="732.36" y2="228.82"/><line class="cls-2" x1="585.86" y1="228.32" x2="585.86" y2="178.32"/><line class="cls-2" x1="154.36" y1="279.57" x2="154.36" y2="229.57"/><line class="cls-2" x1="298.36" y1="228.07" x2="298.36" y2="178.07"/><path class="cls-4" d="M169.36,376h-30a2.41,2.41,0,0,1-2.4-2.4l-7.59-55.2a2.41,2.41,0,0,1,2.4-2.4H177a2.41,2.41,0,0,1,2.4,2.4l-7.6,55.2A2.41,2.41,0,0,1,169.36,376Z"/><path class="cls-5" d="M134,357.1l-3.43-25a2.72,2.72,0,0,1,2.69-3.08H175.8a2.71,2.71,0,0,1,2.69,3.08l-3.43,25a2.72,2.72,0,0,1-2.69,2.34H136.69A2.72,2.72,0,0,1,134,357.1Z"/><path class="cls-4" d="M180.08,316H127.64c-1.26,0-2.28-1.56-2.28-3.47,0,0,5.24-18.2,6.5-18.2h44.5c1.25,0,6,18.2,6,18.2C182.36,314.44,181.33,316,180.08,316Z"/><rect class="cls-6" x="124.36" y="305.65" width="60" height="12.35" rx="3.5" ry="3.5"/><path class="cls-4" d="M313.36,160.3h-30a2.41,2.41,0,0,1-2.4-2.4l-7.59-55.2a2.41,2.41,0,0,1,2.4-2.4H321a2.41,2.41,0,0,1,2.4,2.4l-7.6,55.2A2.41,2.41,0,0,1,313.36,160.3Z"/><path class="cls-5" d="M278,141.4l-3.43-25a2.73,2.73,0,0,1,2.69-3.09H319.8a2.72,2.72,0,0,1,2.69,3.09l-3.43,25a2.72,2.72,0,0,1-2.69,2.35H280.69A2.72,2.72,0,0,1,278,141.4Z"/><path class="cls-4" d="M324.08,100.3H271.64c-1.26,0-2.28-1.56-2.28-3.46,0,0,5.24-18.2,6.5-18.2h44.5c1.25,0,6,18.2,6,18.2C326.36,98.74,325.33,100.3,324.08,100.3Z"/><rect class="cls-6" x="268.36" y="89.96" width="60" height="12.35" rx="3.5" ry="3.5"/><path class="cls-4" d="M457.13,376h-30a2.41,2.41,0,0,1-2.4-2.4l-7.59-55.2a2.41,2.41,0,0,1,2.4-2.4h45.19a2.41,2.41,0,0,1,2.4,2.4l-7.6,55.2A2.41,2.41,0,0,1,457.13,376Z"/><path class="cls-5" d="M421.77,357.1l-3.43-25a2.71,2.71,0,0,1,2.69-3.08h42.54a2.72,2.72,0,0,1,2.69,3.08l-3.44,25a2.71,2.71,0,0,1-2.69,2.34H424.46A2.71,2.71,0,0,1,421.77,357.1Z"/><path class="cls-4" d="M467.85,316H415.41c-1.26,0-2.28-1.56-2.28-3.47,0,0,5.24-18.2,6.5-18.2h44.5c1.25,0,6,18.2,6,18.2C470.13,314.44,469.1,316,467.85,316Z"/><rect class="cls-6" x="412.13" y="305.65" width="60" height="12.35" rx="3.5" ry="3.5"/><path class="cls-4" d="M600.86,169.39h-30a2.41,2.41,0,0,1-2.4-2.4l-7.59-55.2a2.41,2.41,0,0,1,2.4-2.4h45.19a2.41,2.41,0,0,1,2.4,2.4l-7.6,55.2A2.41,2.41,0,0,1,600.86,169.39Z"/><path class="cls-5" d="M565.5,150.48l-3.43-24.95a2.72,2.72,0,0,1,2.69-3.08H607.3a2.71,2.71,0,0,1,2.69,3.08l-3.43,25a2.72,2.72,0,0,1-2.69,2.34H568.19A2.72,2.72,0,0,1,565.5,150.48Z"/><path class="cls-4" d="M611.58,109.39H559.14c-1.26,0-2.28-1.56-2.28-3.47,0,0,5.24-18.2,6.5-18.2h44.5c1.25,0,6,18.2,6,18.2C613.86,107.83,612.83,109.39,611.58,109.39Z"/><rect class="cls-6" x="555.86" y="99.04" width="60" height="12.35" rx="3.5" ry="3.5"/><path class="cls-4" d="M747.36,376h-30a2.41,2.41,0,0,1-2.4-2.4l-7.59-55.2a2.41,2.41,0,0,1,2.4-2.4H755a2.41,2.41,0,0,1,2.4,2.4l-7.6,55.2A2.41,2.41,0,0,1,747.36,376Z"/><path class="cls-5" d="M712,357.1l-3.43-25a2.72,2.72,0,0,1,2.69-3.08H753.8a2.71,2.71,0,0,1,2.69,3.08l-3.43,25a2.72,2.72,0,0,1-2.69,2.34H714.69A2.72,2.72,0,0,1,712,357.1Z"/><path class="cls-4" d="M758.08,316H705.64c-1.26,0-2.28-1.56-2.28-3.47,0,0,5.24-18.2,6.5-18.2h44.5c1.25,0,6,18.2,6,18.2C760.36,314.44,759.33,316,758.08,316Z"/><rect class="cls-6" x="702.36" y="305.65" width="60" height="12.35" rx="3.5" ry="3.5"/></g><g id="Layer_3" data-name="Layer 3"><g class="cls-7"><g class="cls-8"><text class="cls-9" transform="translate(25.04 210.18)">T</text><text class="cls-10" transform="translate(32.25 210.18)">I</text><text class="cls-11" transform="translate(36.19 210.18)">M</text><text class="cls-12" transform="translate(46.69 210.18)">E</text></g><g class="cls-8"><text class="cls-11" transform="translate(49.46 343.45)">M</text><text class="cls-9" transform="translate(59.98 343.45)">ON</text><text class="cls-13" transform="translate(77.27 343.45)">D</text><text class="cls-14" transform="translate(85.52 343.45)">A</text><text class="cls-12" transform="translate(92.91 343.45)">Y</text></g><g class="cls-8"><text class="cls-15" transform="translate(197.05 126.74)">T</text><text class="cls-11" transform="translate(204.31 126.74)">U</text><text class="cls-16" transform="translate(212.8 126.74)">E</text><text class="cls-9" transform="translate(220.23 126.74)">S</text><text class="cls-13" transform="translate(228.33 126.74)">D</text><text class="cls-14" transform="translate(236.58 126.74)">A</text><text class="cls-12" transform="translate(243.97 126.74)">Y</text></g><g class="cls-8"><text class="cls-9" transform="translate(320.98 340.03)">W</text><text class="cls-9" transform="translate(332.43 340.03)">E</text><text class="cls-11" transform="translate(339.86 340.03)">DN</text><text class="cls-16" transform="translate(357.04 340.03)">E</text><text class="cls-9" transform="translate(364.47 340.03)">S</text><text class="cls-13" transform="translate(372.57 340.03)">D</text><text class="cls-14" transform="translate(380.83 340.03)">A</text><text class="cls-12" transform="translate(388.21 340.03)">Y</text></g><g class="cls-8"><text class="cls-17" transform="translate(369.57 26.65)">P</text><text class="cls-18" transform="translate(384.83 26.65)">R</text><text class="cls-19" transform="translate(400.41 26.65)">OD</text><text class="cls-20" transform="translate(434.01 26.65)">U</text><text class="cls-21" transform="translate(450.72 26.65)">C</text><text class="cls-22" transform="translate(467.07 26.65)">T</text></g><g class="cls-8"><text class="cls-17" transform="translate(369.57 53.61)">I</text><text class="cls-20" transform="translate(377.21 53.61)">N</text><text class="cls-20" transform="translate(394.5 53.61)">T</text><text class="cls-17" transform="translate(408.7 53.61)">E</text><text class="cls-23" transform="translate(423.3 53.61)">R</text><text class="cls-24" transform="translate(439.2 53.61)">A</text><text class="cls-21" transform="translate(454.88 53.61)">C</text><text class="cls-21" transform="translate(471.23 53.61)">T</text><text class="cls-18" transform="translate(485.39 53.61)">I</text><text class="cls-21" transform="translate(493.08 53.61)">O</text><text class="cls-21" transform="translate(509.98 53.61)">N</text><text class="cls-22" transform="translate(527.14 53.61)">S</text></g><g class="cls-8"><text class="cls-19" transform="translate(369.57 80.55)">S</text><text class="cls-17" transform="translate(385.47 80.55)">I</text><text class="cls-20" transform="translate(393.11 80.55)">N</text><text class="cls-19" transform="translate(410.25 80.55)">GU</text><text class="cls-25" transform="translate(443.86 80.55)">L</text><text class="cls-21" transform="translate(457.99 80.55)">A</text><text class="cls-20" transform="translate(474.22 80.55)">R</text><text class="cls-22" transform="translate(489.81 80.55)">.</text></g><g class="cls-8"><text class="cls-20" transform="translate(719.99 121)">S</text><text class="cls-18" transform="translate(735.91 121)">E</text><text class="cls-18" transform="translate(750.53 121)">R</text><text class="cls-20" transform="translate(765.93 121)">V</text><text class="cls-18" transform="translate(782.11 121)">I</text><text class="cls-20" transform="translate(789.8 121)">C</text><text class="cls-22" transform="translate(806.09 121)">E</text></g><g class="cls-8"><text class="cls-18" transform="translate(719.99 147.96)">I</text><text class="cls-21" transform="translate(727.64 147.96)">N</text><text class="cls-21" transform="translate(744.93 147.96)">T</text><text class="cls-18" transform="translate(759.13 147.96)">E</text><text class="cls-23" transform="translate(773.72 147.96)">R</text><text class="cls-26" transform="translate(789.62 147.96)">A</text><text class="cls-21" transform="translate(805.33 147.96)">C</text><text class="cls-21" transform="translate(821.68 147.96)">T</text><text class="cls-18" transform="translate(835.84 147.96)">I</text><text class="cls-21" transform="translate(843.53 147.96)">ON</text><text class="cls-20" transform="translate(877.57 147.96)">S </text></g><g class="cls-8"><text class="cls-20" transform="translate(719.99 174.9)">ONG</text><text class="cls-18" transform="translate(770.91 174.9)">O</text><text class="cls-18" transform="translate(787.79 174.9)">I</text><text class="cls-21" transform="translate(795.42 174.9)">N</text><text class="cls-20" transform="translate(812.55 174.9)">G</text><text class="cls-22" transform="translate(829.46 174.9)">.</text></g><g class="cls-8"><text class="cls-9" transform="translate(487.74 126.74)">T</text><text class="cls-9" transform="translate(494.97 126.74)">HUR</text><text class="cls-9" transform="translate(519.89 126.74)">S</text><text class="cls-27" transform="translate(527.99 126.74)">D</text><text class="cls-28" transform="translate(536.24 126.74)">A</text><text class="cls-12" transform="translate(543.63 126.74)">Y</text></g><g class="cls-8"><text class="cls-9" transform="translate(627.74 343.45)">F</text><text class="cls-29" transform="translate(634.92 343.45)">R</text><text class="cls-16" transform="translate(642.79 343.45)">I</text><text class="cls-27" transform="translate(646.75 343.45)">D</text><text class="cls-28" transform="translate(655.01 343.45)">A</text><text class="cls-12" transform="translate(662.39 343.45)">Y</text></g></g></g></svg>