<svg xmlns="http://www.w3.org/2000/svg" viewBox="0 0 85.7 64.4"><defs><style>.cls-1{fill:#c7e2ec;}.cls-2{fill:#008ed3;}</style></defs><title>products-spectrum02</title><g id="Layer_1" data-name="Layer 1"><polygon class="cls-1" points="35.3 20.27 48.97 34.22 35.2 34.05 35.3 20.27"/><path class="cls-2" d="M49.08,34.27l-13.93-.18.11-13.92ZM35.24,34l13.63.17L35.34,20.38Z"/><polygon class="cls-1" points="49.39 34.12 35.71 20.14 49.49 20.31 49.39 34.12"/><path class="cls-2" d="M49.43,34.22,35.61,20.09h.1l13.82.18Zm-13.61-14L49.34,34l.11-13.66Z"/><polygon class="cls-1" points="48.94 19.82 35.54 19.79 42.24 13.02 48.94 19.82"/><path class="cls-2" d="M49,19.87h-.1l-13.5,0L42.24,13l0,0Zm-13.4-.12,13.19,0-6.59-6.7Z"/><polygon class="cls-1" points="28.15 26.87 35.06 19.93 35.06 26.83 28.15 26.87"/><path class="cls-2" d="M28.05,26.91l7.05-7.09v7.06h0ZM35,20l-6.75,6.79,6.75,0Z"/><polygon class="cls-1" points="49.7 27.35 56.5 34.4 49.63 34.26 49.7 27.35"/><path class="cls-2" d="M56.6,34.44h-.1l-6.92-.14v0l.07-7,.08.07Zm-6.93-.23,6.72.14-6.65-6.89Z"/><polygon class="cls-1" points="28.22 27.07 34.88 27.11 34.81 34.05 28.12 33.95 28.22 27.07"/><path class="cls-2" d="M34.86,34.09,28.07,34l.11-7h0l6.71,0v0Zm-6.7-.19,6.61.11.07-6.86-6.58,0Z"/><polygon class="cls-1" points="49.87 20.07 49.73 27.07 56.46 33.88 56.57 27.11 49.87 20.07"/><path class="cls-2" d="M56.51,34l-.08-.07-6.74-6.82v0L49.83,20l6.78,7.13v0Zm-6.74-6.92,6.65,6.71.1-6.64-6.61-7Z"/></g><g id="Layer_2" data-name="Layer 2"><path class="cls-1" d="M76.87,48.07H8.29V5.76A4.82,4.82,0,0,1,13.11.94H72.05a4.82,4.82,0,0,1,4.82,4.82ZM13.65,42.71H71.51V6.3H13.65Z"/><path class="cls-1" d="M53.93,50v1.4a2.47,2.47,0,0,1-2.46,2.46H33.7a2.47,2.47,0,0,1-2.46-2.46V50H4.77a61.15,61.15,0,0,0,0,7.29c.56,3.64,2.74,6.11,6.1,6.11h65c2.51,0,4-1.93,4.56-6.13a62,62,0,0,0,0-7.27Z"/></g></svg>