<svg xmlns="http://www.w3.org/2000/svg" viewBox="0 0 145.55 454.32"><defs><style>.cls-1,.cls-2{fill:none;stroke-miterlimit:10;}.cls-1{stroke:#f9a61c;stroke-linecap:round;stroke-width:5px;}.cls-2{stroke:#c8e3ed;stroke-width:4px;}.cls-3{fill:#c8e3ed;}.cls-4{fill:#008fd5;}.cls-5{font-size:14px;fill:#faa61c;font-family:CooperHewitt-Medium, Cooper Hewitt;}.cls-6{letter-spacing:0.11em;}.cls-7{letter-spacing:0.1em;}.cls-8{letter-spacing:0.1em;}.cls-9{letter-spacing:0.11em;}.cls-10{letter-spacing:0.11em;}.cls-11{letter-spacing:0.11em;}</style></defs><title>Artboard 1</title><g id="Layer_2" data-name="Layer 2"><path class="cls-1" d="M38.66,25,56.23,6.13a4.1,4.1,0,0,1,5.8-.2L80.9,23.5"/><polyline class="cls-1" points="59.78 5.65 59.78 4.57 59 449.83"/></g><g id="Layer_3" data-name="Layer 3"><rect class="cls-2" x="38.66" y="340.52" width="41.68" height="101.48" rx="12" ry="12"/><rect class="cls-2" x="37.7" y="225.32" width="41.68" height="101.48" rx="12" ry="12"/><rect class="cls-2" x="37.86" y="87.97" width="41.68" height="101.48" rx="12" ry="12"/><polygon class="cls-3" points="103.75 186.99 72.09 156.4 103.11 155.92 103.75 186.99"/><path class="cls-4" d="M103.85,187.22l-.17-.16L71.85,156.3h.24l31.11-.48v.1ZM72.33,156.49l31.32,30.26L103,156Z"/><polygon class="cls-3" points="101.65 91.88 71.59 124.04 102.59 122.94 101.65 91.88"/><path class="cls-4" d="M71.36,124.15l.16-.17,30.22-32.34v.24l.94,31.16Zm30.2-32L71.83,123.94l30.66-1.09Z"/><polygon class="cls-3" points="102.52 155.22 72.32 155.78 87.12 140.21 102.52 155.22"/><path class="cls-4" d="M72.09,155.88l.16-.17,14.86-15.64.07.07,15.58,15.17h-.24Zm15-15.54L72.55,155.67l29.74-.54Z"/><polygon class="cls-3" points="87.12 139.61 72.03 155.63 71.59 140.12 87.12 139.61"/><path class="cls-4" d="M71.94,155.87v-.24L71.5,140h.09l15.77-.52Zm-.25-15.65.43,15.17,14.77-15.67Z"/><polygon class="cls-3" points="103.06 139.61 87.37 124.18 102.88 124.08 103.06 139.61"/><path class="cls-4" d="M103.16,139.85l-.17-.17-15.86-15.6L103,124v.09ZM87.6,124.27,103,139.38l-.18-15.21Z"/><polygon class="cls-3" points="71.44 139.69 71.11 124.68 86.72 124.34 86.97 139.43 71.44 139.69"/><path class="cls-4" d="M71.35,139.78v-.09L71,124.59h.09l15.72-.35.25,15.29H87Zm-.14-15,.33,14.81,15.33-.25-.24-14.9Z"/><polygon class="cls-3" points="87.42 124.46 87.69 140.24 103.45 155 103.09 139.76 87.42 124.46"/><path class="cls-4" d="M103.56,155.23l-.17-.16L87.6,140.28v0l-.27-16,.17.17,15.69,15.33v0Zm-15.77-15,15.56,14.58-.36-15L87.52,124.69Z"/><text class="cls-5" transform="translate(72.98 58.58)"><tspan class="cls-6">S</tspan><tspan class="cls-7" x="10.08" y="0">E</tspan><tspan class="cls-8" x="19.35" y="0">R</tspan><tspan class="cls-9" x="29.12" y="0">V</tspan><tspan class="cls-10" x="39.37" y="0">I</tspan><tspan class="cls-11" x="44.32" y="0">C</tspan><tspan x="54.66" y="0">E</tspan></text><polygon class="cls-3" points="11.82 214.17 45.3 247.85 11.84 247.69 11.82 214.17"/><path class="cls-4" d="M45.6,248h-.3l-33.59-.17V213.86ZM12,247.57l33,.16L12,214.47Z"/><polygon class="cls-3" points="45.2 248.65 11.59 282.2 11.68 248.74 45.2 248.65"/><path class="cls-4" d="M11.46,282.5v-.3l.09-33.59h.12l33.83-.09-.21.22Zm.34-33.64-.09,33,33.18-33.13Z"/><polygon class="cls-3" points="28.1 267.18 27.57 299.76 11.34 283.23 28.1 267.18"/><path class="cls-4" d="M27.69,300.06l-.21-.21L11.16,283.22l.09-.08,17-16.26ZM11.51,283.23l15.94,16.23.52-32Z"/><polygon class="cls-3" points="44.1 317.99 27.52 301 44.25 301.23 44.1 317.99"/><path class="cls-4" d="M44.23,318.3l-.21-.22-16.8-17.21h.3l16.86.24ZM27.82,301.13,44,317.69l.15-16.33Z"/><polygon class="cls-3" points="28.31 283.13 45.78 267.06 45.05 283.77 28.31 283.13"/><path class="cls-4" d="M45.17,283.9h-.12l-17-.65,17.92-16.49ZM28.61,283l16.33.62.7-16.29Z"/><polygon class="cls-3" points="44.49 300.8 28.31 300.54 28.58 283.69 44.86 284.05 44.49 300.8"/><path class="cls-4" d="M44.61,300.92l-16.43-.26.27-17.1h.13l16.41.36v.12Zm-16.18-.51,15.94.26.36-16.5-16-.35Z"/><polygon class="cls-3" points="45.49 249.01 45.44 266.04 28.66 282.2 28.83 265.76 45.49 249.01"/><path class="cls-4" d="M28.54,282.5l.16-16.79,0,0,16.87-17,0,17.38,0,0ZM29,265.81l-.16,16.09L45.31,266l0-16.66Z"/><polygon class="cls-3" points="106.14 394.21 72.05 427.6 72.46 393.98 106.14 394.21"/><path class="cls-4" d="M71.92,427.9v-.3l.41-33.74h.12l34,.23-.21.21Zm.66-33.79-.4,33.19,33.65-33Z"/><polygon class="cls-3" points="73 359.67 106.28 393.85 72.67 393.35 73 359.67"/><path class="cls-4" d="M106.58,394h-.3l-33.74-.51v-.12l.34-34Zm-33.79-.76,33.19.5L73.12,360Z"/><polygon class="cls-3" points="90.07 376.58 122.81 376.66 106.43 393.2 90.07 376.58"/><path class="cls-4" d="M106.43,393.38l-.09-.09L89.77,376.45h.3l33,.08ZM90.37,376.71,106.43,393l16.08-16.24Z"/><polygon class="cls-3" points="123.71 359.12 106.93 376.08 106.87 359.27 123.71 359.12"/><path class="cls-4" d="M106.81,376.38l-.07-17.23h.13L124,359l-.21.21Zm.18-17,.07,16.39,16.34-16.54Z"/><polygon class="cls-3" points="89.83 376.23 73.09 359.23 89.9 359.39 89.83 376.23"/><path class="cls-4" d="M90,376.53l-.21-.21L72.79,359.1l17.24.17v.12ZM73.39,359.36,89.7,375.93l.08-16.41Z"/><polygon class="cls-3" points="90.25 359.28 106.51 359.15 106.65 376.07 90.29 376.11 90.25 359.28"/><path class="cls-4" d="M90.17,376.24v-.13l0-16.95,16.52-.14.14,17.18h-.13Zm.2-16.83,0,16.58,16.11,0-.14-16.68Z"/><polygon class="cls-3" points="107.2 376.23 124.3 376.09 140.45 359.15 123.94 359.4 107.2 376.23"/><path class="cls-4" d="M106.9,376.35l.21-.21,16.78-16.87h0l16.81-.25-.21.22-16.18,17h-.06ZM124,359.52,107.5,376.1l16.75-.14,15.91-16.68Z"/></g></svg>