<svg id="Layer_1" data-name="Layer 1" xmlns="http://www.w3.org/2000/svg" xmlns:xlink="http://www.w3.org/1999/xlink" viewBox="0 0 210.06 42.5"><defs><style>.cls-1{fill:none;}.cls-2{clip-path:url(#clip-path);}.cls-3{fill:#215494;}.cls-4{fill:#fff;}.cls-5{clip-path:url(#clip-path-12);}</style><clipPath id="clip-path" transform="translate(-4 -3.31)"><rect class="cls-1" x="4" y="3.31" width="42.5" height="42.5"/></clipPath><clipPath id="clip-path-12" transform="translate(-4 -3.31)"><rect class="cls-1" x="57" y="20.75" width="157.06" height="7.61"/></clipPath></defs><title>VEO_logo</title><g class="cls-2"><path class="cls-3" d="M30.34,27.44A1.82,1.82,0,0,0,31,29a1.58,1.58,0,0,1,.5,1,5.17,5.17,0,0,0,.57,0c.58,0,.38.65-.08.74.07.27-.27.38-.42.41,0,0,0,.29-.46.29,0,.14-.29.28-.6.19,0,0-.1.3-.58.22a.55.55,0,0,1-.67,0s-.33.37-.77-.12S27.56,30.34,27,30l-1.47,1.12a.57.57,0,0,0-.06-.27l.95-.7a.91.91,0,0,1-.08-.58,1.54,1.54,0,0,1,.77.31c.41-.06.49-.43.5-.87,0-.27.14-.56.46-.52a14.6,14.6,0,0,1-2-2l-.59-.56a5.1,5.1,0,0,0-.8-.58,2.43,2.43,0,0,1,.37.16c-.42-.42-.79-.8-1-1-.65-.76-2.2-1-3.53-1l0,0A2.68,2.68,0,0,0,18.26,25c0,.05.12.18.09.26.51-.92,1.63-1.61,3.86-1.36a1.74,1.74,0,0,1-.13.37A1.43,1.43,0,0,1,21.77,26c-.29.29-.56.29-.68.64a2.16,2.16,0,0,0-1.24-.17s-.08.11-.12.16a2.1,2.1,0,0,1,1.63.71,3,3,0,0,0,1.81,1.14s.25.08.34.61a1.44,1.44,0,0,0,.19.6c-.18.16-.52.48-.66.49-.47,0-.52,0-.78.29s-.65.66-.63.88a.64.64,0,0,0,.05.19h0c-.53.33-.89.71-.62.9s1,.29.89.88c-.25.08-.51.16-.78.22a.86.86,0,0,0-.55-.52c-.26-.08.09-.54-.43-1.07s.26-.76.82-.93-.12-.72,1.53-1l-.76-.8c-1.95.42-1.13,1.17-2.3,1.67-.62.27-.36,1,.19,1.47a.93.93,0,0,1,.33.88c0,.14.52.12.54.47l-.72.11c-.12-.47-.55-.46-.59-.64-.13-.62-.57-.92-.61-1.13s.1-.27.11-1.09.43-.48.57-1,.61-1.14,1.8-1.41l-.82-.86c-.36.16-1.3.57-1.47,1.08s-.93.26-.75,1.93c-1.05-1.42-.41-1.37-.4-2.16s.79-.84.79-.84a1.46,1.46,0,0,1-.21-1.76,1.33,1.33,0,0,1,0-.37l-5.56-5.8c-.12.73.1,1.27,0,2.1a6.44,6.44,0,0,0-.28,2.35c.51,3-1,2.19,1.34,6.94.66,1.33.88.67,2.13,2.57a3.32,3.32,0,0,0,3.35,1.2,3,3,0,0,0,2.56-.42c-.6.48-.61.35-.93.82-.51.72-.16,1.74-.29,2.42.26-.16,1.33-.8,1.58-.89,0,0,0-.19.05-.66a.42.42,0,0,1,.51-.44c.22,0,.39.14.37.54s-.19,2-.19,2a2.31,2.31,0,0,1-.85-.09v.14c0,.23.86.29,1.11.18,0,0,.07-.76.07-1a1.34,1.34,0,0,0,.73.67,1.85,1.85,0,0,1,1-.76s0-.09,0-.23c0-.71,1.09-1.4,1.19-1.81l.28.37c-.12,1.14-1.44,1.16-1.79,2.87a2.39,2.39,0,0,1,.59.63c.49-1.4,1.84-1.81,2.08-3.65a7.6,7.6,0,0,1-1.39-1.74c.11,1.19.06,1-.88,1.85,0-.8.09-1,.17-1.07a1.39,1.39,0,0,0,.3-1.51c-.19-.36-.35-.71-.48-1a35.42,35.42,0,0,0,2.29,3c.94.91,2.74.36,3.64.6s4.05-1,4.62-3.16A9,9,0,0,1,36.88,30a5,5,0,0,0,.58-2.53c.07-4.43.84-3.15.88-6.13Z" transform="translate(-4 -3.31)"/><path class="cls-3" d="M19.2,27.75a1.18,1.18,0,0,1-.79-1.65c.49.3.76.17,1.26-.11s.83-.23.88,0a2.1,2.1,0,0,0-1.09,1.43,1,1,0,0,1,.37-1.23,1,1,0,0,0-.63,1.56" transform="translate(-4 -3.31)"/><path class="cls-3" d="M19.85,25.48a.8.8,0,0,1,.29-.18c-.67-.13-.76.61-1.19.66a.52.52,0,0,0,.62-.17c.19,0,.44-.11.29-.31Z" transform="translate(-4 -3.31)"/><path class="cls-3" d="M12.64,19.12c.12-.1.31,0,.38-.09s-.11-.29-.41-.31-.54-.36-.62-.3.23.38.25.66.13.51.29.42,0-.28.11-.38" transform="translate(-4 -3.31)"/><path class="cls-3" d="M38.47,20.83c-.1-.12-.31,0-.36-.15s.16-.27.46-.24.58-.28.65-.2-.28.34-.34.61-.21.48-.36.37.06-.27-.05-.39" transform="translate(-4 -3.31)"/></g><polygon class="cls-3" points="17.23 22.91 14.14 19.68 14.35 19.59 17.46 22.83 17.23 22.91"/><polygon class="cls-3" points="5.86 24.38 0 18.27 0.15 18.11 5.95 24.16 5.86 24.38"/><polygon class="cls-3" points="22.31 25.25 32.63 17.42 32.5 17.25 22.11 25.12 22.31 25.25"/><g class="cls-2"><path class="cls-4" d="M19.46,27.42a1,1,0,0,1,.37-1.23,1.07,1.07,0,0,0-.75.71,1,1,0,0,0,.38.52" transform="translate(-4 -3.31)"/><path class="cls-3" d="M31,29.92c-.25-.79-1.11-.75-1.41-1.85,0-.05-.05,0-.05,0l-1,.72s0,0,0,0A8.9,8.9,0,0,0,31,30c.06,0,.07,0,0,0" transform="translate(-4 -3.31)"/><path class="cls-4" d="M14.86,30.69a3.09,3.09,0,0,1,1,.24,9.26,9.26,0,0,1,.73,1.29c.59,1.94,2,1.13,2.23,1.74-.84.39-1.87.32-2.79-1.39-.52-.95-.91-1.15-1.17-1.88" transform="translate(-4 -3.31)"/><path class="cls-4" d="M17,31.14c.14.33.16.82.26,1a6.23,6.23,0,0,0,1.35,1.25A2.54,2.54,0,0,0,17,31.14" transform="translate(-4 -3.31)"/><path class="cls-4" d="M14,22.8a1.61,1.61,0,0,0-.11.38,1.88,1.88,0,0,0-.33-.05c0,.08.31.3.27.35a.47.47,0,0,0-.06.42s.14-.23.25-.25a.52.52,0,0,0,.23.2l0-.32a.58.58,0,0,1,.2-.23.55.55,0,0,0-.29-.12Z" transform="translate(-4 -3.31)"/><path class="cls-4" d="M13.36,24.67a1.69,1.69,0,0,0,0,.39,2.36,2.36,0,0,0-.34-.14l.26.41a3.08,3.08,0,0,0,0,.45s.12-.15.2-.17l.21.24a3.24,3.24,0,0,0-.06-.4.33.33,0,0,1,.21-.07l-.31-.2a3.64,3.64,0,0,1-.15-.51" transform="translate(-4 -3.31)"/><path class="cls-4" d="M13.75,26.41v.27l-.34.1s0,.06.22.07c0,0,.09,0,.11.07a4.83,4.83,0,0,0,0,.55s.11-.26.18-.29a.61.61,0,0,0,.23.18s0-.2-.05-.27a.18.18,0,0,1,.18-.07s0,0,0-.1a2.91,2.91,0,0,0-.27-.2,2.13,2.13,0,0,0-.22-.31" transform="translate(-4 -3.31)"/><path class="cls-4" d="M13.89,28.46l.36.07.14.51a.92.92,0,0,0,.14-.3,2.67,2.67,0,0,0,.29.09,1.51,1.51,0,0,0-.23-.4.92.92,0,0,1,.09-.36c-.14-.06-.2.09-.3.09l-.23-.32,0,.39s-.25.14-.29.23" transform="translate(-4 -3.31)"/><path class="cls-4" d="M15.31,29l-.06.31h-.32l.3.2a1.19,1.19,0,0,0-.07.29,1.67,1.67,0,0,1,.26-.17s.05,0,.16.12a.38.38,0,0,0,.19.11.46.46,0,0,1-.06-.16.76.76,0,0,0-.09-.17s.11-.13.21-.13,0,0-.37-.08Z" transform="translate(-4 -3.31)"/><path class="cls-4" d="M16.09,29.78l0,.18-.18,0a.63.63,0,0,0,.22.16,1.55,1.55,0,0,0,.1.33s0-.17.05-.19l.22.18c0-.07-.15-.22-.16-.26s.11,0,.11,0a1.17,1.17,0,0,0-.21-.12s-.18-.24-.19-.21" transform="translate(-4 -3.31)"/><path class="cls-4" d="M16.52,29.25h-.29a1.45,1.45,0,0,0,.28.27,1,1,0,0,0,0,.37s.17-.23.22-.21l.27.1-.13-.25a1.11,1.11,0,0,0,.13-.2,1,1,0,0,0-.28-.08L16.58,29Z" transform="translate(-4 -3.31)"/><path class="cls-4" d="M17,28.84s-.06-.18-.09-.2a.64.64,0,0,0,0-.24l-.08.12a.82.82,0,0,0-.23-.2s.08.15.12.24l-.06.05.18.06s.11.17.15.17" transform="translate(-4 -3.31)"/><path class="cls-4" d="M16.31,27.52a2.7,2.7,0,0,0,.52.59s0-.19,0-.25l.14,0a.73.73,0,0,1,.16,0,.63.63,0,0,0-.31-.1l-.05-.22-.11.16a.63.63,0,0,1-.33-.1" transform="translate(-4 -3.31)"/><path class="cls-4" d="M17.08,26.87a1.12,1.12,0,0,0-.08-.42.43.43,0,0,0,.16-.21h-.31a1.76,1.76,0,0,0-.2-.27,1.38,1.38,0,0,1,0,.31h-.28a1.64,1.64,0,0,0,.26.23,1.55,1.55,0,0,0-.06.41l.28-.24a.66.66,0,0,1,.27.18" transform="translate(-4 -3.31)"/><path class="cls-4" d="M16.86,25.53a1.29,1.29,0,0,0-.28-.33l.12-.39-.33.17a.92.92,0,0,0-.23-.18l0,.32a2.7,2.7,0,0,0-.22.21l.25.08.05.37a1.92,1.92,0,0,1,.2-.33,1.64,1.64,0,0,1,.4.08" transform="translate(-4 -3.31)"/><path class="cls-4" d="M15.32,23.77a2.26,2.26,0,0,1,.11.34,3.46,3.46,0,0,1-.23.31,1.8,1.8,0,0,0,.29,0s.08.27.11.34.09-.21.15-.33a.5.5,0,0,0,.17,0,.41.41,0,0,1,.19,0,1.75,1.75,0,0,0-.3-.33l0-.43a1,1,0,0,0-.22.25s-.22-.16-.29-.15" transform="translate(-4 -3.31)"/><path class="cls-4" d="M14.73,22.79a1.52,1.52,0,0,0,0,.35.66.66,0,0,0-.16.17.77.77,0,0,1-.19.17.39.39,0,0,0,.3.06l0,.37.21-.37a.48.48,0,0,1,.25.19,2,2,0,0,0-.09-.44.41.41,0,0,1,.26-.31A2.71,2.71,0,0,0,15,23a2.42,2.42,0,0,0-.19-.24s0-.06,0,0" transform="translate(-4 -3.31)"/></g><polygon class="cls-4" points="27.09 21.02 26.76 21.27 27.01 21.37 27.04 21.82 27.21 21.46 27.56 21.39 27.43 21.16 27.62 20.74 27.29 20.9 27.17 20.68 27.09 21.02"/><polygon class="cls-4" points="28.59 21.09 28.29 21.28 28.57 21.44 28.5 21.67 28.7 21.37 29.02 21.47 28.88 21.13 29.04 20.85 28.79 20.93 28.66 20.83 28.59 21.09"/><polygon class="cls-4" points="25.43 20.73 25.29 21.03 24.84 21.21 25.22 21.35 25.25 21.77 25.54 21.45 25.93 21.45 25.72 21.18 25.95 20.89 25.61 20.93 25.43 20.73"/><polygon class="cls-4" points="26.85 20.92 26.69 20.81 26.62 21.1 26.29 21.29 26.63 21.28 26.53 21.71 26.74 21.32 27.14 21.26 26.95 21.08 27.18 20.79 26.85 20.92"/><polygon class="cls-4" points="28.3 21.23 28.06 21.4 28.21 21.42 28.16 21.54 28.46 21.34 28.51 21.23 28.66 21.01 28.41 21.06 28.33 20.96 28.3 21.23"/><g class="cls-2"><path class="cls-4" d="M32.09,28.42l-.11.4-.34.22h.24l0,.32.16-.3s.22,0,.3,0l-.15-.26.17-.31-.21.16Z" transform="translate(-4 -3.31)"/><path class="cls-4" d="M32.26,29.33l-.21.24s.06,0,.05.1a1.27,1.27,0,0,1-.2.3l.29-.32a.91.91,0,0,0,.33,0l-.21-.15s.32-.2.33-.28a.93.93,0,0,1-.38.12" transform="translate(-4 -3.31)"/></g><polygon class="cls-4" points="27.09 21.14 26.86 21.25 27.12 21.35 27.14 21.59 27.31 21.26 27.5 21.19 27.32 21.2 27.18 20.91 27.09 21.14"/><polygon class="cls-4" points="27.53 21.17 27.32 21.44 27.63 21.34 27.77 21.62 27.79 21.3 28.09 21.07 27.72 21.11 27.76 20.88 27.53 21.17"/><g class="cls-2"><path class="cls-4" d="M33.13,28.11l.4-.25.21.21v-.36l.34-.25-.4,0v-.33l-.16.34a.94.94,0,0,0-.35.07.33.33,0,0,1,.2.09Z" transform="translate(-4 -3.31)"/><path class="cls-4" d="M33.87,26.9l.26-.12.17.12,0-.28.28-.2-.25,0,0-.23a2.15,2.15,0,0,0-.33.4l-.13.28" transform="translate(-4 -3.31)"/><path class="cls-4" d="M35.18,25.76l.18-.39.38-.18-.33,0,.23-.33-.46.53a1.25,1.25,0,0,1-.27.23l.25-.11Z" transform="translate(-4 -3.31)"/></g><polygon class="cls-4" points="29.14 21.07 28.79 21.38 29.05 21.29 29.11 21.69 29.23 21.29 29.5 21.27 29.38 21.07 29.55 20.95 29.27 21.02 29.21 20.81 29.14 21.07"/><polygon class="cls-4" points="26.91 21.1 26.59 21.21 26.78 21.32 26.68 21.64 26.95 21.41 27.18 21.53 27.1 21.22 27.43 21.03 27.12 21.07 27.09 20.86 26.91 21.1"/><g class="cls-2"><path class="cls-4" d="M32.36,31.48s-.36.25-.41.39l-.23.12.12-.2-.22,0,.36-.21.17-.34-.07.29Z" transform="translate(-4 -3.31)"/><path class="cls-4" d="M30.88,32.51l-.35.16-.38.1.17,0,0,.15.27-.2.22-.06s-.07-.13,0-.2" transform="translate(-4 -3.31)"/></g><polygon class="cls-4" points="24.83 21.19 24.97 21.24 25.04 21.4 25.1 21.2 25.32 21.11 25.02 21.1 24.83 21.19"/><polygon class="cls-3" points="26.75 21.21 26.64 21.38 26.86 21.29 26.94 21.12 26.75 21.21"/><g class="cls-2"><path class="cls-4" d="M33.45,30.8l.18.21a2.33,2.33,0,0,0-.22.47l.37-.24.21.2L34,31l.37-.28-.34,0a.39.39,0,0,0,0-.3l-.23.33Z" transform="translate(-4 -3.31)"/><path class="cls-4" d="M34.45,30.11l.33-.19a1,1,0,0,1,.24.24V29.8l.3-.23L35,29.5l0-.32-.28.31-.33,0,.21.24Z" transform="translate(-4 -3.31)"/><path class="cls-4" d="M35.62,30.39l.27-.44,0,.38.35.05-.34.28a.88.88,0,0,0-.05.53l-.28-.31-.38.16.25-.32-.2-.3Z" transform="translate(-4 -3.31)"/><path class="cls-4" d="M35.79,29.19l.4-.3s.23.3.36.25l-.15-.46.31-.23-.37,0-.11-.34-.14.4-.41.12.31.13Z" transform="translate(-4 -3.31)"/></g><polygon class="cls-4" points="28.72 21.16 28.43 21.32 28.64 21.36 28.64 21.74 28.84 21.42 29.12 21.54 29.02 21.23 29.24 20.93 28.98 21.04 28.87 20.76 28.72 21.16"/><polygon class="cls-4" points="29.47 21.1 29.27 21.04 29.41 21.31 29.25 21.55 29.45 21.49 29.56 21.74 29.62 21.38 29.97 21.16 29.67 21.13 29.64 20.76 29.47 21.1"/><polygon class="cls-4" points="30.49 21.18 30.11 21.27 30.37 21.34 30.18 21.68 30.51 21.45 30.64 21.56 30.71 21.33 30.91 21.15 30.67 21.14 30.72 20.82 30.49 21.18"/><g class="cls-2"><path class="cls-4" d="M35.84,27.11l.07-.29.25-.06L36,26.53v-.32l-.29.37-.23.36.25-.12a.67.67,0,0,0,.12.29" transform="translate(-4 -3.31)"/><path class="cls-4" d="M36.69,26.15l0-.27L37,25.6l-.33,0v-.18l-.27.23-.38.1.26.1-.14.36.27-.2a1,1,0,0,0,.28.1" transform="translate(-4 -3.31)"/></g><polygon class="cls-4" points="29.95 21.18 29.68 21.38 29.86 21.35 29.79 21.64 30.08 21.35 30.3 21.29 30.19 21.15 30.41 20.98 30.11 21.11 30.05 20.86 29.95 21.18"/><g class="cls-2"><path class="cls-4" d="M34.61,27.21l.07.16-.17.15.22-.06.09.23a.77.77,0,0,1,.06-.28,1,1,0,0,1,.26,0l-.2-.12L35,27l-.22.21Z" transform="translate(-4 -3.31)"/><path class="cls-4" d="M34.2,27.78l.07.16-.17.15.22-.06.09.22a2,2,0,0,1,.05-.27c0-.05.26,0,.26,0a.61.61,0,0,0-.19-.12,1.67,1.67,0,0,1,.06-.26l-.23.21Z" transform="translate(-4 -3.31)"/></g><polygon class="cls-4" points="27.96 21.24 27.84 21.46 28.05 21.38 28.23 21.08 28.13 21.11 28.02 21.04 27.96 21.24"/><polygon class="cls-4" points="29.87 21.11 29.47 21.38 29.81 21.34 29.83 21.61 30.05 21.34 30.43 21.4 30.25 21.16 30.47 20.92 30.12 21.03 29.99 20.89 29.87 21.11"/><polygon class="cls-4" points="30.11 21.11 29.88 21.19 30.05 21.27 29.95 21.59 30.19 21.35 30.43 21.62 30.31 21.19 30.58 20.96 30.27 21.03 30.23 20.88 30.11 21.11"/><polygon class="cls-4" points="29.42 21.26 29.22 21.41 29.4 21.41 29.44 21.53 29.8 21.24 29.7 21.21 29.79 20.98 29.59 21.16 29.43 20.97 29.42 21.26"/><g class="cls-2"><path class="cls-3" d="M36.66,25.1l.21-.21a.52.52,0,0,1-.23-.09Z" transform="translate(-4 -3.31)"/><path class="cls-3" d="M37.12,24.63l.14-.16a.25.25,0,0,0,.17.11.43.43,0,0,1-.31.05" transform="translate(-4 -3.31)"/><path class="cls-4" d="M37.17,23.86l-.07.23-.24.05.25.1v.15a.26.26,0,0,0,.16-.22,1.19,1.19,0,0,1,.07-.29s-.09.17-.18,0" transform="translate(-4 -3.31)"/></g><polygon class="cls-4" points="31.31 20.7 31.19 21.16 30.77 21.37 31.1 21.33 31.01 21.8 31.34 21.33 31.87 21.23 31.55 21.15 31.6 20.98 31.42 21.02 31.31 20.7"/><g class="cls-2"><path class="cls-3" d="M37.51,23.34s0,.24-.07.29l.3-.2a.21.21,0,0,1-.23-.09" transform="translate(-4 -3.31)"/><path class="cls-4" d="M28.55,32.22a1.26,1.26,0,0,1,.58.4.87.87,0,0,0-.43.46c-.1.31-.68,0-.68.69,0,.22.73.42-.07.63,0,0-.41-.23-.46-.34s-.25-.72.15-.93c.85-.44.22-.55.91-.91" transform="translate(-4 -3.31)"/><path class="cls-4" d="M26.27,33.21a2.57,2.57,0,0,0,.62.47v0c.13-.4-.21-.64,0-1s.49,0,.64-.71c.08-.39.41-.14.36-.37A4.25,4.25,0,0,0,27,30.39a3.78,3.78,0,0,0-.62.5c0,.09.78.58.7.74s-.44.1-.43.42-.78.07-.42,1.16" transform="translate(-4 -3.31)"/><path class="cls-4" d="M20,34.45a13.82,13.82,0,0,0,2.51-1s.06.34-1,.83a1.68,1.68,0,0,1-1.47.15" transform="translate(-4 -3.31)"/><path class="cls-3" d="M21.27,34.81a2.81,2.81,0,0,0-.38,1.71,1.43,1.43,0,0,1-.16,1c-.52.36-.58.31-.58.31a10.46,10.46,0,0,0,.33-1.67,1.88,1.88,0,0,1,.79-1.39" transform="translate(-4 -3.31)"/><path class="cls-4" d="M34.88,32.26c0,.84-.44.74-.47,1.42,0,.31-1.23,1-1.4.77s.05-.2.19-.81c.1-.45.77-.18,1.06-1.38a3.56,3.56,0,0,1,.62,0" transform="translate(-4 -3.31)"/><path class="cls-4" d="M33.66,32c-.62.64-.1,1.06-.57,1.22S31.59,34,32,34.39s-1.14.8-1,.47-.73-.28-.36-.85,1.52-.44,1.75-.8.15-.65.55-1.27a1.11,1.11,0,0,1,.69.08" transform="translate(-4 -3.31)"/><path class="cls-4" d="M32.07,32.13c0,.54-.26,1.2-1.59,1.42-.77.13-.74.72-.61.79s0,.32-.09.47a3.63,3.63,0,0,1-.79-.2s.26-.26.17-.31-.61-.26.18-.78,1.27.41,1.95-.94a1.59,1.59,0,0,1,.78-.45" transform="translate(-4 -3.31)"/><path class="cls-4" d="M23.9,37.21a2.43,2.43,0,0,0,.85,0s0-1.62,0-2-.19-.51-.41-.52a.42.42,0,0,0-.47.48c0,.47,0,2.05,0,2.05" transform="translate(-4 -3.31)"/><path class="cls-4" d="M24.8,30.11c-.22.15-.71.45-.7.57a3.86,3.86,0,0,1,0,.76c-.05.19-.25.17-.4.19a.44.44,0,0,0,.13-.41c0-.15-.19-.47-.37-.27s-.4.59-.16.68c-.25.11-.4,0-.4-.24a2,2,0,0,1,.15-.43c.05-.14-.16-.15-.31-.06s-.41.39-.37.51.15.12.15.12a.29.29,0,0,1-.47-.21c0-.16,0-.19.13-.33a4.18,4.18,0,0,1,.49-.48c.12-.08.35,0,.55-.1a4.36,4.36,0,0,0,1.08-.8l.11.27.42,0Z" transform="translate(-4 -3.31)"/><path class="cls-3" d="M31.12,30.6a8.17,8.17,0,0,1-3-1.27c-.15-.11-.1-.39,0-.28a11.72,11.72,0,0,0,3,1.51c.07,0,0,0,0,0" transform="translate(-4 -3.31)"/><path class="cls-3" d="M29.73,30.87a9.79,9.79,0,0,1-1.83-1.11c-.17-.16,0-.35.12-.25a12.34,12.34,0,0,0,1.72,1.34c.05,0,0,0,0,0" transform="translate(-4 -3.31)"/><path class="cls-3" d="M28.93,31.29c-.44-.39-.58-.59-1.3-1.16-.16-.17,0-.34.14-.23s.7.74,1.19,1.37c0,0,0,0,0,0" transform="translate(-4 -3.31)"/><path class="cls-4" d="M22.73,33a3.52,3.52,0,0,1-.39.16c.14-.21.29-.56-.26-.86-.22-.11-.15-.07.15-.26.09-.05,0,.38.54.44.07,0,.13,0,.13.08s-.14.17-.17.44" transform="translate(-4 -3.31)"/><path class="cls-4" d="M23.12,35.21a.37.37,0,1,1-.37-.37.37.37,0,0,1,.37.37" transform="translate(-4 -3.31)"/><path class="cls-4" d="M24.72,34.22a.37.37,0,0,1-.36.38.38.38,0,0,1-.37-.37.37.37,0,0,1,.36-.37.36.36,0,0,1,.37.36" transform="translate(-4 -3.31)"/><path class="cls-4" d="M22.53,34.8c.16-.22.64,0,.54-.47-.16.13-.65,0-.54.47" transform="translate(-4 -3.31)"/><path class="cls-4" d="M24.06,33.88c.12-.26.66-.12.48-.59-.15.16-.68.12-.48.59" transform="translate(-4 -3.31)"/><path class="cls-4" d="M24,33.45c.12-.26.66-.15.45-.61-.13.17-.67.15-.45.61" transform="translate(-4 -3.31)"/><path class="cls-4" d="M24,33c.1-.27.66-.18.42-.64-.13.18-.67.19-.42.64" transform="translate(-4 -3.31)"/><path class="cls-4" d="M24.39,32.25c-.08.15-.38.17-.45.37-.2-.34.07-.43.26-.54,0,.09.19.17.19.17" transform="translate(-4 -3.31)"/><path class="cls-4" d="M22.64,34.33c.17-.22.63.05.57-.45-.17.12-.64-.05-.57.45" transform="translate(-4 -3.31)"/><path class="cls-4" d="M22.72,33.87c.2-.21.63.09.61-.41-.18.11-.64-.09-.61.41" transform="translate(-4 -3.31)"/><path class="cls-4" d="M22.89,33.43c.2-.2.62.12.63-.38-.18.1-.63-.12-.63.38" transform="translate(-4 -3.31)"/><path class="cls-4" d="M23,33c.22-.18.61.15.66-.35-.19.1-.63-.15-.66.35" transform="translate(-4 -3.31)"/><path class="cls-4" d="M23.25,32.58c.23-.18.61.16.69-.33-.2.08-.63-.17-.69.33" transform="translate(-4 -3.31)"/><path class="cls-4" d="M23.42,32.16c.24-.16.59.21.7-.28-.2.07-.6-.21-.7.28" transform="translate(-4 -3.31)"/><path class="cls-4" d="M24.53,31.72c-.2,0-.34.23-.11.39a.24.24,0,0,0,.39-.11c-.22,0-.36-.16-.28-.28" transform="translate(-4 -3.31)"/><path class="cls-4" d="M22.83,32.23c-.17.1-.39-.09-.24-.33a.24.24,0,0,1,.4,0c-.21.07-.28.28-.16.37" transform="translate(-4 -3.31)"/><path class="cls-4" d="M23.2,32.39c-.17.1-.39-.08-.25-.33a.24.24,0,0,1,.4-.05c-.2.08-.27.29-.15.38" transform="translate(-4 -3.31)"/><path class="cls-4" d="M24.66,31.42c-.18.07-.17.36.11.39a.23.23,0,0,0,.29-.28c-.19.12-.4,0-.4-.11" transform="translate(-4 -3.31)"/><path class="cls-4" d="M24.63,31.11c-.12.15,0,.4.3.29A.23.23,0,0,0,25,31c-.11.19-.33.22-.41.09" transform="translate(-4 -3.31)"/><path class="cls-4" d="M24.45,30.86c0,.18.23.32.41.1a.23.23,0,0,0-.1-.38c0,.21-.18.35-.31.28" transform="translate(-4 -3.31)"/></g><polygon class="cls-3" points="19.19 22.61 18.86 21.57 17.76 21.57 18.64 20.93 18.31 19.88 19.19 20.53 20.08 19.88 19.74 20.93 20.63 21.57 19.53 21.57 19.19 22.61"/><polygon class="cls-3" points="16.76 22.62 16.43 21.57 15.33 21.57 16.22 20.93 15.88 19.88 16.76 20.53 17.65 19.88 17.31 20.93 18.2 21.57 17.1 21.57 16.76 22.62"/><polygon class="cls-3" points="17.69 22.62 17.35 21.57 16.26 21.57 17.14 20.93 16.8 19.88 17.69 20.53 18.58 19.88 18.24 20.93 19.13 21.57 18.03 21.57 17.69 22.62"/><polygon class="cls-3" points="20.7 22.62 20.36 21.57 19.26 21.57 20.15 20.93 19.81 19.88 20.7 20.53 21.58 19.88 21.24 20.93 22.13 21.57 21.03 21.57 20.7 22.62"/><polygon class="cls-3" points="21.62 22.61 21.29 21.57 20.19 21.57 21.07 20.93 20.74 19.89 21.62 20.53 22.51 19.89 22.17 20.93 23.06 21.57 21.96 21.57 21.62 22.61"/><g class="cls-2"><path class="cls-3" d="M25.25,3.31A21.25,21.25,0,1,0,46.5,24.56,21.24,21.24,0,0,0,25.25,3.31M25.2,39.64A15.11,15.11,0,1,1,40.31,24.53,15.11,15.11,0,0,1,25.2,39.64" transform="translate(-4 -3.31)"/><path class="cls-4" d="M9.2,25.45c0-.4-.26-.48-.66-.51h-.2A1.17,1.17,0,0,0,8,25c-.35.06-.53.2-.51.54a.25.25,0,0,0,0,.16s.09,0,.12,0L9,25.63c.06,0,.14,0,.18,0a.29.29,0,0,0,0-.15l.15,0,0,.88H9.25a1.2,1.2,0,0,0,0-.2s0,0,0,0l0,0H9.07l-1.42.07c-.05,0-.07,0-.09.05a.38.38,0,0,0,0,.15v.06H7.41l0-.84v-.23A.76.76,0,0,1,7.42,25a.84.84,0,0,1,.18-.28,1.06,1.06,0,0,1,.69-.25,1.26,1.26,0,0,1,.51.07.81.81,0,0,1,.46.39,1.54,1.54,0,0,1,.09.52Z" transform="translate(-4 -3.31)"/><path class="cls-4" d="M9.43,22.6,9.3,24.27H9.16c0-.06,0-.23-.05-.26H9l-1.4-.11H7.55a.07.07,0,0,0,0,0,1.52,1.52,0,0,0,0,.21H7.33l.12-1.66.71,0v.12c-.41.07-.59.18-.61.58a.28.28,0,0,0,0,.18s0,0,.05,0a.3.3,0,0,0,.13,0l.52,0c0-.24-.11-.37-.36-.41V23l.95.06v.13a.39.39,0,0,0-.45.36l.6.05c.13,0,.18,0,.21-.11s0-.08,0-.13c0-.39-.16-.54-.55-.67l0-.12Z" transform="translate(-4 -3.31)"/><path class="cls-4" d="M8.77,21.41l.54.11a.38.38,0,0,0,.16-.05s0-.18,0-.18l.14,0-.19.95-.14,0,0-.15c0-.11,0-.12-.13-.14s-1.4-.3-1.41-.29l-.09,0a1.17,1.17,0,0,0-.06.2l-.14,0s.22-1.07.23-1.1A.67.67,0,0,1,8,20.36a.49.49,0,0,1,.45-.09c.49.09.48.56.4.9l-.05.24-.14,0s0-.1,0-.14c.06-.29,0-.46-.34-.53s-.41,0-.47.29c0,0,0,.14,0,.18s.08,0,.13.06l.66.14Z" transform="translate(-4 -3.31)"/><path class="cls-4" d="M9.68,17.66a1.42,1.42,0,0,0,.08-.18.34.34,0,0,0-.2-.51c-.24-.11-.36,0-.46.17a.55.55,0,0,0,0,.17c0,.06.07.09.12.11l.51.24.13.06.58.27.08,0c.06,0,.08,0,.1,0a1.52,1.52,0,0,0,.09-.17l.13.06-.4.88-.14-.06.06-.13c0-.1,0-.12-.1-.18l-1.15-.53s-.15-.07-.21,0a1,1,0,0,0-.13.17l-.13-.06L9,17l.08-.17a.64.64,0,0,1,.27-.32.51.51,0,0,1,.42,0,.49.49,0,0,1,.22.69h0a.49.49,0,0,1,.53-.16l.35.07h0c.11-.09-.09-.2-.17-.24l.06-.12a.67.67,0,0,1,.14.09.38.38,0,0,1,.12.51.35.35,0,0,1-.23.2.48.48,0,0,1-.31,0l-.15-.06c-.21-.09-.37-.14-.48.06l-.09.17Z" transform="translate(-4 -3.31)"/><path class="cls-4" d="M10.13,16.39,9.52,16l.85-1.4.65.36L11,15c-.24-.11-.6-.19-.75,0,0,0,0,.08,0,.1l.1.06L11.5,16c.09,0,.1.06.17,0a1.4,1.4,0,0,1,.1-.16l.12.08-.52.85-.12-.07a1.86,1.86,0,0,0,.1-.2.07.07,0,0,0,0-.07s-.06,0-.09-.06l-1.15-.71L10,15.56s-.07,0-.09,0c-.14.23.11.52.31.68Z" transform="translate(-4 -3.31)"/><path class="cls-4" d="M12.79,14.66l-.08.09L11,14.08h0l1,.77c.18.15.33.24.48,0l.12.09-.44.55L12,15.44c.14-.18.07-.28-.1-.43L11,14.28s-.09-.09-.14-.07-.09.08-.12.11l0,0-.11-.09.5-.63,1.18.46h0l-.71-1,.5-.62.12.09-.05.06a.15.15,0,0,0-.06.15.62.62,0,0,0,.14.14l1,.83,0,0c.08,0,.14-.05.17-.09l.05-.05.11.09-.59.73-.11-.09.09-.11a.14.14,0,0,1,0-.06.07.07,0,0,0,0-.06s0,0-.06-.06l-1.17-.94h0Z" transform="translate(-4 -3.31)"/><path class="cls-4" d="M14.94,12.42l-1.23,1.15-.1-.11c0-.05.19-.14.13-.23a.13.13,0,0,0-.06-.07l-.95-1-.05,0h-.06a1.92,1.92,0,0,0-.17.13l-.1-.1L13.57,11l.5.51-.09.09c-.35-.22-.56-.26-.85,0a.36.36,0,0,0-.1.14,0,0,0,0,0,0,.06c0,.05.05.08.08.12l.35.38c.2-.16.18-.35,0-.55l.09-.09.66.69-.09.09a.39.39,0,0,0-.58,0l.41.44c.09.09.12.14.22.06l.1-.08c.29-.27.26-.5.06-.86l.1-.08Z" transform="translate(-4 -3.31)"/><path class="cls-4" d="M14.55,10.79l.6.83c.14.18.25.25.43.12l.09.12-.58.41L15,12.16c.18-.15.17-.22,0-.42l-.72-1a.32.32,0,0,0-.3,0l-.08-.12.5-.36,1.52.46-.47-.65c-.13-.18-.23-.22-.41-.1L15,9.89l.57-.4.08.11c-.09.09-.15.16-.09.31l.13.2.84,1.15-.13.09Z" transform="translate(-4 -3.31)"/><path class="cls-4" d="M16.11,10l-.32-.67,1.42-.8.4.63-.11.07c-.16-.21-.43-.47-.68-.33,0,0-.06.05,0,.09l.06.1.67,1.22c0,.08.06.1.15.07l.17-.09.07.13-.87.48L17,10.81l.18-.12a.1.1,0,0,0,0-.08.18.18,0,0,0,0-.09l-.66-1.19-.06-.1s-.07,0-.1,0c-.24.13-.16.51-.07.74Z" transform="translate(-4 -3.31)"/><path class="cls-4" d="M20.31,9.35c.28-.09.23-.42.19-.68,0-.09-.05-.2-.08-.3-.1-.3-.31-.83-.69-.71s-.25.68-.15,1a2.31,2.31,0,0,0,.28.54.38.38,0,0,0,.45.14V9.5a.88.88,0,0,1-.72-.09,1.19,1.19,0,0,1-.46-.61,1.05,1.05,0,0,1,0-.8.89.89,0,0,1,.52-.47.85.85,0,0,1,.74.08A1.11,1.11,0,0,1,20.84,9a.89.89,0,0,1-.54.47Z" transform="translate(-4 -3.31)"/><path class="cls-4" d="M21.22,9.16l0-.14.15,0a.11.11,0,0,0,.07,0l0,0v0a.5.5,0,0,0,0-.12l-.27-1.34s0-.11-.07-.11a.38.38,0,0,0-.15,0h-.06l0-.14,1.6-.32.16.7-.12,0c-.15-.35-.34-.52-.69-.45a.3.3,0,0,0-.2.08.22.22,0,0,0,0,.14l.11.55c.26,0,.31-.18.31-.45l.13,0,.18.93-.12,0a.77.77,0,0,0-.08-.19.31.31,0,0,0-.36-.15h0l.12.59c0,.14,0,.18.18.15l.15,0,0,.14Z" transform="translate(-4 -3.31)"/><path class="cls-4" d="M23.88,6.72h.89v.14c-.05,0-.17,0-.2.05a.2.2,0,0,0,0,.11L25,8.14l.35-1a.38.38,0,0,0,0-.1c0-.14-.15-.18-.24-.17V6.7h.73v.14c-.19,0-.28.21-.34.39L25,8.73h-.2l-.63-1.66c0-.09-.07-.18-.17-.2h-.1Z" transform="translate(-4 -3.31)"/><path class="cls-4" d="M27.62,8.85,26,8.68V8.53c.07,0,.23.05.26,0s0-.06,0-.09L26.38,7s0,0,0-.07a.1.1,0,0,0,0,0l-.21,0,0-.14,1.65.17-.05.71-.13,0c-.06-.41-.17-.59-.56-.63a.37.37,0,0,0-.18,0s0,0,0,.06a.28.28,0,0,0,0,.13l-.06.52c.25,0,.38-.1.43-.35h.13l-.09,1-.13,0a.38.38,0,0,0-.35-.46l-.06.6c0,.12,0,.18.09.21l.14,0c.38,0,.54-.14.69-.53l.12,0Z" transform="translate(-4 -3.31)"/><path class="cls-4" d="M28.09,7.67l.2-.72,1.59.35L29.76,8l-.12,0c0-.25,0-.63-.29-.68,0,0-.08,0-.09,0l0,.11-.3,1.36c0,.1,0,.12.06.15a1.21,1.21,0,0,0,.18,0l0,.14-1-.22,0-.14.21,0a.08.08,0,0,0,.06,0,.42.42,0,0,0,0-.1l.29-1.33a.36.36,0,0,0,0-.11s0-.07-.07-.07c-.27-.06-.46.27-.54.5Z" transform="translate(-4 -3.31)"/><path class="cls-4" d="M31.14,9.81l-1.59-.55.05-.13c.07,0,.21.1.26,0a.36.36,0,0,0,0-.09l.46-1.32a.14.14,0,0,0,0-.06.07.07,0,0,0,0-.06.77.77,0,0,0-.19-.08l0-.14,1.57.55-.21.68-.12,0c0-.42,0-.62-.4-.75a.38.38,0,0,0-.18,0,.1.1,0,0,0-.05,0,.2.2,0,0,0-.06.13l-.17.49c.22.1.38,0,.49-.24l.12,0-.3.9-.13,0a.38.38,0,0,0-.23-.53l-.2.57c0,.12-.06.17.05.22l.12.06c.37.13.56,0,.79-.36l.11.06Z" transform="translate(-4 -3.31)"/><path class="cls-4" d="M32.37,9.33l-.28.57,0,.08c0,.06,0,.08,0,.1a.41.41,0,0,0,.11.07l.06,0-.07.13-.87-.42.07-.13.12.05c.11.06.13,0,.18-.09l.56-1.14s.09-.16.08-.2-.08-.08-.13-.11l-.07,0,.06-.13.88.43.16.09a.64.64,0,0,1,.32.27.48.48,0,0,1,0,.42.49.49,0,0,1-.69.21h0a.47.47,0,0,1,.15.53l0,.17a1.16,1.16,0,0,0,0,.18s0,0,0,0,.2-.09.24-.16l.12.05-.09.14a.38.38,0,0,1-.52.11.38.38,0,0,1-.2-.23.55.55,0,0,1,.05-.31l.06-.15c.09-.21.15-.36-.05-.48l-.1-.06-.07,0,.06-.13.18.08a.34.34,0,0,0,.52-.19A.3.3,0,0,0,33,8.63l-.17-.06c-.06,0-.09.07-.12.12l-.25.51Z" transform="translate(-4 -3.31)"/><path class="cls-4" d="M34,10.59a.72.72,0,0,0-.21.18c-.09.13,0,.23.1.29l-.08.12-.59-.39.08-.12c.17.09.37-.05.52-.15l1.28-.91.15.1-.41,1.74c0,.17,0,.21.09.31l-.08.12-.72-.48.08-.12s.12.09.17.07.05,0,.06-.1l.08-.31L34,10.59l.15-.11.41.28.18-.7-.59.42Z" transform="translate(-4 -3.31)"/><path class="cls-4" d="M36.27,11.13l-.68.77c-.15.17-.19.3,0,.45l-.1.11L34.94,12l.09-.11c.19.14.26.11.42-.06l.81-.92a.29.29,0,0,0-.1-.28l.1-.12.47.42-.12,1.58.53-.6c.15-.16.16-.28,0-.42l.1-.11.52.47-.09.1c-.11-.06-.19-.11-.32,0a1.29,1.29,0,0,0-.16.17l-.95,1.07-.11-.1Z" transform="translate(-4 -3.31)"/><path class="cls-4" d="M37.07,12.9l.08.09a.82.82,0,0,0,0,.93.32.32,0,0,0,.47.06.27.27,0,0,0,0-.39l-.09-.16a1.08,1.08,0,0,1-.18-.5.59.59,0,0,1,.2-.46.6.6,0,0,1,.9.06.67.67,0,0,1,.18.43h.19l.07.08-.51.5-.09-.09a.72.72,0,0,0,0-.85.29.29,0,0,0-.43-.06c-.15.13-.08.29,0,.42l.08.13c.18.32.31.65,0,1a.68.68,0,0,1-.5.18A.69.69,0,0,1,37,14a.73.73,0,0,1-.19-.49h-.23l-.07-.08Z" transform="translate(-4 -3.31)"/><path class="cls-4" d="M38.89,15.39a.87.87,0,0,0-.26.08c-.13.08-.1.21,0,.31l-.12.08-.38-.6.12-.08c.12.16.36.11.54.07l1.53-.3.1.15-1.08,1.43c-.1.13-.12.17,0,.31l-.12.08-.46-.73.12-.08s.07.12.12.13.07,0,.09-.06l.21-.26-.34-.53.18,0,.27.43.45-.58-.72.15Z" transform="translate(-4 -3.31)"/><path class="cls-4" d="M39.22,17.08l.14-.06.06.13a.09.09,0,0,0,0,.06l0,0h0a.21.21,0,0,0,.11,0l1.24-.58s.1-.05.09-.1a.5.5,0,0,0,0-.13l0-.07.13-.06.69,1.48-.64.32L41,17.93c.3-.23.43-.45.27-.78a.28.28,0,0,0-.12-.17A.19.19,0,0,0,41,17l-.52.24c.1.25.25.26.51.19l.06.12-.86.4-.06-.11a.66.66,0,0,0,.17-.12.31.31,0,0,0,.06-.39v0l-.55.25c-.13.07-.16.08-.11.21l.06.14-.13.07Z" transform="translate(-4 -3.31)"/><path class="cls-4" d="M39.93,18.58l.13,0,0,.14a.25.25,0,0,0,0,.07h.05a.53.53,0,0,0,.12,0l1.29-.45s.11,0,.1-.09a.25.25,0,0,0,0-.14l0-.06.14-.05.53,1.55-.67.25,0-.12c.32-.2.46-.4.35-.74,0-.07,0-.15-.11-.19s-.1,0-.14,0l-.53.19c.07.25.22.28.49.24l0,.12-.9.31,0-.12.18-.1a.32.32,0,0,0,.1-.38v0l-.58.2c-.13.05-.16.06-.12.19l0,.16-.14,0Z" transform="translate(-4 -3.31)"/><path class="cls-4" d="M41.1,20.22a.87.87,0,0,0-.28,0c-.15,0-.15.17-.12.28l-.15,0-.16-.69.14,0c.06.18.3.21.49.24l1.55.19,0,.18-1.47,1c-.14.09-.18.12-.15.28l-.14,0-.2-.84.14,0a.33.33,0,0,0,.07.17s.08,0,.12,0l.27-.18-.15-.61.18,0,.12.49.61-.4-.73-.09Z" transform="translate(-4 -3.31)"/><path class="cls-4" d="M40.86,22l.15,0,0,.16c0,.11.09.09.19.08L42.55,22l.09,0s0,0,.06,0a.28.28,0,0,0,0-.13v-.08l.15,0,.12.95-.14,0v-.08s0-.11-.06-.15H42.6l-1.36.18c-.05,0-.11,0-.12.06v0a.49.49,0,0,0,0,.12v.06l-.14,0Z" transform="translate(-4 -3.31)"/><path class="cls-4" d="M42.15,23.79c0,.07,0,.13,0,.2,0,.24.11.37.41.36s.34-.13.33-.35a.52.52,0,0,0,0-.18c0-.05-.11-.05-.16-.05l-.57,0H42l-.63,0h-.1c-.06,0-.07,0-.07.08s0,.09,0,.13v.06h-.15l0-1h.15a.57.57,0,0,0,0,.13c0,.12.05.12.16.12l1.27,0c.05,0,.19,0,.22,0s0-.1,0-.16v-.08H43l0,1v.19a.65.65,0,0,1-.1.4.45.45,0,0,1-.37.19c-.34,0-.48-.25-.51-.51h0a.49.49,0,0,1-.4.38l-.18,0a.48.48,0,0,0-.17.05l0,0c-.05.13.18.14.26.14v.13h-.16a.38.38,0,0,1-.34-.41.36.36,0,0,1,.11-.29.48.48,0,0,1,.29-.1h.17c.22,0,.39,0,.4-.28v-.19Z" transform="translate(-4 -3.31)"/><path class="cls-4" d="M41.81,25.33v.11c-.32.08-.67.28-.7.61a.32.32,0,0,0,.28.38c.18,0,.26-.09.31-.23l.05-.18a1.07,1.07,0,0,1,.25-.47.61.61,0,0,1,1,.54.69.69,0,0,1-.18.42l.12.14v.11l-.72,0V26.6c.3-.06.62-.25.64-.56a.3.3,0,0,0-.25-.36c-.2,0-.27.14-.31.28l0,.15c-.11.35-.26.68-.73.63a.65.65,0,0,1-.47-.25A.63.63,0,0,1,41,26a.74.74,0,0,1,.22-.48L41,25.39v-.11Z" transform="translate(-4 -3.31)"/><path class="cls-4" d="M9.18,20l.15-.48-.72,0,.57.45.15.11a.91.91,0,0,0,.23.15c.15.05.22-.06.25-.17l.14,0-.21.67-.14,0c0-.2-.15-.34-.29-.46l-1.22-1,.05-.18,1.78-.09c.17,0,.22,0,.27-.17l.14,0-.26.82-.14,0s.05-.13,0-.17-.07,0-.12,0H9.52l-.19.6Z" transform="translate(-4 -3.31)"/><path class="cls-4" d="M10.05,29.4l.32.83-.14.05c0-.06,0-.16-.12-.19s-.09,0-.13,0l-.84.33a1.43,1.43,0,0,0-.33.15.28.28,0,0,0-.11.22.42.42,0,0,0,0,.22.37.37,0,0,0,.29.25.66.66,0,0,0,.43-.08l.67-.25c.12-.05.27-.11.25-.25a.25.25,0,0,0,0-.12l.13-.05.24.62-.13.05c-.09-.2-.23-.18-.44-.11l-.73.29a1.1,1.1,0,0,1-.26.06.57.57,0,0,1-.45-.12A.67.67,0,0,1,8.5,31a.77.77,0,0,1-.05-.52.61.61,0,0,1,.41-.37l1-.4s.06,0,.07-.07-.05-.16-.06-.19Z" transform="translate(-4 -3.31)"/><path class="cls-4" d="M10.62,32l-.9.49c-.2.11-.28.21-.18.4l-.13.07-.32-.59.13-.07c.11.19.19.18.4.08l1.07-.59a.28.28,0,0,0,0-.29l.13-.07.28.51-.67,1.41.7-.38c.2-.11.25-.21.16-.39l.13-.06.31.58-.12.07c-.08-.1-.14-.17-.29-.12l-.21.1-1.25.69-.07-.13Z" transform="translate(-4 -3.31)"/><path class="cls-4" d="M10.28,34.4l.12-.08.08.12c.08.08.13,0,.21,0l1.1-.76a.2.2,0,0,0,.07-.06s0,0,0-.07a.6.6,0,0,0-.06-.11l0-.06.12-.08.52.74-.12.09L12.26,34s0-.1-.11-.11l-.05,0L12,34l-1.13.78s-.08.06-.08.11,0,0,0,0a.47.47,0,0,0,.06.09l0,.05-.12.08Z" transform="translate(-4 -3.31)"/><path class="cls-4" d="M12,34.7l.6-.45,1,1.17-.54.51L13,35.84c.18-.19.38-.5.21-.7a.09.09,0,0,0-.1,0l-.09.08-1.06.89c-.08.07-.09.08-.05.16a1.49,1.49,0,0,0,.12.14l-.12.09-.6-.72.11-.09a.93.93,0,0,0,.14.14,0,0,0,0,0,.07,0s.06,0,.09-.06l1-.87.09-.08s0-.07,0-.1c-.16-.19-.52,0-.72.1Z" transform="translate(-4 -3.31)"/><path class="cls-4" d="M13.6,38.18,12.44,37.1l.1-.11c.05,0,.14.17.22.11a.16.16,0,0,0,.07-.07l1-1,0,0s0,0,0-.06a.61.61,0,0,0-.13-.15l.1-.1,1.15,1.07-.48.53-.08-.08c.2-.36.23-.57-.05-.82a.26.26,0,0,0-.14-.09h-.06a.52.52,0,0,0-.11.1l-.35.38c.15.17.34.13.53,0l.09.08-.64.71-.09-.09a.37.37,0,0,0,0-.56l-.41.44c-.08.09-.12.13-.05.22l.08.09c.27.25.5.2.85,0l.07.09Z" transform="translate(-4 -3.31)"/><path class="cls-4" d="M14.73,38.87a.2.2,0,0,1-.09-.11c0-.06,0-.11.09-.16l.77-1.06s.05-.08.09-.08.12,0,.15,0c.26.19.25.41.08.73-.05.09-.11.18-.17.27l-.13.15c-.27.3-.48.44-.79.21l-.08.13a1.31,1.31,0,0,0,.45.24.79.79,0,0,0,.57-.13,1.58,1.58,0,0,0,.37-.36,1.15,1.15,0,0,0,.24-.68.8.8,0,0,0-.09-.31.62.62,0,0,0-.23-.25l-.17-.14-.64-.47-.09.12,0,0a.22.22,0,0,1,.1.09.09.09,0,0,1,0,.1l-.84,1.15a.22.22,0,0,1-.06.07l0,0h0a.54.54,0,0,1-.16-.1l-.09.12.67.49Z" transform="translate(-4 -3.31)"/><path class="cls-4" d="M16.92,39.58l.1.05c-.06.32,0,.73.26.87a.32.32,0,0,0,.45-.13.27.27,0,0,0-.1-.37l-.13-.11a.88.88,0,0,1-.32-.39.63.63,0,0,1,0-.5.58.58,0,0,1,.84-.27.61.61,0,0,1,.29.32l.17-.07.09.05-.3.65-.1,0a.71.71,0,0,0-.25-.79.29.29,0,0,0-.41.11c-.09.18,0,.29.13.38l.11.1c.27.23.49.47.28.9a.68.68,0,0,1-.4.35.64.64,0,0,1-.45-.06.69.69,0,0,1-.33-.38l-.2.08-.1,0Z" transform="translate(-4 -3.31)"/><path class="cls-4" d="M18.58,39.87l.3-.68,1.44.55-.23.7-.11,0c.06-.25.08-.62-.16-.71,0,0-.08,0-.09,0a1.17,1.17,0,0,0-.05.11l-.5,1.3c0,.09,0,.11,0,.16l.16.07-.05.13-.88-.34L18.5,41l.2.06a.06.06,0,0,0,.06,0,.16.16,0,0,0,0-.09l.48-1.27a.76.76,0,0,0,0-.11s0-.07,0-.08c-.25-.09-.48.21-.6.43Z" transform="translate(-4 -3.31)"/><path class="cls-4" d="M20.4,41l.41-.59,0,.72L20.4,41l-.11.15.57.15,0,.33s0,.09,0,.12-.12,0-.17,0l0,.14.78.22,0-.14c-.15-.05-.15-.1-.17-.26l-.13-1.77-.17,0-.89,1.27c-.11.15-.24.35-.43.32l0,.14.65.17,0-.14c-.11,0-.22-.09-.18-.24a1,1,0,0,1,.14-.24Z" transform="translate(-4 -3.31)"/><path class="cls-4" d="M21.6,40.86l.17-.72,1.52.26-.1.74-.11,0c0-.26,0-.63-.3-.67a.06.06,0,0,0-.08,0,.52.52,0,0,0,0,.11L22.44,42c0,.1,0,.12.06.15l.17,0,0,.14-.93-.16,0-.14H22S22,42,22,42a.36.36,0,0,0,0-.1l.24-1.34s0-.08,0-.12,0,0-.06-.06c-.26-.05-.43.3-.5.53Z" transform="translate(-4 -3.31)"/><path class="cls-4" d="M25.05,42.5l-1.58-.09v-.14c.07,0,.22,0,.25-.06a.28.28,0,0,0,0-.09l.08-1.4a.17.17,0,0,0,0-.07s0,0,0,0a1.25,1.25,0,0,0-.19,0v-.14l1.57.08,0,.71H25c-.08-.41-.18-.58-.56-.6a.23.23,0,0,0-.16,0s0,0,0,.05a.58.58,0,0,0,0,.14l0,.51c.23,0,.35-.11.39-.36h.12l-.05,1h-.12c0-.26-.12-.43-.35-.44l0,.6c0,.12,0,.18.1.2l.12,0c.37,0,.51-.17.63-.56h.12Z" transform="translate(-4 -3.31)"/><path class="cls-4" d="M25.42,41.75h.11c.11.31.35.64.66.62a.31.31,0,0,0,.32-.33.27.27,0,0,0-.26-.27l-.17,0a.86.86,0,0,1-.47-.18.59.59,0,0,1-.22-.44.62.62,0,0,1,1-.52l.12-.14h.1l.06.72h-.11c-.1-.29-.32-.58-.61-.57a.29.29,0,0,0-.3.3c0,.2.16.25.3.27l.15,0c.34.07.66.16.68.65a.67.67,0,0,1-.17.49.63.63,0,0,1-.42.17.67.67,0,0,1-.48-.16l-.14.17h-.1Z" transform="translate(-4 -3.31)"/><path class="cls-4" d="M29.45,41.89c.28-.08.25-.41.22-.66,0-.1,0-.21-.06-.31-.08-.31-.27-.85-.65-.75s-.29.67-.2,1a2,2,0,0,0,.24.55.39.39,0,0,0,.45.17l0,.15a.84.84,0,0,1-.7-.13,1.19,1.19,0,0,1-.44-.63,1.11,1.11,0,0,1,.08-.8.9.9,0,0,1,.55-.44.84.84,0,0,1,.72.11,1.13,1.13,0,0,1,.45.64,1.15,1.15,0,0,1-.08.8.87.87,0,0,1-.58.45Z" transform="translate(-4 -3.31)"/><path class="cls-4" d="M30.5,41.74l-.05-.13.14,0,.07,0v0s0,0,0,0,0-.08,0-.12l-.44-1.29s0-.1-.1-.1S30,40,30,40l-.06,0,0-.14,1.54-.53.26.67-.12,0c-.2-.32-.4-.46-.74-.35a.4.4,0,0,0-.19.11s0,.1,0,.14l.19.53c.25-.07.28-.21.24-.48l.12,0,.31.9-.12,0a.59.59,0,0,0-.1-.17.31.31,0,0,0-.38-.11h0l.2.57c.05.14.06.17.2.13l.15,0,0,.14Z" transform="translate(-4 -3.31)"/><path class="cls-4" d="M33.35,39.7,33.23,39l.53.48-.41.23,0,.18.52-.29.24.22s.07,0,.06.1-.1.08-.13.11l.07.13.71-.41-.07-.12c-.14.07-.17,0-.3-.07l-1.33-1.17-.16.09L33.25,40c0,.18.07.42-.09.53l.07.12.59-.33-.07-.12c-.1.06-.22.09-.3-.05a.9.9,0,0,1-.07-.27Z" transform="translate(-4 -3.31)"/><path class="cls-4" d="M35.86,39l-.09.07L34.29,38h0L35,39c.13.18.26.31.44.17l.09.11-.53.4-.09-.12c.17-.13.12-.25,0-.43l-.69-.94s-.06-.1-.11-.11-.11.06-.14.08l0,0-.09-.11.61-.45,1,.75h0L35,37.19l.61-.45.09.11-.06,0s-.1.06-.1.13a.91.91,0,0,0,.11.16l.79,1.07,0,0c.06.06.14,0,.18,0l0,0,.09.12-.72.53L36,38.74l.11-.08s0,0,0,0a.06.06,0,0,0,0-.06.35.35,0,0,0,0-.08l-.89-1.2h0Z" transform="translate(-4 -3.31)"/><path class="cls-4" d="M38.31,36.88,37.18,38l-.1-.1s.17-.13.12-.22l-.06-.08-1-1,0,0H36a.57.57,0,0,0-.14.13l-.11-.11,1.13-1.09.51.5-.09.08c-.35-.22-.55-.26-.82,0a.26.26,0,0,0-.09.14s0,0,0,.06a.24.24,0,0,0,.09.11l.36.38c.18-.15.15-.34,0-.54l.08-.09.68.68-.09.09c-.19-.18-.4-.21-.56,0l.42.43c.08.09.12.13.21.06l.1-.08c.26-.26.22-.49,0-.84l.09-.07Z" transform="translate(-4 -3.31)"/><path class="cls-4" d="M38.18,35.36,37.74,35a.2.2,0,0,1-.09-.13.54.54,0,0,1,.09-.15.3.3,0,0,1,.48,0c.23.19.22.35.08.53a1.58,1.58,0,0,1-.12.15l.12.09,0-.06a.27.27,0,0,0,.07-.08c.15-.16.29-.06.48.07l.13.1a.52.52,0,0,0,.28.11.34.34,0,0,0,.27-.12.37.37,0,0,0,0-.52.43.43,0,0,0-.12-.11l-.07.09c.06.06.23.21.11.27h0l-.17-.08L39.12,35a.46.46,0,0,0-.54,0h0a.47.47,0,0,0-.07-.7.5.5,0,0,0-.4-.11.62.62,0,0,0-.32.23l-.12.13-.58.71.11.1.05-.06s.06-.09.12-.1.15.1.19.13l1,.8c.09.08.12.1,0,.19a.76.76,0,0,1-.08.11l.12.08.58-.7-.12-.1,0,.05L39,35.9a.09.09,0,0,1-.11,0l-.07-.06-.49-.4Z" transform="translate(-4 -3.31)"/><path class="cls-4" d="M39.88,35l-.12-.08.08-.13c0-.09,0-.12-.1-.18l-1.1-.75-.08,0s-.05,0-.08,0a.73.73,0,0,0-.08.09l0,.07-.12-.09.51-.75.12.08,0,.07s-.07.08-.06.14a.08.08,0,0,0,0,0s0,0,.07.06l1.13.77s.09.06.13,0l0,0,.07-.09,0,0,.12.08Z" transform="translate(-4 -3.31)"/><path class="cls-4" d="M39.48,31.75l.05-.09.7.37,0,.11c-.3-.09-.7-.13-.84.13a.33.33,0,0,0,0,.36,1,1,0,0,0,.28.3l.29.18a2.71,2.71,0,0,0,.39.17.58.58,0,0,0,.34,0,.39.39,0,0,0,.25-.2c.15-.26,0-.55-.27-.74l.1-.11a.77.77,0,0,1-.29,1.41,1.08,1.08,0,0,1-.73-.16,1.13,1.13,0,0,1-.54-.58.75.75,0,0,1,0-.67.61.61,0,0,1,.32-.31h0Z" transform="translate(-4 -3.31)"/><path class="cls-4" d="M40.9,31.66l-.53-.49.71.06-.18.43.13.12.23-.54.33,0a.12.12,0,0,1,.11,0,.22.22,0,0,1,0,.16l.13.06.33-.75L42,30.73c-.07.14-.12.14-.28.13l-1.78-.12-.06.16L41,32c.13.13.31.29.25.47l.13.06.27-.62-.13-.05c-.05.1-.13.2-.27.14a1,1,0,0,1-.22-.18Z" transform="translate(-4 -3.31)"/><path class="cls-4" d="M23.73,43.56a4.42,4.42,0,0,1,.65.61,4,4,0,0,0,.88.8,1.07,1.07,0,0,0,1.28-.11,4.63,4.63,0,0,1-.69-.62,4.22,4.22,0,0,0-.87-.76,1,1,0,0,0-1.25.08" transform="translate(-4 -3.31)"/><path class="cls-4" d="M21.81,43.31a4.16,4.16,0,0,1,.58.68,4.08,4.08,0,0,0,.8.88,1.07,1.07,0,0,0,1.29,0,4.26,4.26,0,0,1-.62-.68,4.67,4.67,0,0,0-.79-.85,1,1,0,0,0-1.26,0" transform="translate(-4 -3.31)"/><path class="cls-4" d="M20,42.89a4.33,4.33,0,0,1,.52.73,3.84,3.84,0,0,0,.7,1,1.05,1.05,0,0,0,1.28.14,4.44,4.44,0,0,1-.55-.74,4.3,4.3,0,0,0-.71-.92A1,1,0,0,0,20,42.89" transform="translate(-4 -3.31)"/><path class="cls-4" d="M18.16,42.28a3.58,3.58,0,0,1,.44.79,4,4,0,0,0,.61,1,1.07,1.07,0,0,0,1.25.27,4.7,4.7,0,0,1-.47-.8,4.21,4.21,0,0,0-.61-1,1,1,0,0,0-1.22-.3" transform="translate(-4 -3.31)"/><path class="cls-4" d="M16.43,41.5a3.52,3.52,0,0,1,.36.82,3.73,3.73,0,0,0,.51,1.08,1.05,1.05,0,0,0,1.22.39,4.64,4.64,0,0,1-.39-.83,4.89,4.89,0,0,0-.51-1.05,1,1,0,0,0-1.19-.41" transform="translate(-4 -3.31)"/><path class="cls-4" d="M14.79,40.55a4.83,4.83,0,0,1,.28.86,4,4,0,0,0,.39,1.12,1.08,1.08,0,0,0,1.18.51,5.08,5.08,0,0,1-.31-.87,4.77,4.77,0,0,0-.4-1.09,1,1,0,0,0-1.14-.53" transform="translate(-4 -3.31)"/><path class="cls-4" d="M13.25,39.44a4.47,4.47,0,0,1,.19.88,4,4,0,0,0,.28,1.15,1.05,1.05,0,0,0,1.12.63,4.12,4.12,0,0,1-.22-.89,4.55,4.55,0,0,0-.29-1.13,1,1,0,0,0-1.08-.64" transform="translate(-4 -3.31)"/><path class="cls-4" d="M11.83,38.18a4.48,4.48,0,0,1,.1.9,4.14,4.14,0,0,0,.16,1.17,1.07,1.07,0,0,0,1.06.74,4.41,4.41,0,0,1-.13-.91,4.86,4.86,0,0,0-.18-1.15,1,1,0,0,0-1-.75" transform="translate(-4 -3.31)"/><path class="cls-4" d="M10.54,36.79a4.4,4.4,0,0,1,0,.9,3.84,3.84,0,0,0,0,1.19,1,1,0,0,0,1,.83,4.28,4.28,0,0,1,0-.91,4.76,4.76,0,0,0-.06-1.16,1,1,0,0,0-.93-.85" transform="translate(-4 -3.31)"/><path class="cls-4" d="M9.39,35.28a3.83,3.83,0,0,1-.08.9,4,4,0,0,0-.07,1.18,1.05,1.05,0,0,0,.89.93,4.4,4.4,0,0,1,0-.92,4.21,4.21,0,0,0,.05-1.16,1,1,0,0,0-.84-.93" transform="translate(-4 -3.31)"/><path class="cls-4" d="M8.4,33.66a3.72,3.72,0,0,1-.17.89,4,4,0,0,0-.18,1.17,1.06,1.06,0,0,0,.79,1A4.3,4.3,0,0,1,9,35.82a4.51,4.51,0,0,0,.17-1.15,1,1,0,0,0-.75-1" transform="translate(-4 -3.31)"/><path class="cls-4" d="M7.58,32a4.25,4.25,0,0,1-.26.86A4.26,4.26,0,0,0,7,34a1.06,1.06,0,0,0,.69,1.09,4.18,4.18,0,0,1,.23-.89A4.77,4.77,0,0,0,8.22,33,1,1,0,0,0,7.58,32" transform="translate(-4 -3.31)"/><path class="cls-4" d="M6.93,30.17a3.83,3.83,0,0,1-.34.83,4.3,4.3,0,0,0-.42,1.12,1.05,1.05,0,0,0,.58,1.14,4.24,4.24,0,0,1,.32-.86,4.5,4.5,0,0,0,.39-1.09,1,1,0,0,0-.53-1.14" transform="translate(-4 -3.31)"/><path class="cls-4" d="M6.45,28.33a4.35,4.35,0,0,1-.41.8,4.2,4.2,0,0,0-.53,1.06A1.07,1.07,0,0,0,6,31.39a4.2,4.2,0,0,1,.41-.83,4.61,4.61,0,0,0,.49-1,1,1,0,0,0-.42-1.19" transform="translate(-4 -3.31)"/><path class="cls-4" d="M6.17,26.45a3.8,3.8,0,0,1-.49.75,4.06,4.06,0,0,0-.63,1,1.06,1.06,0,0,0,.33,1.24,4.81,4.81,0,0,1,.49-.77,4.54,4.54,0,0,0,.6-1,1,1,0,0,0-.3-1.22" transform="translate(-4 -3.31)"/><path class="cls-4" d="M6.08,24.56a4.05,4.05,0,0,1-.57.69,3.84,3.84,0,0,0-.73.95A1.06,1.06,0,0,0,5,27.46a4.59,4.59,0,0,1,.57-.73,4.29,4.29,0,0,0,.69-.93,1,1,0,0,0-.17-1.24" transform="translate(-4 -3.31)"/><path class="cls-4" d="M6.17,22.66a3.85,3.85,0,0,1-.64.64,4.28,4.28,0,0,0-.81.86,1.07,1.07,0,0,0,.08,1.29,4.23,4.23,0,0,1,.63-.67,4.79,4.79,0,0,0,.79-.86,1,1,0,0,0,0-1.26" transform="translate(-4 -3.31)"/><path class="cls-4" d="M6.45,20.79a5,5,0,0,1-.7.57,4.39,4.39,0,0,0-.9.78,1.05,1.05,0,0,0,0,1.28,5.08,5.08,0,0,1,.7-.61A4.68,4.68,0,0,0,6.37,22a1,1,0,0,0,.08-1.25" transform="translate(-4 -3.31)"/><path class="cls-4" d="M6.91,19a3.74,3.74,0,0,1-.75.5,4.06,4.06,0,0,0-1,.68A1.07,1.07,0,0,0,5,21.4a4.58,4.58,0,0,1,.75-.53,4.4,4.4,0,0,0,.94-.69A1,1,0,0,0,6.91,19" transform="translate(-4 -3.31)"/><path class="cls-4" d="M7.56,17.16a4.5,4.5,0,0,1-.8.43,4,4,0,0,0-1,.58,1.07,1.07,0,0,0-.3,1.25A4.48,4.48,0,0,1,6.24,19a4.87,4.87,0,0,0,1-.58,1,1,0,0,0,.33-1.22" transform="translate(-4 -3.31)"/><path class="cls-4" d="M8.38,15.45a4.44,4.44,0,0,1-.83.34,3.78,3.78,0,0,0-1.09.48A1.06,1.06,0,0,0,6,17.49a3.93,3.93,0,0,1,.84-.38,4.26,4.26,0,0,0,1-.48,1,1,0,0,0,.45-1.18" transform="translate(-4 -3.31)"/><path class="cls-4" d="M9.36,13.83a3.92,3.92,0,0,1-.85.25,4.24,4.24,0,0,0-1.14.38,1.05,1.05,0,0,0-.54,1.16,3.87,3.87,0,0,1,.87-.28A4.51,4.51,0,0,0,8.81,15a1,1,0,0,0,.55-1.12" transform="translate(-4 -3.31)"/><path class="cls-4" d="M10.5,12.31a3.72,3.72,0,0,1-.87.17,4,4,0,0,0-1.17.26,1.06,1.06,0,0,0-.65,1.1,4.54,4.54,0,0,1,.9-.19,4.93,4.93,0,0,0,1.13-.27,1,1,0,0,0,.66-1.07" transform="translate(-4 -3.31)"/><path class="cls-4" d="M11.79,10.92a4.55,4.55,0,0,1-.9.08,3.94,3.94,0,0,0-1.18.14,1,1,0,0,0-.75,1,3.91,3.91,0,0,1,.92-.1A4.9,4.9,0,0,0,11,11.91a1,1,0,0,0,.77-1" transform="translate(-4 -3.31)"/><path class="cls-4" d="M10.69,10.59l.5,0a4.67,4.67,0,0,0,1.16,0,1,1,0,0,0,.86-.91,5.51,5.51,0,0,1-.9,0,4.6,4.6,0,0,0-1.19,0,1,1,0,0,0-.85,1,1.66,1.66,0,0,1,.42,0" transform="translate(-4 -3.31)"/><path class="cls-4" d="M11.86,9.21a6.25,6.25,0,0,1,.78.08,4.72,4.72,0,0,0,1.16.08,1,1,0,0,0,.95-.83,3.9,3.9,0,0,1-.9-.09,3.79,3.79,0,0,0-1.18-.1,1.05,1.05,0,0,0-.95.87h.14" transform="translate(-4 -3.31)"/><path class="cls-4" d="M13.31,8a5.28,5.28,0,0,1,.91.16,4.46,4.46,0,0,0,1.09.19h0a1,1,0,0,0,1-.72,4.59,4.59,0,0,1-.88-.18,4.29,4.29,0,0,0-1.1-.22h-.07a1.06,1.06,0,0,0-1,.77" transform="translate(-4 -3.31)"/><path class="cls-4" d="M15,6.86a4.59,4.59,0,0,1,.88.26,4.26,4.26,0,0,0,1.12.3,1,1,0,0,0,1.09-.62,4.09,4.09,0,0,1-.85-.27,4.3,4.3,0,0,0-1.15-.33H16a1,1,0,0,0-1,.66" transform="translate(-4 -3.31)"/><path class="cls-4" d="M16.82,5.94a4.16,4.16,0,0,1,.85.34,4.84,4.84,0,0,0,1.09.42,1,1,0,0,0,1.15-.51,4.46,4.46,0,0,1-.82-.35A3.82,3.82,0,0,0,18,5.4a1,1,0,0,0-1.16.54" transform="translate(-4 -3.31)"/><path class="cls-4" d="M18.71,5.21a4,4,0,0,1,.82.42,4.21,4.21,0,0,0,1,.52,1,1,0,0,0,1.19-.39A4.16,4.16,0,0,1,21,5.33a4,4,0,0,0-1.06-.55,1.06,1.06,0,0,0-1.21.43" transform="translate(-4 -3.31)"/><path class="cls-4" d="M20.66,4.66a4.42,4.42,0,0,1,.77.51,4.94,4.94,0,0,0,1,.62,1.45,1.45,0,0,0,.48.09,1,1,0,0,0,.75-.36A4.31,4.31,0,0,1,22.9,5a4,4,0,0,0-1-.66,1.08,1.08,0,0,0-1.25.31" transform="translate(-4 -3.31)"/><path class="cls-4" d="M22.66,4.32a4.53,4.53,0,0,1,.71.57,4.45,4.45,0,0,0,.92.72,1,1,0,0,0,1.25-.15,3.69,3.69,0,0,1-.68-.58,4.37,4.37,0,0,0-.93-.75,1.06,1.06,0,0,0-1.27.19" transform="translate(-4 -3.31)"/><path class="cls-4" d="M24.68,4.17a5,5,0,0,1,.66.65,4.34,4.34,0,0,0,.83.79,1,1,0,0,0,1.26,0A3.81,3.81,0,0,1,26.81,5,4,4,0,0,0,26,4.11a1.06,1.06,0,0,0-1.28.06" transform="translate(-4 -3.31)"/><path class="cls-4" d="M26.71,4.22a4.61,4.61,0,0,1,.58.71,4.19,4.19,0,0,0,.76.88,1,1,0,0,0,1.25.1,4,4,0,0,1-.55-.7A3.94,3.94,0,0,0,28,4.3a1.06,1.06,0,0,0-1.28-.08" transform="translate(-4 -3.31)"/><path class="cls-4" d="M28.71,4.48a3.84,3.84,0,0,1,.52.76,4.79,4.79,0,0,0,.66,1,1,1,0,0,0,1.24.23,4.19,4.19,0,0,1-.48-.76,3.9,3.9,0,0,0-.67-1,1.07,1.07,0,0,0-1.27-.19" transform="translate(-4 -3.31)"/><path class="cls-4" d="M30.69,4.93a4.92,4.92,0,0,1,.44.81,4,4,0,0,0,.57,1,1,1,0,0,0,1.2.35,3.62,3.62,0,0,1-.4-.79,4,4,0,0,0-.57-1,1,1,0,0,0-1.24-.33" transform="translate(-4 -3.31)"/><path class="cls-4" d="M32.61,5.58a4.37,4.37,0,0,1,.35.85,5,5,0,0,0,.47,1.06A1,1,0,0,0,34.6,8a3.77,3.77,0,0,1-.33-.84A3.68,3.68,0,0,0,33.81,6a1,1,0,0,0-.88-.49.86.86,0,0,0-.32,0" transform="translate(-4 -3.31)"/><path class="cls-4" d="M34.46,6.41a4.52,4.52,0,0,1,.27.89,4.59,4.59,0,0,0,.35,1.1A1,1,0,0,0,36,9l.21,0A3.5,3.5,0,0,1,36,8.11,4.37,4.37,0,0,0,35.61,7a1.07,1.07,0,0,0-1.15-.56" transform="translate(-4 -3.31)"/><path class="cls-4" d="M36.21,7.43a4.6,4.6,0,0,1,.18.9,4.58,4.58,0,0,0,.24,1.14,1,1,0,0,0,1.06.68,3.86,3.86,0,0,1-.16-.88A4,4,0,0,0,37.3,8.1a1,1,0,0,0-1-.68h-.12" transform="translate(-4 -3.31)"/><path class="cls-4" d="M37.86,8.61a5.61,5.61,0,0,1,.09.92,4.51,4.51,0,0,0,.12,1.15,1,1,0,0,0,1,.79h0a4.06,4.06,0,0,1-.06-.9,3.67,3.67,0,0,0-.12-1.18,1,1,0,0,0-1-.78Z" transform="translate(-4 -3.31)"/><path class="cls-4" d="M39.37,10a4.11,4.11,0,0,1,0,.93,4.37,4.37,0,0,0,0,1.15,1,1,0,0,0,.89.89,4,4,0,0,1,0-.9,4,4,0,0,0,0-1.19,1.06,1.06,0,0,0-.94-.88" transform="translate(-4 -3.31)"/><path class="cls-4" d="M40.75,11.44a4.11,4.11,0,0,1-.09.92,4.3,4.3,0,0,0-.1,1.15,1,1,0,0,0,.8,1,3.91,3.91,0,0,1,.12-.89,4.25,4.25,0,0,0,.12-1.19,1,1,0,0,0-.85-1" transform="translate(-4 -3.31)"/><path class="cls-4" d="M42,13.05a4.79,4.79,0,0,1-.19.91,4.12,4.12,0,0,0-.21,1.14,1,1,0,0,0,.7,1,3.86,3.86,0,0,1,.2-.88,3.76,3.76,0,0,0,.24-1.16,1.06,1.06,0,0,0-.74-1" transform="translate(-4 -3.31)"/><path class="cls-4" d="M43,14.78a3.75,3.75,0,0,1-.27.88,4,4,0,0,0-.32,1.11A1,1,0,0,0,43,17.88a3.72,3.72,0,0,1,.29-.85,3.93,3.93,0,0,0,.35-1.13A1,1,0,0,0,43,14.78" transform="translate(-4 -3.31)"/><path class="cls-4" d="M43.92,16.61a4.76,4.76,0,0,1-.37.85,4.43,4.43,0,0,0-.43,1.07,1,1,0,0,0,.48,1.16,4.3,4.3,0,0,1,.37-.82,4,4,0,0,0,.47-1.09,1.06,1.06,0,0,0-.52-1.17" transform="translate(-4 -3.31)"/><path class="cls-4" d="M44.61,18.51a4,4,0,0,1-.45.81,4.59,4.59,0,0,0-.53,1,1,1,0,0,0,.36,1.2,3.54,3.54,0,0,1,.45-.77A4.06,4.06,0,0,0,45,19.73a1.06,1.06,0,0,0-.4-1.22" transform="translate(-4 -3.31)"/><path class="cls-4" d="M45.11,20.47a4.13,4.13,0,0,1-.52.76,5.05,5.05,0,0,0-.64,1,1,1,0,0,0,.24,1.23,4.5,4.5,0,0,1,.53-.72,3.81,3.81,0,0,0,.67-1,1.07,1.07,0,0,0-.28-1.26" transform="translate(-4 -3.31)"/><path class="cls-4" d="M45.42,22.48a4.91,4.91,0,0,1-.6.7,4.81,4.81,0,0,0-.73.9,1,1,0,0,0,.12,1.25,3.5,3.5,0,0,1,.6-.67,4.17,4.17,0,0,0,.76-.91,1,1,0,0,0-.15-1.27" transform="translate(-4 -3.31)"/><path class="cls-4" d="M45.52,24.5a4.53,4.53,0,0,1-.66.65A4.24,4.24,0,0,0,44,26a1,1,0,0,0,0,1.25,4,4,0,0,1,.66-.61,4.2,4.2,0,0,0,.85-.83,1,1,0,0,0,0-1.28" transform="translate(-4 -3.31)"/><path class="cls-4" d="M45.42,26.53a4.62,4.62,0,0,1-.71.57,4,4,0,0,0-.9.74,1,1,0,0,0-.14,1.25,4.08,4.08,0,0,1,.72-.54,4,4,0,0,0,.93-.74,1.06,1.06,0,0,0,.1-1.28" transform="translate(-4 -3.31)"/><path class="cls-4" d="M45.12,28.53a4,4,0,0,1-.77.5,4.53,4.53,0,0,0-1,.64,1,1,0,0,0-.25,1.23,4.32,4.32,0,0,1,.77-.47,3.91,3.91,0,0,0,1-.64,1,1,0,0,0,.22-1.26" transform="translate(-4 -3.31)"/><path class="cls-4" d="M44.63,30.5a4.46,4.46,0,0,1-.82.41,5,5,0,0,0-1,.55,1,1,0,0,0-.37,1.2,4.39,4.39,0,0,1,.81-.39,4.05,4.05,0,0,0,1.06-.54,1.06,1.06,0,0,0,.35-1.23" transform="translate(-4 -3.31)"/><path class="cls-4" d="M43.94,32.4a4.52,4.52,0,0,1-.86.34,4.2,4.2,0,0,0-1.07.44,1,1,0,0,0-.49,1.15,4.05,4.05,0,0,1,.84-.3,4,4,0,0,0,1.11-.44,1,1,0,0,0,.47-1.19" transform="translate(-4 -3.31)"/><path class="cls-4" d="M43.06,34.23a3.9,3.9,0,0,1-.88.25,4.34,4.34,0,0,0-1.12.33,1,1,0,0,0-.6,1.1,4,4,0,0,1,.86-.22,3.86,3.86,0,0,0,1.16-.32,1,1,0,0,0,.58-1.14" transform="translate(-4 -3.31)"/><path class="cls-4" d="M42,36a4.7,4.7,0,0,1-.91.16,4.2,4.2,0,0,0-1.13.22,1,1,0,0,0-.72,1,3.57,3.57,0,0,1,.89-.13,4,4,0,0,0,1.17-.21A1,1,0,0,0,42,36" transform="translate(-4 -3.31)"/><path class="cls-4" d="M40.73,37.65a4.16,4.16,0,0,1-.91.06,4.62,4.62,0,0,0-1.16.11,1,1,0,0,0-.82,1,4.58,4.58,0,0,1,.9,0h.36a3,3,0,0,0,.83-.09,1.06,1.06,0,0,0,.8-1" transform="translate(-4 -3.31)"/><path class="cls-4" d="M36.51,40a7.1,7.1,0,0,1,.77.07,3.79,3.79,0,0,0,1.1,0,1,1,0,0,0,.9-.91,3.71,3.71,0,0,1-.92,0,4.55,4.55,0,0,0-1.16,0,1,1,0,0,0-.91.87l.22,0" transform="translate(-4 -3.31)"/><path class="cls-4" d="M34.68,41.07a4.57,4.57,0,0,1,.87.14,3.67,3.67,0,0,0,1.18.16,1.14,1.14,0,0,0,1-.85,3.82,3.82,0,0,1-.94-.11,5,5,0,0,0-1.17-.11,1,1,0,0,0-1,.77Z" transform="translate(-4 -3.31)"/><path class="cls-4" d="M33,41.92a4,4,0,0,1,.86.23,4.19,4.19,0,0,0,1.16.27,1.06,1.06,0,0,0,1.07-.71,4.5,4.5,0,0,1-.89-.21,4.36,4.36,0,0,0-1.14-.25h0a1,1,0,0,0-1.06.67" transform="translate(-4 -3.31)"/><path class="cls-4" d="M31.23,42.61a4.53,4.53,0,0,1,.84.32,4.35,4.35,0,0,0,1.13.39,1.05,1.05,0,0,0,1.13-.6,4,4,0,0,1-.87-.31,5,5,0,0,0-1.1-.36,1,1,0,0,0-1.13.56" transform="translate(-4 -3.31)"/><path class="cls-4" d="M29.36,43.14a4.29,4.29,0,0,1,.81.4,4.08,4.08,0,0,0,1.07.5,1,1,0,0,0,1.19-.48,4.3,4.3,0,0,1-.83-.39,4.37,4.37,0,0,0-1.06-.47,1,1,0,0,0-1.18.44" transform="translate(-4 -3.31)"/><path class="cls-4" d="M27.47,43.47a3.75,3.75,0,0,1,.76.48,4.23,4.23,0,0,0,1,.6,1.06,1.06,0,0,0,1.24-.36,4.65,4.65,0,0,1-.79-.47,4.81,4.81,0,0,0-1-.58,1,1,0,0,0-1.22.33" transform="translate(-4 -3.31)"/><path class="cls-4" d="M25.58,43.6a4.42,4.42,0,0,1,.71.55,4.23,4.23,0,0,0,1,.71,1.06,1.06,0,0,0,1.26-.24,3.9,3.9,0,0,1-.74-.55,5.16,5.16,0,0,0-.94-.67,1,1,0,0,0-1.25.2" transform="translate(-4 -3.31)"/><path class="cls-3" d="M18.18,21.05s0-.15,0-.21a4.72,4.72,0,0,0-.51-.69,9.06,9.06,0,0,1-.66-.73c-.21-.29-.33-.6-.56-.87-.36-.45-.39-.6-1.05-.46-.22,0-.93.13-.71.27a14.76,14.76,0,0,1,2.68,2.07l.21.3a1.74,1.74,0,0,1,.22.48c-.09-.09-.17-.19-.25-.28a.63.63,0,0,0-.93,0,3.73,3.73,0,0,1,1.48.87c.05-.21-.08-.68.09-.75" transform="translate(-4 -3.31)"/><path class="cls-3" d="M16.59,18.63c.11.23.27.41.4.63a1.09,1.09,0,0,0,.17.22c.2.21.36.46.63.54,0,0,0-.11,0-.17A4.34,4.34,0,0,0,17,18.48a4.14,4.14,0,0,0-.89-.93A4.49,4.49,0,0,1,17.42,19a5.41,5.41,0,0,1,.45.72c.08.18,0,.4.12.57,0-.25.2-.4.11-.59-.34-.66-.7-1.31-1.05-2a3.1,3.1,0,0,0-2.39-1.34c-.12,0-.6,0-.59.17.54.46,1.33.84,1.9,1.31a2.54,2.54,0,0,1,.62.8" transform="translate(-4 -3.31)"/><path class="cls-3" d="M17,17.18c.31.51.48,1.06.76,1.59.07.13.14.26.23.4s.21.39.21.27a1.08,1.08,0,0,0-.07-.36,18.41,18.41,0,0,0-.84-1.87c.15.27.28.55.45.8s.17.35.29.52,0,.07,0,.11a.15.15,0,0,0,.06.05c-.07-.66-.22-1.31-.33-2C17,16,16.05,14.8,15,14.48c-.1.17.08.31.16.44.44.72,1.36,1.5,1.81,2.26" transform="translate(-4 -3.31)"/><path class="cls-3" d="M17.88,16.57c.26.76.23,1.56.51,2.3.07.17.25-.08.26-.16a3.38,3.38,0,0,0-.14-1.48c-.09-.26-.2-.52-.29-.78.28.36.33.82.57,1.19a5.81,5.81,0,0,0,0-1.25,3,3,0,0,1-.11-.58,1,1,0,0,0-.3-.39,10,10,0,0,0-2-1.71l-.15,0c.09.34.68.92.84,1.22a12.18,12.18,0,0,1,.76,1.59" transform="translate(-4 -3.31)"/><path class="cls-3" d="M19,17.22c0,.37-.06.73-.08,1.11a.78.78,0,0,0,.15.47s.07,0,.08,0a2.48,2.48,0,0,0,.16-1.11,17.24,17.24,0,0,0-.17-2.39,21.64,21.64,0,0,1,.37,3.11,6.13,6.13,0,0,0,.3-1.8,4.25,4.25,0,0,0-.38-1.5,3.79,3.79,0,0,0-.73-1c-.06-.08-.37-.35-.42-.23s.22.5.29.65A5.94,5.94,0,0,1,19,17.22" transform="translate(-4 -3.31)"/><path class="cls-3" d="M19.58,18.57s.24.08.28,0A5.52,5.52,0,0,0,20,18a8.38,8.38,0,0,0,.11-1,5.05,5.05,0,0,0-.06-.68c.11.09.09.24.11.36a6.75,6.75,0,0,1,0,1.62s0,.05,0,0a1.28,1.28,0,0,0,.4-.47,1.73,1.73,0,0,0,.06-.75,3.21,3.21,0,0,0-.77-2s0,0-.05.06,0,.83,0,1a8.68,8.68,0,0,1-.3,2.42" transform="translate(-4 -3.31)"/><path class="cls-3" d="M20.19,18.51s0,0,.08,0a.29.29,0,0,1,.11.16c0,.1.24.09.28.05a2.54,2.54,0,0,0,.78-1.42c0-.26,0-.66-.15-.74s-.11.18-.15.28a5.64,5.64,0,0,1-.38,1c-.13.25-.38.4-.57.66" transform="translate(-4 -3.31)"/><path class="cls-3" d="M20.8,18.91c-.1.21.15.26.27.41.49-.66.58-.52.84-.82A1.08,1.08,0,0,0,22,17.29a6.66,6.66,0,0,0-.82,1.13,2.18,2.18,0,0,0-.37.49" transform="translate(-4 -3.31)"/><path class="cls-3" d="M18.37,20c.05.07.11.24.14.19a.74.74,0,0,0,.25-.56.62.62,0,0,0,0-.1,2.59,2.59,0,0,0,0-.73c-.21.07-.27.28-.37.45a.54.54,0,0,0-.06.38,1.11,1.11,0,0,0,0,.37" transform="translate(-4 -3.31)"/><path class="cls-3" d="M19.44,18.72a.89.89,0,0,0-.56.83c0,.12-.16.33,0,.31a.37.37,0,0,1,.42.23c0,.09,0,0,.08,0a1.53,1.53,0,0,1,.14-1.2c0-.05,0-.14-.06-.14" transform="translate(-4 -3.31)"/><path class="cls-3" d="M19.75,19.9a1.11,1.11,0,0,1,.39-1c.07-.06,0-.18-.14-.23a.14.14,0,0,0-.09,0,1.06,1.06,0,0,0-.36.34,1,1,0,0,0,0,.89c0,.08.23,0,.22,0" transform="translate(-4 -3.31)"/><path class="cls-3" d="M20.3,19.18a.63.63,0,0,0,.24-.16s0-.12-.07-.14-.23.11-.3.21a.9.9,0,0,0-.28.7,1.73,1.73,0,0,1,.41-.61" transform="translate(-4 -3.31)"/><path class="cls-3" d="M20.19,20a1,1,0,0,0,.36-.3c.12-.15.23-.06.28-.17a.26.26,0,0,0,0-.27c-.15-.07-.26,0-.39.09a.84.84,0,0,0-.35.64c0,.06.09,0,.14,0" transform="translate(-4 -3.31)"/><path class="cls-3" d="M20.92,19.56c.08.05.22,0,.25.1s.06.08.07.12c.07.22-.13.43.05.63.11-.17.35-.38.46-.55a3,3,0,0,1,.32-.39c.19-.18.7-.35.82-.6a1.88,1.88,0,0,0,.15-.63c0-.09.09-.23,0-.24s-.64.26-.77.37-.47.45-.73.68a4,4,0,0,0-.63.51" transform="translate(-4 -3.31)"/><path class="cls-3" d="M22.12,19.62c-.27.25-.71.66-.68,1,0,.1.31,0,.44.07s.05.12,0,.19c.13,0,.28,0,.4,0s0,.15.09.22.19.07.21,0a3.7,3.7,0,0,1,1.26-1.35c.15-.09.11-.48,0-.51-.49-.09-1.15.61-1.31,1.1-.06-.48.58-.88.72-1s.13-.32,0-.33c-.33-.06-.89.34-1.14.56" transform="translate(-4 -3.31)"/><path class="cls-3" d="M23,20.68a.85.85,0,0,0-.16.35c0,.12-.26.42-.16.49s.23-.08.28,0c.26.46.53.17.57.41,0,.06.17,0,.2,0,.33-.37,1.29-1,1.2-1.54-.22-.15-.51,0-.71.14s-.48.44-.62.54,0-.06,0-.07a4.09,4.09,0,0,1,.86-.8c.12-.07.19-.34,0-.4s-.87.3-1.13.53l-.34.36" transform="translate(-4 -3.31)"/><path class="cls-3" d="M23.27,23.43a.63.63,0,0,0,.25-.09,2.66,2.66,0,0,0,.8-.69c.16-.24.36-.44.52-.68,0,0,.07-.15,0-.13s-.26.24-.41.33c.31-.51.73-.74.6-1.26,0-.1-.5.37-.61.49s-.36.25-.39.43a3.77,3.77,0,0,0,0,.66c0,.08.06.21,0,.31s0,.12-.06.08,0-.26-.19-.23-.12.19-.24.2c0-.29.42-.53.11-.7-.16-.09-.27.13-.45.15,0-.08.13-.13.16-.22a.14.14,0,0,0-.12-.15,2.11,2.11,0,0,0-.48.17c.06-.13.2-.34.07-.42s-.3.13-.47.18c0-.15.15-.31.07-.42s-.33,0-.5,0c.06-.13.21-.27.13-.37s-.43,0-.65,0c.05-.12.19-.23.11-.3s-.48,0-.61.24c0,0,0-.07,0-.09a1,1,0,0,0,.07-.72c-.05-.1-.24,0-.32-.05.11-.05.28-.1.3-.21s0-.21-.09-.22a.86.86,0,0,0-.77.51s0,.1,0,.14,0,0,0,0a.08.08,0,0,0,0-.14.17.17,0,0,0-.14,0c-.14.1-.29.28-.42.36,0-.17.2-.42,0-.5s-.26.18-.41.28a.21.21,0,0,0,0-.24.19.19,0,0,0-.28-.09.78.78,0,0,0-.4.66,1.92,1.92,0,0,1-.07-.42c0-.08-.1-.15-.13-.13a.39.39,0,0,0-.07.55c.09.13.29.14.37.28s0,.12,0,.17a.27.27,0,0,0-.13-.13c-.06,0-.15-.06-.16,0s-.13.48-.07.61.06.49.29.59a4.92,4.92,0,0,1,2.35,1.58,7.3,7.3,0,0,1,2.44-.4" transform="translate(-4 -3.31)"/><path class="cls-4" d="M27.26,20.05s.11,0,.11.05-.11,0-.16,0,0-.05,0-.09.08,0,.09,0" transform="translate(-4 -3.31)"/><path class="cls-4" d="M26.34,21.22c-.05,0-.1.09-.14.06s.05-.07,0-.11-.09-.1-.06-.13a.15.15,0,0,1,.22,0s0,.08,0,.14" transform="translate(-4 -3.31)"/><path class="cls-3" d="M25.84,19.28s0-.09.08-.12a.65.65,0,0,1,.2-.05c.07,0,.07-.13.09-.18a12.13,12.13,0,0,1,.24-1.2,6.5,6.5,0,0,0,0,1.07c0,.09.16.13.26.18s.11-.08.12-.14A5.59,5.59,0,0,0,26.67,17l-.24.16c-.95.54-.68,2.05-.59,2.15" transform="translate(-4 -3.31)"/><path class="cls-3" d="M27.52,28a3.82,3.82,0,0,1-1-1.93c0-.1,0-.13,0-.14s.06-.22.07-.36a.27.27,0,0,0,.18.15c.07,0,.05-.08.08-.07s-.05.06,0,.1-.2.14-.2.25A2.19,2.19,0,0,0,27,27a.53.53,0,0,0,.24.25.11.11,0,0,0,.15-.09.7.7,0,0,0,0-.32,6.84,6.84,0,0,1-.41-.81c.31.44.52,1.1,1.12,1.18.08,0,.11-.14.06-.21-.37-.45-.65-.87-1-1.32l-.13,0a3.64,3.64,0,0,0-.9-.4s-.05-.07,0-.07.15,0,.16-.11,0-.2-.05-.25-.18,0-.28.09-.09,0-.11,0a.29.29,0,0,1-.22.11c-.15,0-.12-.18-.14-.3s-.05-.05-.06,0a6.35,6.35,0,0,1-.75,0c-.06,0-.06-.06-.09-.1a0,0,0,0,1,0-.06.26.26,0,0,0,.12.07c.11,0,.05-.18.07-.28s.08.08.12,0a3.56,3.56,0,0,0,.57-.84c.23-.41.27-.68.5-1.08a.37.37,0,0,0,0-.11c0-.12.11-.22.19-.31S26,22,26,21.94s.14-.07.13-.09-.1-.1-.1-.14.08-.09.11-.14-.06-.13,0-.19a.08.08,0,0,1,.08,0c.14.09.1.18.05.29s.14,0-.06.29c0,.07.07.12,0,.28s-.16.17-.19.26a2.61,2.61,0,0,0-.09.57,2.25,2.25,0,0,1-.18.71c-.07.17-.24.3-.29.49s.06.18.16.15.07-.12.12-.17c0,.18,0,.52.25.42s.05-.28,0-.41,0,0,0,0a.28.28,0,0,0,.14.16c.05,0,.14,0,.16-.06s-.1-.23-.17-.34a.27.27,0,0,1,.09,0s.06.06.1.07a.19.19,0,0,0,.26-.16c0-.09-.09-.14-.17-.19.08-.09.22,0,.24-.18s-.09-.17-.12-.26.24,0,.26-.14-.12-.12-.22-.1,0-.07,0-.08a.49.49,0,0,0,.3-.2.61.61,0,0,0-.32-.16s0,0,0,0,.05,0,.09,0,0-.05.06-.05.25-.08.25-.17-.28-.09-.23-.23S27,22,27,22s-.11-.13-.1-.18.22-.06.26-.17-.09-.11-.17-.17,0,0,0-.05a.3.3,0,0,0,.33-.14s0-.08,0-.11S27.09,21,27.1,21s.31,0,.33-.13-.15-.15-.23-.24c.12,0,.3.07.33-.08s-.2-.09-.26-.21c.19,0,.53,0,.57-.24s-.22-.06-.36-.07a.07.07,0,0,0,0-.07c.2-.06.49-.09.49-.33s-.14-.15-.23-.14-.2.25-.39.24a1.38,1.38,0,0,0,.22-.26c.05-.11.12-.18.11-.29s-.12,0-.19,0-.07.16-.14.22-.06,0-.07,0,0-.1,0-.15,0-.24-.06-.24a.28.28,0,0,0-.23.18c-.07-.09,0-.24-.13-.24s-.14.21-.12.34c-.08-.1-.16-.31-.3-.26-.33.14-.22.52-.37.79,0-.16,0-.33,0-.49a0,0,0,0,0-.05,0c-.33.21-.28.61-.33,1a7.09,7.09,0,0,1-.33,1.3,4.62,4.62,0,0,1-.77,1.24,7.36,7.36,0,0,1-.77.61,3.89,3.89,0,0,0-.92.74c-.11.12-.22.25-.15.4s.11,0,.14-.06a.22.22,0,0,0,.15.09c.16,0,.13-.14.1-.25s.09.09.15.1.16-.14.22-.24a.05.05,0,0,0,.05,0,.42.42,0,0,1-.1.34c-.06.07-.18-.08-.24,0s0,.09,0,.1.19-.09.28-.05,0,.13-.08.15a.18.18,0,0,1-.26-.06c-.14.07-.31,0-.46,0a.26.26,0,0,1-.17-.07c-.31-.29-.31-.8-.27-.67s-.12.15-.13.24.12.07.16.19-.06.21,0,.24a.3.3,0,0,1,.07.49s0,.17,0,.21,0,.11-.1.13a.36.36,0,0,1,.17.23L27,28.63a.26.26,0,0,0,.32,0Z" transform="translate(-4 -3.31)"/><path class="cls-3" d="M27.43,18.85c.21-.23.36-.57.67-.71a7.15,7.15,0,0,0-.49.73s0,.14,0,.16a.67.67,0,0,0,.36-.12c.15-.09.32-.13.39-.24a2.67,2.67,0,0,0,.33-.75.16.16,0,0,0-.13-.23,1.65,1.65,0,0,0-.8.21,1.9,1.9,0,0,0-.69.69.21.21,0,0,0,0,.26c.11.17.26.08.34,0" transform="translate(-4 -3.31)"/><path class="cls-3" d="M28.41,18.82c-.13.09-.36.05-.39.28,0,.06,0,.13,0,.14a.6.6,0,0,1,.3.19c.16-.15.34-.43.23-.61s-.11,0-.15,0" transform="translate(-4 -3.31)"/><path class="cls-3" d="M28.82,18.5a.89.89,0,0,0-.22.16s.1,0,.11.08-.13.44,0,.42.22,0,.29,0a1.77,1.77,0,0,0,.54-.77c-.23-.14-.49.05-.72.13" transform="translate(-4 -3.31)"/><path class="cls-3" d="M29.84,19.58c.18-.19.32-.38.27-.48s-.3-.12-.48-.11a.71.71,0,0,0-.49.33c.15,0,.32,0,.39.16s-.06.2-.14.29c.12.05.37-.1.45-.19" transform="translate(-4 -3.31)"/><path class="cls-3" d="M28.37,19.52c0,.06,0,.15.07.15.22,0,.38.11.57.1s.27-.24.29-.32-.27-.15-.43-.15a.59.59,0,0,0-.5.22" transform="translate(-4 -3.31)"/><path class="cls-3" d="M29.17,20c0-.17-.42-.21-.67-.24s-.2.13-.17.16.29.12.44.27.41-.1.4-.19" transform="translate(-4 -3.31)"/><path class="cls-3" d="M29.51,19.75c-.11,0-.31,0-.32.09s.21.13.18.24-.21.2-.33.28,0,.2.12.19A1.92,1.92,0,0,0,30.34,20a.92.92,0,0,0-.83-.28" transform="translate(-4 -3.31)"/><path class="cls-3" d="M28.58,20.24c-.07,0-.17-.09-.23-.07s-.11.12-.07.15.3.24.45.36c0-.13.2-.07.2-.12s-.21-.24-.35-.32" transform="translate(-4 -3.31)"/><path class="cls-3" d="M28.53,21c0-.22-.24-.37-.44-.47s-.38.14-.27.2.06.22.33.3.36.06.38,0" transform="translate(-4 -3.31)"/><path class="cls-3" d="M30.27,20.76a.45.45,0,0,0-.42-.23,2.27,2.27,0,0,0-.62.21c.22.08.26.29.41.34s.36-.1.63-.24c0,0,0-.06,0-.08" transform="translate(-4 -3.31)"/><path class="cls-3" d="M29.58,21.32a1.23,1.23,0,0,0-.43-.48c-.09,0-.2,0-.27-.08s-.06,0-.05.06.13.14.08.21-.33.06-.44.22a1,1,0,0,0,1.11.07" transform="translate(-4 -3.31)"/><path class="cls-3" d="M27.74,20.84c0,.11-.06.24-.13.29s-.05.17-.13.25,0,.06,0,.05c.27-.09.35-.45.39-.31a.42.42,0,0,0-.16-.28" transform="translate(-4 -3.31)"/><path class="cls-3" d="M27.89,21.3s0,0,0,.05a.3.3,0,0,0,.23,0,.16.16,0,0,0,0-.27L28,20.91c-.05.08.06.16,0,.23s-.09.1-.13.16" transform="translate(-4 -3.31)"/><path class="cls-3" d="M28.54,17.52c.12,0,.27.08.31.16a.61.61,0,0,1,0,.54s0,.12,0,.1c.41-.31.46-.95.68-1.43A5.43,5.43,0,0,0,30,15.73a1.8,1.8,0,0,0-.12-1.23c-.08-.13-.39.33-.47.49a2.58,2.58,0,0,0-.19.37,3.23,3.23,0,0,1-.3.72c-.11.21-.26.49-.39.69-.24.35-.46.54-.71.86.19,0,.54-.16.72-.11" transform="translate(-4 -3.31)"/><path class="cls-3" d="M29.17,18.17c.12.17.33-.06.47.18s0,.32.05.34c.48.17.4-.35.53-.62.31-.61.52-1.07.84-1.73a3.55,3.55,0,0,0,.42-.79,3,3,0,0,0-.07-1.69s0-.08-.07,0c-.37.39-.42.93-.69,1.4s-.53.8-.73,1.24-.48,1.15-.75,1.72" transform="translate(-4 -3.31)"/><path class="cls-3" d="M32.32,16.79a.8.8,0,0,0-.19.3,5.83,5.83,0,0,1-.6,1.47,2.13,2.13,0,0,1-.42.52c-.25.26-.7.34-.86.57-.05.06.28.16.35.29s-.22.21-.15.39a2.72,2.72,0,0,0,1.31-.54,1.57,1.57,0,0,0,.53-.95,8.68,8.68,0,0,0,1.38-1.57,6.13,6.13,0,0,0,1.06-2.12,6.11,6.11,0,0,1,.24-.57,1.21,1.21,0,0,0-.06-.61,3.71,3.71,0,0,0-.78.93,21.64,21.64,0,0,1-1.81,1.89" transform="translate(-4 -3.31)"/><path class="cls-3" d="M33.6,17.74a10.6,10.6,0,0,0-1,1,.59.59,0,0,0-.12.2,1.9,1.9,0,0,1-.66,1,2.48,2.48,0,0,1-1.46.59s0,0,0,.06,0,.24.13.23a6.29,6.29,0,0,0,2.26-.87c.51-.33.73-1,1.2-1.35.83-.67,2.3-1.32,2.26-3a1.1,1.1,0,0,0-.29.16A15.9,15.9,0,0,1,34.59,17c-.38.29-.6.49-1,.78" transform="translate(-4 -3.31)"/><path class="cls-3" d="M34.59,19.67c.12-.08.19-.18.31-.26a2.07,2.07,0,0,0,.5-.52s.07-.12.08-.1a4.71,4.71,0,0,0,.84-1.23s0-.21-.08-.19a2.35,2.35,0,0,0-.8.44A8.93,8.93,0,0,0,33.6,19.1a6.5,6.5,0,0,1-1.22,1.18,3.6,3.6,0,0,1-.77.36,9.56,9.56,0,0,1-1.22.36s0,.07-.07.12,0,0,0,0A5.53,5.53,0,0,0,31.8,21c.61-.15,1.18-.19,1.77-.38a10.79,10.79,0,0,1-3.42.69c-.09,0-.2.1-.31.16a1.11,1.11,0,0,0,.65.11c.76,0,1.54-.09,2.29-.12-.29.17-.66.06-.94.26.3.05.3.4.49.39a5.12,5.12,0,0,0,1.7-.26,5.2,5.2,0,0,0,.55-.21,1.27,1.27,0,0,0,.61-.43l.1-.14a.51.51,0,0,0-.54-.11,8.69,8.69,0,0,1-1.26.36.37.37,0,0,1-.23,0A5.38,5.38,0,0,0,35,20.55c.33-.28,1-.75,1.22-1.15-.36-.11-1.11.26-1.46.33-.15,0-.29.14-.45.17a.69.69,0,0,1,.25-.23" transform="translate(-4 -3.31)"/><path class="cls-3" d="M33.46,22.15c-.37.07-.73.06-1.1.11a1.85,1.85,0,0,0-.62.27c.1.09.14.24.26.29a1.25,1.25,0,0,0,.72.05c.17,0,.34,0,.45-.17-.07-.05-.11-.15-.07-.16s.35-.09.47-.25-.07-.14-.11-.14" transform="translate(-4 -3.31)"/><path class="cls-3" d="M31.64,22.38c.14,0,.37-.06.37-.22s-.22-.38-.41-.4a16.51,16.51,0,0,1-2-.17,1.88,1.88,0,0,1-.86.26,5.53,5.53,0,0,0,2.91.53" transform="translate(-4 -3.31)"/><path class="cls-3" d="M28.63,22.48s-.13-.07-.07-.07a4.85,4.85,0,0,1,1.23.32,3.63,3.63,0,0,0,.52.19,2.68,2.68,0,0,0,1.51,0c-.07-.21-.22-.44-.46-.43a5.28,5.28,0,0,1-2.71-.59c-.35.07-.2,1-.18,1,.11.23.41.27.59.44-.23-.07-.69-.43-.7,0a.64.64,0,0,0,.14.35,2.86,2.86,0,0,0,1,.89,1.19,1.19,0,0,0,.93.26c.11,0,.06-.21,0-.29s-.2-.06-.31-.09a4.05,4.05,0,0,1-1.73-1.09c.36.16.6.45.95.64a1.55,1.55,0,0,0,1.17.29c.15,0,.05-.3-.05-.32l-.43-.16a2.43,2.43,0,0,1-.61-.29c.44.09.85.37,1.33.27,0-.24-.2-.38-.35-.52a4,4,0,0,0-1.83-.81" transform="translate(-4 -3.31)"/><path class="cls-3" d="M32.08,22.93c-.06,0,0,.15-.08.18a1.92,1.92,0,0,1-.83.05c-.17,0-.33,0-.5-.06,0,0,0,0,0,0s.39.39.29.55-.1.25,0,.28.33,0,.36-.12-.1-.32-.2-.44a1.59,1.59,0,0,0,.27.12.77.77,0,0,0,.3,0,4.5,4.5,0,0,0,.8-.14.47.47,0,0,0-.44-.48" transform="translate(-4 -3.31)"/><path class="cls-3" d="M29.22,24.39c-.3-.23-.52-.51-.81-.75,0,.06-.11,0-.14.05s0,.24,0,.33a2.11,2.11,0,0,0,.6.63,3.7,3.7,0,0,0,.66.42.68.68,0,0,0,.5.08c.09,0,.08-.17,0-.21-.26-.23-.59-.34-.88-.55" transform="translate(-4 -3.31)"/><path class="cls-3" d="M28.83,24.72c-.21-.17-.36-.39-.56-.55,0,.06-.11,0-.13,0a.42.42,0,0,0,0,.46,2.67,2.67,0,0,0,1.13.85c.1,0,.3.09.37,0s0-.2-.1-.25c-.24-.23-.46-.36-.72-.58" transform="translate(-4 -3.31)"/><path class="cls-3" d="M28.63,25.34c-.24-.19-.4-.42-.62-.62a.06.06,0,0,0-.08,0c-.09.11-.15.28-.09.36.29.46.77,1,1.31,1,.1,0,.08-.3,0-.36a2.38,2.38,0,0,0-.56-.41" transform="translate(-4 -3.31)"/><path class="cls-3" d="M28.53,26c-.28-.33-.54-.6-.83-.92-.05-.06-.19-.11-.23,0a.31.31,0,0,0,0,.32,4.25,4.25,0,0,0,1.13,1.11.15.15,0,0,0,.19,0c.18-.16-.12-.3-.26-.45" transform="translate(-4 -3.31)"/><path class="cls-3" d="M27.92,26.05a6.48,6.48,0,0,1-.51-.59c0-.05-.22,0-.2.05a5,5,0,0,0,1,1.29s.13,0,.17,0,.06-.17,0-.22c-.2-.19-.33-.36-.52-.56" transform="translate(-4 -3.31)"/><path class="cls-3" d="M28.1,21.59c-.21,0-.18-.08-.38-.08s-.22,0-.27,0-.09.24-.14.27,0,.43,0,.46a.72.72,0,0,0,.6.33c.09,0,.26,0,.31-.1s0-.13-.11-.14h0c.09-.05,0-.21,0-.27s-.29,0-.42-.16c.2,0,.43,0,.55-.13s-.06-.22-.17-.22" transform="translate(-4 -3.31)"/><path class="cls-3" d="M28.11,23.48c.11-.05,0-.19,0-.24s-.32,0-.48-.14-.16-.06-.2-.13-.13-.08-.08-.07c.25,0,.52.25.76.07,0,0,0-.17,0-.19a1.18,1.18,0,0,1-.46-.14,1.63,1.63,0,0,1-.29-.23c-.07-.07-.19,0-.17.05s-.09.34-.08.36,0,.19,0,.26.07.14.15.16a1.68,1.68,0,0,0,.3.15c.19,0,.37.16.58.09" transform="translate(-4 -3.31)"/><path class="cls-3" d="M28,23.85c-.12-.14-.33-.09-.49-.18a2.11,2.11,0,0,1-.44-.33c-.09-.09-.13.14-.07.21-.12-.17.85.46.88.47s.19-.09.12-.17" transform="translate(-4 -3.31)"/><path class="cls-3" d="M27.87,24.31c.16-.24-.21-.3-.41-.37s-.34-.25-.51-.38-.05.05-.08.06c.17.15,0,.24,0,.33.18.29.8.6,1,.36" transform="translate(-4 -3.31)"/><path class="cls-3" d="M27.58,24.54c0-.09-.15-.08-.25-.12a1,1,0,0,1-.42-.34c-.09-.11-.29,0-.27,0a1.34,1.34,0,0,0,1,.64c.09,0,0-.12,0-.18" transform="translate(-4 -3.31)"/><path class="cls-3" d="M26.58,24.4c-.14.11-.19,0-.23.06-.21.35.44.76.69.83s.23-.13.18-.26-.49-.76-.64-.63" transform="translate(-4 -3.31)"/><path class="cls-3" d="M30.19,18.8a.51.51,0,0,1-.09.7s0,.06,0,.05a3.34,3.34,0,0,0,.88-.62,2.42,2.42,0,0,0,.36-.42,5.52,5.52,0,0,0,.52-1,1.3,1.3,0,0,0,.09-.41.83.83,0,0,1,.13-.36A3.51,3.51,0,0,0,33,15.64a3.5,3.5,0,0,0,0-2.53.56.56,0,0,0-.16.18c-.12.24-.29.77-.39,1a5,5,0,0,1-.76,1.33,2.91,2.91,0,0,0-.38.56c-.41.87-.73,1.73-1.07,2.61" transform="translate(-4 -3.31)"/><path class="cls-3" d="M25.52,24.43s-.11.08-.09.12,0,.34.13.35.1-.6.12-.34c0-.09-.12-.07-.16-.13" transform="translate(-4 -3.31)"/><path class="cls-4" d="M24.12,25.13a.29.29,0,0,0,.16-.13s0,0,0-.06a0,0,0,0,1,0-.05c.11.07.17,0,.2-.11s0,.07,0,.09.12.08.11.14a.14.14,0,0,1-.21.13c0,.23-.32.26-.54.23,0,0-.07.05-.11.06a.26.26,0,0,1-.32-.06c-.05-.08,0-.12.07-.18a0,0,0,0,0,0,.06.09.09,0,0,0,.09,0,.52.52,0,0,0,.12-.17s.08.05.13.07a1.22,1.22,0,0,0,.27,0" transform="translate(-4 -3.31)"/></g><polygon class="cls-3" points="57.34 17.55 55.87 23.51 54.39 17.55 53 17.55 54.97 24.95 56.76 24.95 58.73 17.55 57.34 17.55"/><polygon class="cls-3" points="60.51 17.57 60.51 24.93 64.98 24.93 64.98 23.83 61.8 23.83 61.8 21.72 64.5 21.72 64.5 20.63 61.8 20.63 61.8 18.67 64.98 18.67 64.98 17.57 60.51 17.57"/><polygon class="cls-3" points="66.56 17.57 66.56 18.67 68.36 18.67 68.36 24.93 69.65 24.93 69.65 18.67 71.44 18.67 71.44 17.57 66.56 17.57"/><polygon class="cls-3" points="73.13 17.57 73.13 24.93 77.6 24.93 77.6 23.83 74.42 23.83 74.42 21.72 77.12 21.72 77.12 20.63 74.42 20.63 74.42 18.67 77.6 18.67 77.6 17.57 73.13 17.57"/><g class="cls-5"><path class="cls-3" d="M86,24.39a1,1,0,0,0,1.15-1.15v-.11A1,1,0,0,0,86,22H84.88v2.41Zm-1.11,3.85H83.59V20.87h2.35c1.17,0,2.51.34,2.51,2.21v.19a2,2,0,0,1-1.22,2l1.22,2.94H87.06L86,25.49h-1.1Z" transform="translate(-4 -3.31)"/></g><path class="cls-3" d="M92.82,22.3l.78,3.18H92Zm-.89-1.44-2,7.4h1.4l.41-1.68h2.12l.42,1.68h1.38l-2-7.4Z" transform="translate(-4 -3.31)"/><polygon class="cls-3" points="97.29 17.57 97.29 21.09 97.33 22.65 94.55 17.57 93.19 17.57 93.19 24.93 94.41 24.93 94.41 21.41 94.37 19.85 97.14 24.93 98.51 24.93 98.51 17.57 97.29 17.57"/><g class="cls-5"><path class="cls-3" d="M104.22,23v-.09c0-1.31,1-2.14,2.57-2.14,1.78,0,2.56.82,2.56,2.49v.21h-1.29c0-1.1-.36-1.59-1.26-1.59h-.08c-.72,0-1.18.38-1.18,1v.06c0,.6.28.94,1.47,1.1,1.63.22,2.41.8,2.41,2.09v.1c0,1.38-1,2.2-2.63,2.2s-2.63-.83-2.63-2.52v-.09h1.29c0,1,.49,1.5,1.29,1.5h.09c.81,0,1.27-.42,1.27-1v-.06c0-.64-.36-1-1.51-1.13-1.64-.22-2.37-.83-2.37-2.05" transform="translate(-4 -3.31)"/></g><polygon class="cls-3" points="110.14 17.57 110.14 24.93 114.61 24.93 114.61 23.83 111.43 23.83 111.43 21.72 114.12 21.72 114.12 20.63 111.43 20.63 111.43 18.67 114.61 18.67 114.61 17.57 110.14 17.57"/><polygon class="cls-3" points="120.33 17.57 118.99 20.22 117.63 17.57 116.13 17.57 118.06 21.11 116.13 24.93 117.57 24.93 118.98 21.99 120.4 24.93 121.84 24.93 119.9 21.1 121.84 17.57 120.33 17.57"/><g class="cls-5"><path class="cls-3" d="M129.86,24.39A1,1,0,0,0,131,23.24v-.11A1,1,0,0,0,129.86,22h-1.11v2.41Zm-1.11,3.85h-1.29V20.87h2.35c1.18,0,2.51.34,2.51,2.21v.19c0,1.88-1.33,2.22-2.51,2.22h-1.06Z" transform="translate(-4 -3.31)"/></g><polygon class="cls-3" points="129.71 17.57 129.71 24.93 134.18 24.93 134.18 23.83 131 23.83 131 21.72 133.7 21.72 133.7 20.63 131 20.63 131 18.67 134.18 18.67 134.18 17.57 129.71 17.57"/><g class="cls-5"><path class="cls-3" d="M142.57,24.39a1,1,0,0,0,1.15-1.15v-.11A1,1,0,0,0,142.57,22h-1.11v2.41Zm-1.11,3.85h-1.29V20.87h2.35c1.17,0,2.51.34,2.51,2.21v.19a2,2,0,0,1-1.22,2L145,28.24h-1.39l-1.08-2.75h-1.1Z" transform="translate(-4 -3.31)"/></g><rect class="cls-3" x="143.03" y="17.56" width="1.29" height="7.37"/><polygon class="cls-3" points="146.46 17.57 146.46 24.93 150.93 24.93 150.93 23.83 147.75 23.83 147.75 21.72 150.45 21.72 150.45 20.63 147.75 20.63 147.75 18.67 150.93 18.67 150.93 17.57 146.46 17.57"/><polygon class="cls-3" points="156.86 17.57 156.86 21.09 156.9 22.65 154.13 17.57 152.76 17.57 152.76 24.93 153.98 24.93 153.98 21.41 153.94 19.85 156.72 24.93 158.08 24.93 158.08 17.57 156.86 17.57"/><g class="cls-5"><path class="cls-3" d="M166.22,27.26h.09c.88,0,1.21-.58,1.21-1.5h1.3v.09c0,1.74-.86,2.52-2.59,2.52s-2.74-1.07-2.74-3.62v-.38c0-2.55.86-3.62,2.74-3.62s2.59.78,2.59,2.57v.32h-1.3c0-1.17-.3-1.78-1.21-1.78h-.09c-1.07,0-1.41.85-1.41,2.51v.38c0,1.66.33,2.51,1.41,2.51" transform="translate(-4 -3.31)"/></g><polygon class="cls-3" points="166.28 17.57 166.28 24.93 170.74 24.93 170.74 23.83 167.57 23.83 167.57 21.72 170.26 21.72 170.26 20.63 167.57 20.63 167.57 18.67 170.74 18.67 170.74 17.57 166.28 17.57"/><g class="cls-5"><path class="cls-3" d="M182.15,27.26c1,0,1.41-.85,1.41-2.51v-.38c0-1.66-.36-2.51-1.41-2.51h-.09c-1.05,0-1.42.85-1.42,2.51v.38c0,1.66.37,2.51,1.42,2.51Zm-2.82-2.51v-.38c0-2.55.89-3.62,2.78-3.62s2.77,1.07,2.77,3.62v.38c0,2.55-.89,3.62-2.77,3.62s-2.78-1.07-2.78-3.62" transform="translate(-4 -3.31)"/></g><polygon class="cls-3" points="182.82 17.57 182.82 24.93 184.11 24.93 184.11 21.72 186.74 21.72 186.74 20.63 184.11 20.63 184.11 18.67 187.22 18.67 187.22 17.57 182.82 17.57"/><polygon class="cls-3" points="188.92 17.57 188.92 24.93 190.21 24.93 190.21 21.72 192.84 21.72 192.84 20.63 190.21 20.63 190.21 18.67 193.32 18.67 193.32 17.57 188.92 17.57"/><rect class="cls-3" x="195.07" y="17.56" width="1.29" height="7.37"/><g class="cls-5"><path class="cls-3" d="M205.08,27.26h.09c.87,0,1.21-.58,1.21-1.5h1.3v.09c0,1.74-.87,2.52-2.59,2.52-1.88,0-2.75-1.07-2.75-3.62v-.38c0-2.55.87-3.62,2.75-3.62,1.72,0,2.59.78,2.59,2.57v.32h-1.3c0-1.17-.3-1.78-1.21-1.78h-.09c-1.07,0-1.42.85-1.42,2.51v.38c0,1.66.34,2.51,1.42,2.51" transform="translate(-4 -3.31)"/></g><polygon class="cls-3" points="205.59 17.57 205.59 24.93 210.06 24.93 210.06 23.83 206.88 23.83 206.88 21.72 209.58 21.72 209.58 20.63 206.88 20.63 206.88 18.67 210.06 18.67 210.06 17.57 205.59 17.57"/></svg>